{"glyphs":{"0":{"ha":1596,"x_min":149,"x_max":1499,"o":"m 149 949 l 1499 949 l 1499 0 l 149 0 l 149 949 m 168 19 l 1479 19 l 1479 929 l 168 929 l 168 19 m 293 326 l 299 326 q 310 331 306 326 q 313 343 313 336 q 310 354 313 351 q 299 358 306 358 l 293 358 l 293 326 m 293 308 l 293 303 l 293 299 q 294 297 293 297 q 294 296 294 297 l 303 294 l 303 292 l 286 292 l 269 292 l 269 294 l 276 296 q 278 297 278 297 l 278 303 l 278 308 l 278 349 l 278 353 l 278 357 q 276 358 278 358 l 269 361 l 269 364 q 277 363 274 364 q 283 363 281 363 q 288 363 286 363 q 293 364 290 364 l 301 364 q 322 358 317 364 q 329 344 329 356 q 322 328 329 333 q 301 321 313 321 q 293 322 296 321 l 293 308 m 361 363 q 374 363 368 363 q 388 364 381 364 l 388 363 l 385 346 l 382 346 l 378 358 l 358 358 l 358 331 l 361 331 l 371 331 q 372 332 372 332 l 375 339 l 378 339 l 378 328 l 378 318 l 375 317 l 372 325 q 371 326 372 326 l 361 326 l 358 326 l 358 308 l 358 297 l 379 297 l 386 311 l 389 311 l 388 292 l 388 292 l 363 292 l 349 292 l 335 292 l 335 294 l 342 296 q 343 297 343 297 l 343 303 l 343 308 l 343 349 l 343 353 l 343 357 q 342 358 343 358 l 335 361 l 335 364 q 342 363 339 364 q 349 363 346 363 l 361 363 m 422 329 l 426 329 q 438 333 433 329 q 440 344 440 336 q 438 356 440 350 q 428 358 432 358 l 425 358 l 422 358 l 422 329 m 422 308 l 422 303 l 422 297 l 422 296 l 428 294 l 428 292 l 414 292 l 399 292 l 399 294 l 406 296 q 407 297 406 297 l 407 303 l 407 308 l 407 349 l 407 353 l 407 357 l 406 358 l 399 361 l 399 364 q 406 363 401 364 q 413 363 410 363 q 415 363 414 363 q 417 364 415 364 l 422 364 l 428 364 l 431 364 q 450 360 444 364 q 457 346 457 357 q 453 335 457 339 q 447 331 450 332 q 442 326 444 329 q 447 317 444 322 q 453 308 450 314 q 455 306 454 307 q 457 303 456 304 q 461 297 458 300 l 463 296 l 464 296 l 465 294 l 468 294 l 468 292 q 457 290 465 290 q 450 292 451 290 q 448 292 449 292 q 446 293 447 293 q 442 299 443 296 q 440 301 440 300 q 438 304 439 303 l 433 313 q 428 321 431 318 q 426 322 428 322 l 426 324 q 425 325 425 325 l 424 325 l 422 325 l 422 308 m 507 358 q 500 360 504 360 q 490 357 496 360 q 488 349 488 354 l 488 343 l 492 339 q 496 336 493 339 q 501 333 499 336 q 508 331 503 333 q 511 328 510 329 q 514 326 513 328 q 516 324 515 325 q 518 321 517 322 q 519 317 518 318 q 519 313 519 315 q 511 296 519 303 q 490 290 504 290 q 472 293 483 290 l 472 293 l 475 313 l 478 313 l 482 297 q 490 294 488 294 q 500 299 496 294 q 504 307 504 301 q 503 313 504 311 q 500 317 503 314 q 494 319 500 317 q 492 321 493 321 q 490 322 492 321 q 487 324 488 324 q 483 325 486 324 q 481 327 482 326 q 478 329 479 328 q 476 332 476 331 q 474 335 475 333 q 472 343 472 338 q 479 358 472 354 q 499 364 486 364 q 517 363 510 364 l 517 361 l 514 346 l 511 344 l 507 358 m 544 328 q 550 303 544 317 q 567 294 557 294 q 582 303 578 294 q 588 328 588 310 q 582 351 588 344 q 565 360 578 360 q 550 353 554 360 q 544 328 544 342 m 604 329 q 594 300 604 311 q 565 290 585 290 q 538 300 547 290 q 528 326 528 310 q 539 354 528 343 q 567 365 550 365 q 594 356 586 365 q 604 329 604 346 m 628 297 q 629 296 628 296 l 636 294 l 636 292 l 625 292 l 613 292 l 613 294 l 619 296 q 621 297 621 297 l 621 308 l 621 349 l 621 357 q 619 358 621 358 l 613 361 l 613 364 q 619 363 617 364 q 624 363 621 363 q 628 363 626 363 q 633 364 631 364 l 667 321 q 669 318 668 319 q 672 315 669 317 q 671 322 671 318 l 671 349 l 671 357 q 669 358 671 358 l 664 361 l 664 364 q 669 363 667 364 q 675 363 672 363 q 681 363 678 363 q 686 364 683 364 l 686 361 l 679 358 q 678 357 678 358 l 678 349 l 678 292 l 672 292 l 632 342 q 628 347 629 344 l 628 340 l 628 308 l 628 297 m 719 344 q 717 339 717 339 l 710 319 l 728 319 l 721 339 q 720 341 721 340 q 719 344 719 342 m 708 314 l 704 306 q 703 302 704 303 q 703 300 703 301 l 703 297 l 703 296 l 704 296 l 710 294 l 710 292 l 697 292 l 686 292 l 686 294 l 692 296 q 693 297 693 296 q 694 297 693 297 q 695 299 694 299 q 696 301 696 300 l 722 364 l 728 364 l 750 303 q 751 299 750 300 q 751 297 751 299 q 753 297 753 297 q 754 296 753 296 l 760 294 l 760 292 l 746 292 l 728 292 l 728 294 l 733 296 l 735 296 l 735 297 l 735 300 q 733 304 733 301 l 729 314 l 708 314 m 788 349 l 788 308 l 788 297 l 807 297 l 814 311 l 818 313 l 817 292 l 815 292 l 792 292 l 778 292 l 764 292 l 764 294 l 771 296 l 772 297 l 772 303 l 772 308 l 772 349 l 772 353 l 772 357 q 771 358 771 358 l 764 361 l 764 364 q 771 363 767 364 q 779 363 775 363 q 788 363 783 363 q 794 364 792 364 l 794 361 l 789 358 q 788 357 788 358 l 788 353 l 788 349 m 846 364 q 853 363 849 364 q 861 363 857 363 q 869 363 865 363 q 876 364 874 364 l 878 361 l 871 358 q 869 357 869 358 l 869 353 l 869 349 l 869 321 q 874 301 869 306 q 888 296 878 296 q 901 301 896 296 q 906 319 906 308 l 906 349 l 906 353 l 906 357 q 904 358 906 358 l 897 361 l 897 364 q 904 363 901 364 q 910 363 907 363 q 915 363 913 363 q 921 364 918 364 l 921 361 l 914 358 q 913 357 913 358 l 913 353 l 913 349 l 913 322 q 906 297 913 307 q 885 290 900 290 q 861 297 868 290 q 854 321 854 304 l 854 349 l 854 353 l 854 357 q 853 358 853 358 l 846 361 l 846 364 m 963 358 q 956 360 961 360 q 947 357 950 360 q 943 349 943 353 q 944 343 943 344 q 947 339 944 342 q 951 336 949 339 q 957 333 954 336 q 964 331 958 333 q 967 328 965 329 q 969 326 968 328 q 972 324 971 325 q 974 321 972 322 q 975 313 975 318 q 967 296 975 303 q 946 290 961 290 q 938 291 942 290 q 928 293 933 292 l 928 293 l 931 313 l 933 313 l 938 297 q 946 294 943 294 q 957 299 953 294 q 960 307 960 301 l 960 313 l 956 317 q 953 318 954 318 q 951 319 953 318 q 946 322 946 322 q 942 324 943 324 q 939 325 942 324 q 936 327 938 326 q 933 329 935 328 q 931 332 932 331 q 929 335 931 333 q 928 339 929 338 q 928 343 928 340 q 936 358 928 354 q 956 364 942 364 q 972 363 965 364 l 972 361 l 969 346 l 967 344 l 963 358 m 1010 363 q 1022 363 1017 363 q 1035 364 1028 364 l 1036 363 l 1032 346 l 1029 346 l 1026 358 l 1007 358 l 1007 331 l 1010 331 l 1019 331 l 1021 332 l 1022 339 l 1026 339 l 1026 328 l 1026 318 l 1022 317 l 1021 325 l 1019 326 l 1010 326 l 1007 326 l 1007 308 l 1007 297 l 1028 297 l 1033 311 l 1038 311 l 1036 292 l 1035 292 l 1011 292 l 997 292 l 983 292 l 983 294 l 990 296 l 992 297 l 992 303 l 992 308 l 992 349 l 992 353 l 992 357 q 990 358 990 358 l 983 361 l 983 364 q 990 363 986 364 q 997 363 994 363 l 1010 363 m 1089 328 q 1094 303 1089 313 q 1111 294 1101 294 q 1126 303 1122 294 q 1132 328 1132 314 q 1126 351 1132 340 q 1110 360 1121 360 q 1094 353 1099 360 q 1089 328 1089 346 m 1149 329 q 1138 300 1149 311 q 1110 290 1128 290 q 1082 300 1090 290 q 1072 326 1072 310 q 1082 354 1072 344 q 1111 365 1093 365 q 1139 356 1129 365 q 1149 329 1149 346 m 1172 297 q 1174 296 1172 296 l 1179 294 l 1181 292 l 1168 292 l 1157 292 l 1157 294 l 1164 296 l 1165 297 l 1165 308 l 1165 349 l 1165 357 q 1164 358 1165 358 l 1157 361 l 1157 364 q 1163 363 1160 364 q 1168 363 1165 363 q 1173 363 1171 363 q 1178 364 1175 364 l 1211 321 q 1213 318 1213 319 q 1215 315 1214 317 l 1215 322 l 1215 349 l 1215 357 q 1214 358 1215 358 l 1207 361 l 1207 364 q 1214 363 1211 364 q 1219 363 1217 363 q 1224 363 1222 363 q 1231 364 1226 364 l 1231 361 l 1224 358 q 1222 357 1222 358 l 1222 349 l 1222 292 l 1217 292 l 1176 342 q 1172 347 1174 344 l 1172 340 l 1172 308 l 1172 297 m 1261 349 l 1261 308 l 1261 297 l 1281 297 l 1288 311 l 1292 313 l 1290 292 l 1290 292 l 1265 292 l 1253 292 l 1238 292 l 1238 294 l 1244 296 l 1246 297 l 1246 303 l 1246 308 l 1246 349 l 1246 353 l 1246 357 q 1244 358 1244 358 l 1238 361 l 1238 364 q 1244 363 1240 364 q 1253 363 1249 363 q 1262 363 1258 363 q 1268 364 1265 364 l 1269 361 l 1263 358 q 1261 357 1261 358 l 1261 353 l 1261 349 m 1324 331 l 1333 350 q 1335 352 1335 351 q 1336 354 1335 353 l 1336 357 q 1335 360 1336 360 l 1329 361 l 1329 364 q 1335 363 1332 364 q 1342 363 1339 363 q 1347 363 1344 363 q 1353 364 1350 364 l 1353 361 l 1347 360 l 1344 357 q 1343 354 1343 356 l 1326 325 l 1326 308 l 1326 303 l 1326 297 l 1328 296 l 1335 294 l 1335 292 l 1319 292 l 1304 292 l 1303 294 l 1310 296 q 1311 297 1311 297 l 1311 303 l 1311 308 l 1311 324 l 1294 353 q 1293 356 1293 356 l 1292 357 q 1289 360 1289 360 l 1283 361 l 1283 364 q 1290 363 1286 364 q 1297 363 1293 363 q 1308 363 1303 363 q 1317 364 1313 364 l 1317 361 l 1313 360 q 1310 358 1311 360 l 1310 357 l 1310 356 q 1311 353 1311 354 q 1313 351 1311 353 l 1324 331 m 1367 313 l 1361 361 l 1376 361 l 1378 361 l 1371 314 l 1367 313 m 1368 306 q 1375 304 1372 306 q 1376 299 1376 303 q 1375 293 1376 294 q 1368 290 1369 290 q 1363 293 1365 290 q 1361 299 1361 294 q 1363 304 1361 303 q 1368 306 1364 306 m 392 192 q 393 190 392 190 l 397 189 l 397 188 l 389 188 l 381 188 l 381 189 l 386 190 l 386 192 l 386 199 l 386 229 l 386 235 l 386 236 l 381 238 l 381 240 l 389 240 l 396 240 l 421 208 q 424 204 421 207 l 424 210 l 424 229 l 424 236 l 422 236 l 418 238 l 418 240 l 426 240 l 435 240 l 435 238 l 429 236 q 428 235 428 236 l 428 229 l 428 188 l 424 188 l 394 224 q 393 226 393 225 q 392 228 393 226 l 392 222 l 392 199 l 392 192 m 453 214 q 457 196 453 203 q 468 189 461 189 q 479 196 476 189 q 483 214 483 200 q 479 232 483 226 q 468 238 475 238 q 456 232 460 238 q 453 214 453 224 m 496 215 q 489 194 496 201 q 467 186 481 186 q 447 193 454 186 q 440 213 440 200 q 447 233 440 226 q 469 242 456 242 q 489 235 482 242 q 496 215 496 228 m 522 188 l 510 188 l 510 189 l 517 190 l 517 192 l 517 199 l 517 236 l 507 236 l 503 226 l 501 225 l 500 239 l 500 240 l 518 240 l 528 240 l 546 240 l 546 239 l 544 226 l 542 225 l 539 236 l 528 236 l 528 199 l 528 192 q 529 190 529 192 l 535 189 l 536 188 l 522 188 m 583 211 l 583 199 q 584 195 583 196 q 585 192 585 194 l 585 190 l 590 189 l 590 188 l 579 188 l 567 188 l 567 189 l 572 190 l 572 192 l 572 199 l 572 229 l 572 232 l 572 235 l 572 236 l 567 238 l 567 240 l 576 240 l 586 240 l 606 240 l 606 239 l 603 228 l 601 226 l 599 236 l 583 236 l 583 215 l 586 215 l 593 215 q 594 217 594 215 l 596 221 l 599 221 l 599 214 l 599 206 l 596 206 l 594 210 q 593 211 594 211 l 586 211 l 583 211 m 621 214 q 625 196 621 203 q 638 189 629 189 q 649 196 644 189 q 653 214 653 200 q 649 232 653 226 q 636 238 644 238 q 625 232 626 238 q 621 214 621 226 m 665 215 q 657 194 665 201 q 636 186 649 186 q 615 193 625 186 q 608 213 608 203 q 617 233 608 228 q 638 242 624 242 q 657 235 650 242 q 665 215 665 226 m 689 215 l 693 215 q 700 218 699 215 q 703 226 703 221 q 700 233 703 231 q 693 236 699 236 l 692 236 l 689 236 l 689 215 m 689 199 l 689 194 l 689 192 q 690 190 689 190 l 693 189 l 694 188 l 683 188 l 672 188 l 672 189 l 676 190 q 678 192 678 192 l 678 194 l 678 199 l 678 229 l 678 232 l 678 235 q 676 236 678 236 l 672 238 l 672 240 l 682 240 l 685 240 l 689 240 l 693 240 l 696 240 q 710 238 704 240 q 715 228 715 233 q 713 218 715 224 q 708 215 710 217 q 703 213 706 214 q 706 208 706 210 q 708 206 707 207 q 711 200 711 203 q 713 197 713 199 q 715 194 714 196 q 718 192 715 194 l 718 190 l 719 190 q 721 189 721 189 l 724 189 l 724 188 q 715 186 721 186 q 710 188 711 186 q 707 189 708 188 q 704 192 704 189 q 701 197 701 194 q 697 203 699 200 q 694 208 694 206 l 693 210 q 692 211 693 211 l 692 211 l 690 211 l 689 211 l 689 199 m 786 226 l 783 225 l 781 236 q 778 237 779 236 q 775 238 776 238 q 761 231 768 238 q 757 215 757 225 q 763 197 757 203 q 778 192 768 192 q 789 193 785 192 l 789 192 q 772 186 782 186 q 753 193 760 186 q 744 213 744 201 q 753 233 744 225 q 775 240 760 240 q 788 239 783 240 l 789 239 l 786 226 m 806 214 q 810 196 806 203 q 821 189 814 189 q 832 196 829 189 q 836 214 836 200 q 832 232 836 226 q 821 238 828 238 q 808 232 813 238 q 806 214 806 224 m 849 215 q 842 194 849 201 q 819 186 833 186 q 800 193 807 186 q 793 213 793 200 q 800 233 793 226 q 822 242 808 242 q 842 235 835 242 q 849 215 849 225 m 903 240 l 913 240 l 921 240 l 921 238 l 915 236 l 915 235 l 915 229 l 915 199 l 915 192 q 917 190 915 190 l 921 189 l 921 188 l 910 188 l 899 188 l 899 189 l 903 190 l 904 192 l 904 199 l 904 224 l 904 231 q 903 227 903 228 q 901 224 903 226 l 886 188 l 883 188 l 868 222 q 867 226 868 225 q 867 229 867 226 l 867 222 l 867 199 l 867 192 l 867 190 l 871 189 l 871 188 l 864 188 l 856 188 l 856 189 l 860 190 q 861 192 861 192 l 861 199 l 861 229 l 861 235 q 860 236 861 236 l 856 238 l 856 240 l 864 240 l 874 240 l 886 207 q 887 205 886 206 q 888 203 888 204 q 889 207 889 204 l 903 240 m 975 240 l 983 240 l 993 240 l 993 238 l 988 236 l 988 235 q 986 229 986 233 l 986 199 q 988 192 986 193 l 988 190 l 993 189 l 993 188 l 981 188 l 971 188 l 971 189 l 975 190 l 975 192 l 975 199 l 975 224 l 975 231 q 974 227 975 228 q 974 224 974 226 l 958 188 l 954 188 l 940 222 q 939 226 939 225 q 938 229 939 226 l 938 222 l 938 199 l 938 192 l 939 190 l 943 189 l 943 188 l 936 188 l 926 188 l 926 189 l 932 190 l 933 192 l 933 199 l 933 229 l 933 235 q 932 236 932 236 l 926 238 l 926 240 l 936 240 l 944 240 l 958 207 q 959 205 958 206 q 960 203 960 204 q 960 205 960 204 q 961 207 961 206 l 975 240 m 1019 240 l 1038 240 l 1038 239 l 1036 228 l 1033 226 l 1032 236 l 1017 236 l 1017 217 l 1019 217 l 1026 217 l 1026 217 l 1028 222 l 1031 222 l 1031 214 l 1031 206 l 1028 206 l 1026 211 l 1026 213 l 1018 213 l 1017 213 l 1017 200 l 1017 192 l 1032 192 l 1036 201 l 1039 201 l 1038 188 l 1038 188 l 1019 188 l 1010 188 l 1000 188 l 1000 189 l 1004 190 q 1006 192 1006 192 l 1006 194 l 1006 199 l 1006 229 l 1006 232 l 1006 235 q 1004 236 1006 236 l 1000 238 l 1000 240 l 1010 240 l 1019 240 m 1063 215 l 1067 215 q 1074 218 1072 215 q 1076 226 1076 219 q 1075 233 1076 232 q 1067 236 1072 236 l 1065 236 l 1063 236 l 1063 215 m 1063 199 l 1063 194 l 1063 192 l 1064 190 l 1068 189 l 1068 188 l 1057 188 l 1046 188 l 1046 189 l 1050 190 q 1051 192 1051 192 l 1051 194 l 1051 199 l 1051 229 l 1051 232 l 1051 235 l 1051 236 l 1046 238 l 1046 240 l 1057 240 l 1060 240 l 1064 240 l 1067 240 l 1069 240 q 1085 238 1076 240 q 1089 228 1089 233 q 1086 218 1089 224 q 1082 215 1083 217 q 1078 213 1081 214 q 1082 206 1081 207 q 1084 203 1083 204 q 1086 200 1085 201 q 1089 194 1086 197 l 1092 192 q 1093 190 1092 190 l 1094 190 q 1096 189 1094 189 l 1097 189 l 1097 188 q 1089 186 1094 186 q 1083 188 1085 186 q 1081 189 1082 188 q 1078 192 1081 189 q 1075 197 1078 192 q 1071 203 1072 200 q 1068 208 1071 206 q 1067 210 1067 210 l 1067 211 l 1065 211 l 1064 211 l 1063 211 l 1063 199 m 1139 226 l 1138 225 l 1135 236 q 1131 237 1132 236 q 1128 238 1131 238 q 1115 231 1119 238 q 1111 215 1111 225 q 1115 197 1111 204 q 1131 192 1121 192 q 1142 193 1138 192 l 1142 192 q 1125 186 1136 186 q 1106 193 1115 186 q 1099 213 1099 200 q 1107 233 1099 225 q 1128 240 1113 240 q 1142 239 1136 240 l 1142 239 l 1139 226 m 1165 199 l 1165 194 l 1165 192 l 1167 190 l 1171 189 l 1172 188 l 1160 188 l 1149 188 l 1149 189 l 1153 190 q 1154 192 1154 192 l 1154 194 l 1154 199 l 1154 229 l 1154 232 l 1154 235 q 1153 236 1154 236 l 1149 238 l 1149 240 l 1160 240 l 1171 240 l 1172 238 l 1167 236 l 1165 236 l 1165 232 l 1165 229 l 1165 199 m 1189 204 l 1186 197 q 1185 193 1186 194 l 1185 192 l 1185 190 l 1186 190 l 1190 189 l 1190 188 l 1181 188 l 1174 188 l 1172 189 l 1176 190 q 1178 191 1178 190 q 1179 192 1178 192 q 1181 194 1179 193 l 1199 240 l 1203 240 l 1219 194 q 1221 192 1221 192 q 1224 190 1221 190 l 1226 189 l 1226 188 l 1217 188 l 1204 188 l 1203 189 l 1207 190 l 1208 190 l 1208 192 l 1208 194 q 1207 197 1207 196 l 1204 204 l 1189 204 m 1197 225 q 1197 223 1197 224 q 1196 221 1196 222 l 1190 208 l 1203 208 l 1199 221 q 1198 223 1199 222 q 1197 225 1197 224 m 1247 229 l 1247 200 l 1247 192 l 1261 192 l 1267 201 l 1269 203 l 1268 188 l 1268 188 l 1250 188 l 1240 188 l 1231 188 l 1231 189 l 1235 190 l 1236 192 l 1236 194 l 1236 199 l 1236 229 l 1236 232 l 1236 235 q 1235 236 1235 236 l 1231 238 l 1231 240 l 1242 240 l 1253 240 l 1253 238 l 1249 236 l 1247 236 l 1247 232 l 1247 229 m 717 642 q 719 678 726 671 l 718 678 q 706 668 715 678 q 678 626 697 658 q 688 631 685 631 q 696 626 694 631 l 697 626 l 696 626 q 672 604 683 624 q 657 568 660 585 q 657 549 653 553 l 660 549 q 689 581 669 549 q 705 610 697 594 q 717 642 713 626 m 526 646 l 543 646 q 564 683 554 665 q 579 710 574 701 q 549 679 565 696 q 515 646 533 663 l 526 646 m 488 650 q 494 657 490 653 q 504 665 499 661 q 563 719 529 690 q 536 726 554 726 q 484 712 513 726 q 428 674 456 697 q 402 644 415 661 q 381 610 389 626 q 369 563 360 572 q 372 561 369 561 q 389 569 378 561 q 414 587 400 576 q 442 610 428 597 q 468 633 457 624 q 454 639 460 636 q 449 653 449 644 q 455 667 450 660 q 467 681 460 675 l 467 681 l 478 674 l 476 672 q 463 659 468 665 q 458 647 457 653 q 461 642 458 644 l 467 642 l 478 642 q 483 647 481 644 q 488 650 486 649 m 724 683 q 733 656 733 676 q 725 617 732 636 q 699 564 715 589 q 664 539 682 539 l 664 539 q 653 542 657 539 q 646 549 649 546 q 644 567 643 560 q 617 515 629 539 q 599 481 604 492 q 597 475 597 478 l 596 475 l 588 481 l 588 481 q 603 534 590 503 q 632 597 615 565 q 610 576 621 585 q 592 567 599 568 l 592 567 q 585 569 589 567 q 579 574 581 572 q 575 583 575 576 q 578 600 575 586 q 552 569 565 583 q 529 553 539 556 l 528 553 q 522 556 525 553 q 517 560 518 558 q 519 590 511 568 q 538 635 526 611 q 529 634 533 635 q 521 633 525 633 q 510 633 515 633 q 500 632 506 632 q 488 621 493 626 q 475 610 482 615 q 376 551 407 551 q 365 554 368 551 q 351 581 354 560 q 360 628 349 603 q 399 681 372 654 q 465 729 432 714 q 519 742 494 742 q 551 736 539 742 q 569 726 564 731 q 604 756 589 743 q 633 781 619 769 l 633 781 l 644 776 l 643 776 q 618 738 636 769 q 576 665 600 706 q 569 653 574 658 q 563 640 565 647 q 576 631 571 636 q 578 629 578 631 l 576 629 l 575 631 q 560 635 571 635 q 528 564 525 568 q 539 574 531 564 q 558 597 547 583 q 581 625 569 610 q 601 653 593 640 l 614 678 q 652 735 633 710 q 686 775 671 761 l 686 775 l 699 765 l 697 765 q 658 708 678 739 q 622 647 639 678 q 597 599 604 615 q 592 579 590 582 q 604 590 594 579 q 628 615 614 600 q 658 647 643 629 q 686 681 674 664 l 688 681 l 694 676 q 715 685 706 685 l 719 685 q 724 683 721 683 m 889 642 q 890 678 897 672 l 889 678 q 877 668 886 678 q 849 626 868 658 q 860 631 856 631 q 868 626 864 631 l 868 626 l 867 626 q 844 604 856 624 q 828 568 832 585 q 829 549 824 553 l 831 549 q 860 581 840 549 q 876 610 868 594 q 889 642 883 626 m 894 683 q 904 656 906 676 q 896 617 903 636 q 870 564 888 589 q 836 539 853 539 q 826 542 832 539 q 815 567 814 549 q 788 515 800 539 q 771 481 776 492 q 768 475 768 475 l 768 475 l 758 481 l 758 481 q 773 532 761 501 q 801 593 785 563 q 793 589 797 589 q 790 590 790 589 q 785 600 785 593 q 785 611 785 607 q 775 598 782 607 q 760 580 768 589 q 743 563 751 571 q 729 556 735 556 l 729 556 q 722 559 726 556 q 717 565 717 563 q 722 595 715 578 q 739 626 729 613 q 765 656 749 640 q 796 671 782 671 q 799 670 799 671 q 803 669 800 669 q 808 657 810 665 q 806 647 806 649 l 806 647 l 796 653 l 797 653 q 800 658 799 656 q 800 663 801 661 l 800 663 q 780 642 796 663 q 749 601 764 622 q 735 580 738 586 q 732 572 732 574 q 743 583 735 574 q 760 604 751 593 q 779 628 769 617 q 792 642 789 639 l 794 642 q 797 640 796 642 q 799 631 800 638 q 797 615 799 624 q 795 604 796 610 q 796 599 794 599 q 804 607 797 599 q 820 628 811 615 q 839 654 829 640 q 857 681 849 668 l 857 681 l 864 676 q 886 685 876 685 l 890 685 q 894 683 892 683 m 917 707 l 925 707 q 910 742 922 732 q 889 746 901 746 q 838 732 865 746 q 800 707 810 718 q 799 701 797 703 q 811 697 799 697 q 854 701 829 697 q 885 706 869 704 q 917 707 901 707 m 1269 744 q 1294 703 1289 731 q 1289 643 1300 676 q 1276 611 1285 626 q 1258 583 1268 596 q 1215 558 1238 558 q 1203 561 1211 558 q 1190 587 1189 568 q 1192 614 1190 606 q 1182 601 1189 610 q 1167 583 1175 592 q 1150 566 1158 574 q 1136 558 1142 558 l 1135 558 q 1122 568 1125 558 q 1125 585 1122 578 q 1117 577 1121 581 q 1111 574 1114 574 l 1111 574 q 1106 576 1108 574 q 1101 579 1103 578 q 1104 603 1099 585 q 1113 629 1110 622 l 1113 631 q 1107 624 1110 628 q 1100 615 1104 621 q 1068 576 1086 599 q 1044 550 1050 554 l 1043 550 q 1031 557 1035 550 q 1031 561 1031 561 q 1035 577 1032 568 q 1044 597 1039 586 q 1029 588 1035 588 q 1026 589 1028 588 q 1021 599 1021 592 q 1021 611 1021 606 q 1011 598 1018 607 q 996 579 1004 589 q 979 563 988 569 q 965 556 971 556 q 964 554 965 554 q 957 558 961 554 q 953 564 953 561 q 953 574 951 568 q 924 544 935 549 l 922 543 q 910 549 913 543 q 915 576 908 558 q 932 615 922 594 q 950 662 942 639 q 953 692 958 685 q 938 696 951 696 q 925 625 938 665 q 910 589 918 607 q 892 556 903 571 l 892 554 l 876 561 l 878 563 q 908 627 893 590 q 925 696 922 664 q 888 692 908 694 q 857 688 872 689 q 829 686 842 686 q 792 699 799 686 q 794 719 788 710 q 828 746 804 735 q 876 757 853 757 q 915 744 901 757 q 936 706 932 732 q 958 696 953 703 q 965 672 965 688 q 958 638 964 656 q 945 603 953 621 q 932 572 938 585 q 926 557 926 558 q 942 578 929 560 q 967 613 956 596 l 975 625 q 1001 654 985 639 q 1032 669 1018 669 q 1035 669 1033 669 q 1038 668 1036 668 q 1044 656 1046 665 q 1040 647 1042 647 l 1040 646 l 1032 651 l 1032 651 q 1035 661 1039 658 l 1035 661 q 1016 642 1032 661 q 985 600 1000 622 q 971 579 974 585 q 968 572 968 574 q 979 582 971 572 q 994 603 988 592 q 1015 626 1006 615 q 1028 640 1024 638 l 1031 640 l 1033 640 q 1035 630 1036 638 q 1032 614 1035 622 q 1031 603 1032 608 q 1032 597 1031 597 q 1038 603 1033 597 q 1050 619 1043 610 q 1065 641 1057 629 q 1078 663 1072 653 q 1081 669 1079 665 q 1085 676 1082 672 l 1085 678 l 1097 669 l 1063 592 q 1069 601 1065 596 q 1078 611 1074 606 q 1105 645 1092 629 q 1125 661 1118 661 q 1129 658 1128 661 q 1129 645 1132 656 q 1124 624 1126 635 q 1117 600 1122 617 q 1113 582 1113 583 l 1113 582 q 1123 594 1117 585 q 1136 613 1129 604 q 1146 628 1142 624 q 1149 632 1146 629 l 1149 632 l 1149 632 q 1175 659 1160 646 q 1203 672 1190 672 q 1208 671 1207 672 q 1214 659 1215 668 q 1211 650 1213 650 l 1211 649 l 1203 654 l 1203 654 q 1206 660 1204 657 q 1206 664 1208 663 l 1206 664 q 1185 644 1201 664 q 1154 603 1169 625 q 1142 582 1144 588 q 1139 575 1139 576 q 1148 583 1142 575 q 1161 601 1154 592 q 1183 629 1172 617 q 1199 643 1193 642 l 1200 643 q 1203 642 1201 643 q 1205 630 1206 639 q 1203 610 1204 621 q 1201 585 1201 597 q 1206 568 1201 572 q 1207 567 1207 567 l 1210 567 q 1246 596 1228 567 q 1275 660 1264 626 q 1280 685 1278 674 q 1281 708 1282 697 q 1265 739 1278 732 q 1232 747 1253 747 q 1188 740 1211 747 q 1142 724 1165 733 q 1100 710 1119 717 q 1065 704 1081 704 q 1031 719 1042 704 l 1032 721 q 1051 714 1039 714 l 1051 714 q 1081 719 1064 714 q 1117 733 1097 725 q 1167 751 1140 743 q 1218 760 1193 760 q 1269 744 1247 760 m 958 528 q 965 524 964 525 q 968 518 968 521 q 964 513 968 515 q 956 510 961 510 l 951 510 q 949 511 950 511 q 947 513 949 511 l 946 510 l 943 510 l 943 521 l 947 521 q 950 515 947 518 q 956 514 951 514 l 958 514 q 960 517 960 515 q 956 521 960 519 l 954 521 q 950 522 951 521 q 949 522 950 522 q 946 524 946 524 q 943 526 943 526 l 943 529 q 946 536 943 535 q 954 539 949 539 q 958 538 957 539 q 963 536 961 538 l 963 538 l 967 538 l 967 528 l 963 528 q 960 533 963 531 q 958 534 958 533 q 954 535 957 535 q 951 533 951 535 q 950 532 950 532 q 956 528 950 529 l 958 528 m 969 528 l 969 538 l 996 538 l 996 528 l 992 528 q 990 532 992 532 q 986 535 990 535 l 986 535 l 986 517 l 986 515 q 988 514 986 514 l 988 514 l 990 514 l 990 511 l 975 511 l 975 514 l 976 514 l 978 514 l 979 515 l 979 517 l 979 517 l 979 535 l 978 535 q 975 532 975 535 q 974 528 974 532 l 969 528 m 1015 535 l 1015 538 l 1028 538 l 1028 535 l 1025 535 l 1024 533 l 1024 533 l 1024 531 l 1024 518 q 1021 513 1024 515 q 1013 510 1015 510 q 1004 513 1007 510 q 1001 518 1001 515 l 1001 531 q 1000 533 1001 533 q 999 535 1000 535 l 999 535 l 997 535 l 997 538 l 1013 538 l 1013 535 l 1013 535 l 1011 535 q 1010 533 1010 535 q 1008 531 1008 533 l 1008 519 q 1010 517 1008 517 q 1010 515 1010 515 q 1014 514 1011 514 q 1018 515 1017 514 l 1019 517 l 1019 519 l 1019 531 q 1018 533 1019 533 q 1017 535 1017 535 l 1015 535 l 1015 535 m 1049 517 q 1050 524 1050 518 q 1049 532 1050 531 q 1043 535 1046 535 l 1040 535 l 1040 514 l 1043 514 q 1049 517 1046 514 m 1043 538 q 1056 535 1050 538 q 1060 524 1060 531 q 1056 514 1060 518 q 1043 511 1053 511 l 1029 511 l 1029 514 l 1031 514 l 1032 514 q 1033 515 1032 515 q 1033 517 1033 515 l 1033 532 q 1032 533 1032 533 q 1031 535 1032 535 l 1029 535 l 1029 538 l 1043 538 m 1061 535 l 1061 538 l 1078 538 l 1078 535 l 1076 535 q 1074 533 1074 535 l 1074 532 l 1074 517 l 1074 514 l 1076 514 l 1078 514 l 1078 511 l 1061 511 l 1061 514 l 1063 514 l 1065 514 l 1065 517 l 1065 532 l 1065 533 q 1063 535 1065 535 l 1061 535 m 1100 517 q 1101 524 1101 518 q 1100 532 1101 531 q 1094 535 1097 535 q 1090 532 1093 535 q 1089 524 1089 531 q 1090 517 1089 518 q 1094 514 1092 514 q 1100 517 1099 514 m 1094 539 q 1106 535 1104 539 q 1110 524 1110 531 q 1107 514 1110 519 q 1094 510 1103 510 q 1083 514 1088 510 q 1079 524 1079 518 q 1083 535 1079 531 q 1094 539 1088 539 m 1153 519 q 1153 522 1153 521 q 1154 524 1154 522 q 1153 526 1154 525 q 1153 529 1153 528 q 1150 533 1153 531 q 1148 535 1149 535 q 1146 536 1147 535 l 1142 536 l 1136 536 q 1134 535 1135 535 q 1132 533 1133 535 q 1129 529 1132 532 l 1129 524 l 1129 519 q 1131 517 1131 518 q 1132 515 1131 517 q 1136 513 1135 513 q 1142 511 1138 511 q 1146 513 1144 511 q 1150 515 1147 513 q 1153 519 1153 518 m 1151 535 q 1156 529 1154 532 l 1156 524 l 1156 518 l 1151 514 l 1147 510 l 1142 510 l 1136 510 q 1131 514 1133 511 q 1128 518 1128 517 q 1126 524 1126 519 q 1128 529 1126 528 q 1131 535 1128 532 q 1136 538 1133 538 q 1142 539 1138 539 q 1147 538 1144 539 q 1151 535 1149 538 m 1144 518 q 1147 521 1147 518 l 1149 519 l 1146 517 q 1142 515 1144 515 q 1135 518 1138 515 q 1132 524 1132 521 q 1135 531 1132 525 q 1142 532 1136 532 l 1144 532 q 1146 531 1146 531 q 1147 532 1146 532 l 1147 532 l 1149 532 l 1149 526 l 1147 526 q 1146 528 1146 528 q 1144 531 1146 529 q 1142 532 1143 532 q 1139 529 1139 532 q 1138 524 1138 528 q 1139 518 1138 519 q 1142 517 1139 517 q 1144 518 1144 517 m 1194 519 l 1194 518 l 1194 518 q 1193 511 1194 513 q 1191 510 1192 511 q 1188 510 1190 510 q 1183 511 1185 510 l 1182 511 q 1181 513 1181 511 l 1178 513 l 1176 511 l 1176 511 l 1172 511 l 1172 511 l 1172 513 q 1174 517 1172 515 l 1176 519 q 1178 521 1178 521 q 1181 522 1179 521 q 1183 524 1182 524 q 1185 526 1185 525 q 1186 528 1186 528 q 1185 531 1186 531 q 1182 532 1183 532 l 1178 532 q 1177 531 1178 531 q 1176 529 1176 531 l 1178 529 l 1178 529 l 1179 529 q 1181 526 1181 528 q 1179 525 1181 525 q 1176 524 1179 524 q 1174 525 1175 524 q 1172 528 1172 526 q 1175 533 1172 531 q 1183 536 1181 536 q 1192 533 1186 536 q 1194 528 1194 531 q 1192 524 1194 524 q 1186 519 1189 521 l 1185 519 q 1178 515 1178 517 l 1179 517 l 1182 517 l 1186 517 q 1189 515 1189 515 l 1190 517 l 1190 519 l 1194 519 m 1210 536 q 1218 532 1214 536 q 1221 522 1221 531 q 1218 514 1221 515 q 1210 510 1214 510 q 1201 514 1204 510 q 1197 522 1197 517 q 1201 532 1197 531 q 1210 536 1204 536 m 1213 515 q 1210 514 1213 514 q 1207 515 1207 514 q 1206 522 1206 517 q 1207 531 1206 529 q 1210 532 1207 532 q 1213 531 1213 532 q 1214 522 1214 529 q 1213 515 1214 517 m 1246 519 l 1246 518 l 1246 518 q 1244 511 1246 513 q 1242 510 1243 511 q 1239 510 1242 510 q 1235 511 1236 510 l 1233 511 q 1232 513 1232 511 l 1231 513 q 1229 511 1229 513 l 1228 511 l 1224 511 l 1224 511 l 1224 513 q 1224 515 1224 514 q 1225 517 1225 515 q 1228 519 1225 517 q 1230 521 1229 521 q 1232 522 1231 521 q 1235 524 1233 524 l 1238 526 l 1238 528 q 1236 531 1238 531 q 1233 532 1236 532 l 1229 532 q 1228 529 1229 531 l 1229 529 l 1229 529 l 1232 529 l 1232 526 q 1231 525 1232 525 q 1228 524 1231 524 q 1225 525 1226 524 q 1224 528 1224 526 q 1228 533 1224 532 q 1235 536 1231 536 q 1243 533 1238 536 q 1246 528 1246 531 q 1243 524 1246 524 q 1238 519 1243 522 l 1236 519 q 1229 515 1232 518 q 1232 517 1231 517 l 1235 517 l 1238 517 q 1240 515 1240 515 q 1242 517 1242 517 q 1243 519 1243 518 l 1246 519 m 1265 514 l 1268 514 l 1269 514 l 1269 511 l 1253 511 l 1253 514 l 1254 514 l 1257 514 q 1258 517 1258 515 l 1258 517 l 1258 529 l 1253 529 l 1253 532 q 1257 533 1256 532 q 1260 535 1260 535 l 1265 535 l 1265 517 l 1265 514 z "},"1":{"ha":1575,"x_min":110,"x_max":1460,"o":"m 110 949 l 1460 949 l 1460 0 l 110 0 l 110 949 m 129 19 l 1440 19 l 1440 929 l 129 929 l 129 19 m 254 326 l 260 326 q 271 331 267 326 q 274 343 274 336 q 271 354 274 351 q 260 358 267 358 l 254 358 l 254 326 m 254 308 l 254 303 l 254 299 q 255 297 254 297 q 256 296 256 297 l 264 294 l 264 292 l 247 292 l 231 292 l 231 294 l 238 296 q 239 297 239 297 l 239 303 l 239 308 l 239 349 l 239 353 l 239 357 q 238 358 239 358 l 231 361 l 231 364 q 238 363 235 364 q 244 363 242 363 q 249 363 247 363 q 254 364 251 364 l 263 364 q 283 358 278 364 q 290 344 290 356 q 283 328 290 333 q 263 321 274 321 q 254 322 257 321 l 254 308 m 322 363 q 335 363 329 363 q 349 364 342 364 l 349 363 l 346 346 l 343 346 l 339 358 l 319 358 l 319 331 l 322 331 l 332 331 q 333 332 333 332 l 336 339 l 339 339 l 339 328 l 339 318 l 336 317 l 333 325 q 332 326 333 326 l 322 326 l 319 326 l 319 308 l 319 297 l 340 297 l 347 311 l 350 311 l 349 292 l 349 292 l 324 292 l 310 292 l 296 292 l 296 294 l 303 296 q 304 297 304 297 l 304 303 l 304 308 l 304 349 l 304 353 l 304 357 q 303 358 304 358 l 296 361 l 296 364 q 303 363 300 364 q 310 363 307 363 l 322 363 m 383 329 l 388 329 q 399 333 394 329 q 401 344 401 336 q 399 356 401 350 q 389 358 393 358 l 386 358 l 383 358 l 383 329 m 383 308 l 383 303 l 383 297 l 383 296 l 389 294 l 389 292 l 375 292 l 360 292 l 360 294 l 367 296 q 368 297 367 297 l 368 303 l 368 308 l 368 349 l 368 353 l 368 357 l 367 358 l 360 361 l 360 364 q 367 363 363 364 q 374 363 371 363 q 376 363 375 363 q 378 364 376 364 l 383 364 l 389 364 l 392 364 q 411 360 406 364 q 418 346 418 357 q 414 335 418 339 q 408 331 411 332 q 403 326 406 329 q 408 317 406 322 q 414 308 411 314 q 416 306 415 307 q 418 303 417 304 q 422 297 419 300 l 424 296 l 425 296 l 426 294 l 429 294 l 429 292 q 418 290 426 290 q 411 292 413 290 q 409 292 410 292 q 407 293 408 293 q 403 299 404 296 q 401 301 401 300 q 399 304 400 303 l 394 313 q 389 321 392 318 q 388 322 389 322 l 388 324 q 386 325 386 325 l 385 325 l 383 325 l 383 308 m 468 358 q 461 360 465 360 q 451 357 457 360 q 449 349 449 354 l 449 343 l 453 339 q 457 336 454 339 q 463 333 460 336 q 469 331 464 333 q 472 328 471 329 q 475 326 474 328 q 477 324 476 325 q 479 321 478 322 q 480 317 479 318 q 481 313 481 315 q 472 296 481 303 q 451 290 465 290 q 433 293 444 290 l 433 293 l 436 313 l 439 313 l 443 297 q 451 294 449 294 q 461 299 457 294 q 465 307 465 301 q 464 313 465 311 q 461 317 464 314 q 456 319 461 317 q 453 321 454 321 q 451 322 453 321 q 448 324 449 324 q 444 325 447 324 q 442 327 443 326 q 439 329 440 328 q 437 332 438 331 q 435 335 436 333 q 433 343 433 338 q 440 358 433 354 q 460 364 447 364 q 478 363 471 364 l 478 361 l 475 346 l 472 344 l 468 358 m 506 328 q 511 303 506 317 q 528 294 518 294 q 543 303 539 294 q 549 328 549 310 q 543 351 549 344 q 526 360 539 360 q 511 353 515 360 q 506 328 506 342 m 565 329 q 556 300 565 311 q 526 290 546 290 q 499 300 508 290 q 489 326 489 310 q 500 354 489 343 q 528 365 511 365 q 556 356 547 365 q 565 329 565 346 m 589 297 q 590 296 589 296 l 597 294 l 597 292 l 586 292 l 574 292 l 574 294 l 581 296 q 582 297 582 297 l 582 308 l 582 349 l 582 357 q 581 358 582 358 l 574 361 l 574 364 q 580 363 578 364 q 585 363 582 363 q 590 363 588 363 q 594 364 592 364 l 628 321 q 630 318 629 319 q 633 315 631 317 q 632 322 632 318 l 632 349 l 632 357 q 631 358 632 358 l 625 361 l 625 364 q 631 363 628 364 q 636 363 633 363 q 642 363 639 363 q 647 364 644 364 l 647 361 l 640 358 q 639 357 639 358 l 639 349 l 639 292 l 633 292 l 593 342 q 589 347 590 344 l 589 340 l 589 308 l 589 297 m 681 344 q 678 339 678 339 l 671 319 l 689 319 l 682 339 q 681 341 682 340 q 681 344 681 342 m 669 314 l 665 306 q 665 302 665 303 q 664 300 664 301 l 664 297 l 664 296 l 665 296 l 671 294 l 671 292 l 658 292 l 647 292 l 647 294 l 653 296 q 654 297 654 296 q 656 297 654 297 q 656 299 656 299 q 657 301 657 300 l 683 364 l 689 364 l 711 303 q 712 299 711 300 q 713 297 713 299 q 714 297 714 297 q 715 296 714 296 l 721 294 l 721 292 l 707 292 l 689 292 l 689 294 l 694 296 l 696 296 l 696 297 l 696 300 q 694 304 694 301 l 690 314 l 669 314 m 749 349 l 749 308 l 749 297 l 768 297 l 775 311 l 779 313 l 778 292 l 776 292 l 753 292 l 739 292 l 725 292 l 725 294 l 732 296 l 733 297 l 733 303 l 733 308 l 733 349 l 733 353 l 733 357 q 732 358 732 358 l 725 361 l 725 364 q 732 363 728 364 q 740 363 736 363 q 749 363 744 363 q 756 364 753 364 l 756 361 l 750 358 q 749 357 749 358 l 749 353 l 749 349 m 807 364 q 814 363 810 364 q 822 363 818 363 q 831 363 826 363 q 838 364 835 364 l 839 361 l 832 358 q 831 357 831 358 l 831 353 l 831 349 l 831 321 q 835 301 831 306 q 849 296 839 296 q 863 301 857 296 q 867 319 867 308 l 867 349 l 867 353 l 867 357 q 865 358 867 358 l 858 361 l 858 364 q 865 363 863 364 q 871 363 868 363 q 876 363 874 363 q 882 364 879 364 l 882 361 l 875 358 q 874 357 874 358 l 874 353 l 874 349 l 874 322 q 867 297 874 307 q 846 290 861 290 q 822 297 829 290 q 815 321 815 304 l 815 349 l 815 353 l 815 357 q 814 358 814 358 l 807 361 l 807 364 m 924 358 q 917 360 922 360 q 908 357 911 360 q 904 349 904 353 q 906 343 904 344 q 908 339 906 342 q 913 336 910 339 q 918 333 915 336 q 925 331 919 333 q 928 328 926 329 q 931 326 929 328 q 933 324 932 325 q 935 321 933 322 q 936 313 936 318 q 928 296 936 303 q 907 290 922 290 q 899 291 903 290 q 889 293 894 292 l 889 293 l 892 313 l 894 313 l 899 297 q 907 294 904 294 q 918 299 914 294 q 921 307 921 301 l 921 313 l 917 317 q 915 318 915 318 q 913 319 914 318 q 907 322 907 322 q 903 324 904 324 q 900 325 903 324 q 897 327 899 326 q 894 329 896 328 q 892 332 893 331 q 890 335 892 333 q 890 339 890 338 q 889 343 889 340 q 897 358 889 354 q 917 364 903 364 q 933 363 926 364 l 933 361 l 931 346 l 928 344 l 924 358 m 971 363 q 983 363 978 363 q 996 364 989 364 l 997 363 l 993 346 l 990 346 l 988 358 l 968 358 l 968 331 l 971 331 l 981 331 l 982 332 l 983 339 l 988 339 l 988 328 l 988 318 l 983 317 l 982 325 l 981 326 l 971 326 l 968 326 l 968 308 l 968 297 l 989 297 l 994 311 l 999 311 l 997 292 l 996 292 l 972 292 l 958 292 l 944 292 l 944 294 l 951 296 l 953 297 l 953 303 l 953 308 l 953 349 l 953 353 l 953 357 q 951 358 951 358 l 944 361 l 944 364 q 951 363 947 364 q 958 363 956 363 l 971 363 m 1050 328 q 1056 303 1050 313 q 1072 294 1063 294 q 1088 303 1083 294 q 1093 328 1093 314 q 1088 351 1093 340 q 1071 360 1082 360 q 1056 353 1060 360 q 1050 328 1050 346 m 1110 329 q 1099 300 1110 311 q 1071 290 1089 290 q 1043 300 1051 290 q 1033 326 1033 310 q 1043 354 1033 344 q 1072 365 1054 365 q 1100 356 1090 365 q 1110 329 1110 346 m 1133 297 q 1135 296 1133 296 l 1140 294 l 1142 292 l 1129 292 l 1118 292 l 1118 294 l 1125 296 l 1126 297 l 1126 308 l 1126 349 l 1126 357 q 1125 358 1126 358 l 1118 361 l 1118 364 q 1124 363 1121 364 q 1129 363 1126 363 q 1134 363 1132 363 q 1139 364 1136 364 l 1172 321 q 1174 318 1174 319 q 1176 315 1175 317 l 1176 322 l 1176 349 l 1176 357 q 1175 358 1176 358 l 1168 361 l 1168 364 q 1175 363 1172 364 q 1181 363 1178 363 q 1185 363 1183 363 q 1192 364 1188 364 l 1192 361 l 1185 358 q 1183 357 1183 358 l 1183 349 l 1183 292 l 1178 292 l 1138 342 q 1133 347 1135 344 l 1133 340 l 1133 308 l 1133 297 m 1222 349 l 1222 308 l 1222 297 l 1242 297 l 1249 311 l 1253 313 l 1251 292 l 1251 292 l 1226 292 l 1214 292 l 1199 292 l 1199 294 l 1206 296 l 1207 297 l 1207 303 l 1207 308 l 1207 349 l 1207 353 l 1207 357 q 1206 358 1206 358 l 1199 361 l 1199 364 q 1206 363 1201 364 q 1214 363 1210 363 q 1223 363 1219 363 q 1229 364 1226 364 l 1231 361 l 1224 358 q 1222 357 1222 358 l 1222 353 l 1222 349 m 1285 331 l 1294 350 q 1296 352 1296 351 q 1297 354 1296 353 l 1297 357 q 1296 360 1297 360 l 1290 361 l 1290 364 q 1297 363 1293 364 q 1303 363 1300 363 q 1308 363 1306 363 q 1314 364 1311 364 l 1314 361 l 1308 360 l 1306 357 q 1304 354 1304 356 l 1288 325 l 1288 308 l 1288 303 l 1288 297 l 1289 296 l 1296 294 l 1296 292 l 1281 292 l 1265 292 l 1264 294 l 1271 296 q 1272 297 1272 297 l 1272 303 l 1272 308 l 1272 324 l 1256 353 q 1254 356 1254 356 l 1253 357 q 1250 360 1250 360 l 1244 361 l 1244 364 q 1251 363 1247 364 q 1258 363 1254 363 q 1269 363 1264 363 q 1278 364 1274 364 l 1278 361 l 1274 360 q 1271 358 1272 360 l 1271 357 l 1271 356 q 1272 353 1272 354 q 1274 351 1272 353 l 1285 331 m 1328 313 l 1322 361 l 1338 361 l 1339 361 l 1332 314 l 1328 313 m 1329 306 q 1336 304 1333 306 q 1338 299 1338 303 q 1336 293 1338 294 q 1329 290 1331 290 q 1324 293 1326 290 q 1322 299 1322 294 q 1324 304 1322 303 q 1329 306 1325 306 m 353 192 q 354 190 353 190 l 358 189 l 358 188 l 350 188 l 342 188 l 342 189 l 347 190 l 347 192 l 347 199 l 347 229 l 347 235 l 347 236 l 342 238 l 342 240 l 350 240 l 357 240 l 382 208 q 385 204 382 207 l 385 210 l 385 229 l 385 236 l 383 236 l 379 238 l 379 240 l 388 240 l 396 240 l 396 238 l 390 236 q 389 235 389 236 l 389 229 l 389 188 l 385 188 l 356 224 q 354 226 354 225 q 353 228 354 226 l 353 222 l 353 199 l 353 192 m 414 214 q 418 196 414 203 q 429 189 422 189 q 440 196 438 189 q 444 214 444 200 q 440 232 444 226 q 429 238 436 238 q 417 232 421 238 q 414 214 414 224 m 457 215 q 450 194 457 201 q 428 186 442 186 q 408 193 415 186 q 401 213 401 200 q 408 233 401 226 q 431 242 417 242 q 450 235 443 242 q 457 215 457 228 m 483 188 l 471 188 l 471 189 l 478 190 l 478 192 l 478 199 l 478 236 l 468 236 l 464 226 l 463 225 l 461 239 l 461 240 l 479 240 l 489 240 l 507 240 l 507 239 l 506 226 l 503 225 l 500 236 l 489 236 l 489 199 l 489 192 q 490 190 490 192 l 496 189 l 497 188 l 483 188 m 544 211 l 544 199 q 545 195 544 196 q 546 192 546 194 l 546 190 l 551 189 l 551 188 l 540 188 l 528 188 l 528 189 l 533 190 l 533 192 l 533 199 l 533 229 l 533 232 l 533 235 l 533 236 l 528 238 l 528 240 l 538 240 l 547 240 l 567 240 l 567 239 l 564 228 l 563 226 l 560 236 l 544 236 l 544 215 l 547 215 l 554 215 q 556 217 556 215 l 557 221 l 560 221 l 560 214 l 560 206 l 557 206 l 556 210 q 554 211 556 211 l 547 211 l 544 211 m 582 214 q 586 196 582 203 q 599 189 590 189 q 610 196 606 189 q 614 214 614 200 q 610 232 614 226 q 597 238 606 238 q 586 232 588 238 q 582 214 582 226 m 626 215 q 618 194 626 201 q 597 186 610 186 q 576 193 586 186 q 569 213 569 203 q 578 233 569 228 q 599 242 585 242 q 618 235 611 242 q 626 215 626 226 m 650 215 l 654 215 q 661 218 660 215 q 664 226 664 221 q 661 233 664 231 q 654 236 660 236 l 653 236 l 650 236 l 650 215 m 650 199 l 650 194 l 650 192 q 651 190 650 190 l 654 189 l 656 188 l 644 188 l 633 188 l 633 189 l 638 190 q 639 192 639 192 l 639 194 l 639 199 l 639 229 l 639 232 l 639 235 q 638 236 639 236 l 633 238 l 633 240 l 643 240 l 646 240 l 650 240 l 654 240 l 657 240 q 671 238 665 240 q 676 228 676 233 q 674 218 676 224 q 669 215 671 217 q 664 213 667 214 q 667 208 667 210 q 669 206 668 207 q 672 200 672 203 q 674 197 674 199 q 676 194 675 196 q 679 192 676 194 l 679 190 l 681 190 q 682 189 682 189 l 685 189 l 685 188 q 676 186 682 186 q 671 188 672 186 q 668 189 669 188 q 665 192 665 189 q 663 197 663 194 q 658 203 660 200 q 656 208 656 206 l 654 210 q 653 211 654 211 l 653 211 l 651 211 l 650 211 l 650 199 m 747 226 l 744 225 l 742 236 q 739 237 740 236 q 736 238 738 238 q 722 231 729 238 q 718 215 718 225 q 724 197 718 203 q 739 192 729 192 q 750 193 746 192 l 750 192 q 733 186 743 186 q 714 193 721 186 q 706 213 706 201 q 714 233 706 225 q 736 240 721 240 q 749 239 744 240 l 750 239 l 747 226 m 767 214 q 771 196 767 203 q 782 189 775 189 q 793 196 790 189 q 797 214 797 200 q 793 232 797 226 q 782 238 789 238 q 769 232 774 238 q 767 214 767 224 m 810 215 q 803 194 810 201 q 781 186 794 186 q 761 193 768 186 q 754 213 754 200 q 761 233 754 226 q 783 242 769 242 q 803 235 796 242 q 810 215 810 225 m 864 240 l 874 240 l 882 240 l 882 238 l 876 236 l 876 235 l 876 229 l 876 199 l 876 192 q 878 190 876 190 l 882 189 l 882 188 l 871 188 l 860 188 l 860 189 l 864 190 l 865 192 l 865 199 l 865 224 l 865 231 q 864 227 864 228 q 863 224 864 226 l 847 188 l 844 188 l 829 222 q 828 226 829 225 q 828 229 828 226 l 828 222 l 828 199 l 828 192 l 828 190 l 832 189 l 832 188 l 825 188 l 817 188 l 817 189 l 821 190 q 822 192 822 192 l 822 199 l 822 229 l 822 235 q 821 236 822 236 l 817 238 l 817 240 l 825 240 l 835 240 l 847 207 q 848 205 847 206 q 849 203 849 204 q 850 207 850 204 l 864 240 m 936 240 l 944 240 l 954 240 l 954 238 l 949 236 l 949 235 q 947 229 947 233 l 947 199 q 949 192 947 193 l 949 190 l 954 189 l 954 188 l 942 188 l 932 188 l 932 189 l 936 190 l 936 192 l 936 199 l 936 224 l 936 231 q 935 227 936 228 q 935 224 935 226 l 919 188 l 915 188 l 901 222 q 900 226 900 225 q 899 229 900 226 l 899 222 l 899 199 l 899 192 l 900 190 l 904 189 l 904 188 l 897 188 l 888 188 l 888 189 l 893 190 l 894 192 l 894 199 l 894 229 l 894 235 q 893 236 893 236 l 888 238 l 888 240 l 897 240 l 906 240 l 919 207 q 920 205 919 206 q 921 203 921 204 q 922 205 921 204 q 922 207 922 206 l 936 240 m 981 240 l 999 240 l 999 239 l 997 228 l 994 226 l 993 236 l 978 236 l 978 217 l 981 217 l 988 217 l 988 217 l 989 222 l 992 222 l 992 214 l 992 206 l 989 206 l 988 211 l 988 213 l 979 213 l 978 213 l 978 200 l 978 192 l 993 192 l 997 201 l 1000 201 l 999 188 l 999 188 l 981 188 l 971 188 l 961 188 l 961 189 l 965 190 q 967 192 967 192 l 967 194 l 967 199 l 967 229 l 967 232 l 967 235 q 965 236 967 236 l 961 238 l 961 240 l 971 240 l 981 240 m 1024 215 l 1028 215 q 1035 218 1033 215 q 1038 226 1038 219 q 1036 233 1038 232 q 1028 236 1033 236 l 1026 236 l 1024 236 l 1024 215 m 1024 199 l 1024 194 l 1024 192 l 1025 190 l 1029 189 l 1029 188 l 1018 188 l 1007 188 l 1007 189 l 1011 190 q 1013 192 1013 192 l 1013 194 l 1013 199 l 1013 229 l 1013 232 l 1013 235 l 1013 236 l 1007 238 l 1007 240 l 1018 240 l 1021 240 l 1025 240 l 1028 240 l 1031 240 q 1046 238 1038 240 q 1050 228 1050 233 q 1047 218 1050 224 q 1043 215 1044 217 q 1039 213 1042 214 q 1043 206 1042 207 q 1045 203 1044 204 q 1047 200 1046 201 q 1050 194 1047 197 l 1053 192 q 1054 190 1053 190 l 1056 190 q 1057 189 1056 189 l 1058 189 l 1058 188 q 1050 186 1056 186 q 1044 188 1046 186 q 1042 189 1043 188 q 1039 192 1042 189 q 1036 197 1039 192 q 1032 203 1033 200 q 1029 208 1032 206 q 1028 210 1028 210 l 1028 211 l 1026 211 l 1025 211 l 1024 211 l 1024 199 m 1100 226 l 1099 225 l 1096 236 q 1092 237 1093 236 q 1089 238 1092 238 q 1076 231 1081 238 q 1072 215 1072 225 q 1076 197 1072 204 q 1092 192 1082 192 q 1103 193 1099 192 l 1103 192 q 1086 186 1097 186 q 1067 193 1076 186 q 1060 213 1060 200 q 1068 233 1060 225 q 1089 240 1074 240 q 1103 239 1097 240 l 1103 239 l 1100 226 m 1126 199 l 1126 194 l 1126 192 l 1128 190 l 1132 189 l 1133 188 l 1121 188 l 1110 188 l 1110 189 l 1114 190 q 1115 192 1115 192 l 1115 194 l 1115 199 l 1115 229 l 1115 232 l 1115 235 q 1114 236 1115 236 l 1110 238 l 1110 240 l 1121 240 l 1132 240 l 1133 238 l 1128 236 l 1126 236 l 1126 232 l 1126 229 l 1126 199 m 1150 204 l 1147 197 q 1146 193 1147 194 l 1146 192 l 1146 190 l 1147 190 l 1151 189 l 1151 188 l 1142 188 l 1135 188 l 1133 189 l 1138 190 q 1139 191 1139 190 q 1140 192 1139 192 q 1142 194 1140 193 l 1160 240 l 1164 240 l 1181 194 q 1182 192 1182 192 q 1185 190 1182 190 l 1188 189 l 1188 188 l 1178 188 l 1165 188 l 1164 189 l 1168 190 l 1169 190 l 1169 192 l 1169 194 q 1168 197 1168 196 l 1165 204 l 1150 204 m 1158 225 q 1158 223 1158 224 q 1157 221 1157 222 l 1151 208 l 1164 208 l 1160 221 q 1159 223 1160 222 q 1158 225 1158 224 m 1208 229 l 1208 200 l 1208 192 l 1222 192 l 1228 201 l 1231 203 l 1229 188 l 1229 188 l 1211 188 l 1201 188 l 1192 188 l 1192 189 l 1196 190 l 1197 192 l 1197 194 l 1197 199 l 1197 229 l 1197 232 l 1197 235 q 1196 236 1196 236 l 1192 238 l 1192 240 l 1203 240 l 1214 240 l 1214 238 l 1210 236 l 1208 236 l 1208 232 l 1208 229 m 678 642 q 681 678 688 671 l 679 678 q 667 668 676 678 q 639 626 658 658 q 649 631 646 631 q 657 626 656 631 l 658 626 l 657 626 q 633 604 644 624 q 618 568 621 585 q 618 549 614 553 l 621 549 q 650 581 631 549 q 666 610 658 594 q 678 642 674 626 m 488 646 l 504 646 q 525 683 515 665 q 540 710 535 701 q 510 679 526 696 q 476 646 494 663 l 488 646 m 449 650 q 456 657 451 653 q 465 665 460 661 q 524 719 490 690 q 497 726 515 726 q 445 712 474 726 q 389 674 417 697 q 363 644 376 661 q 342 610 350 626 q 331 563 321 572 q 333 561 331 561 q 350 569 339 561 q 375 587 361 576 q 403 610 389 597 q 429 633 418 624 q 415 639 421 636 q 410 653 410 644 q 416 667 411 660 q 428 681 421 675 l 428 681 l 439 674 l 438 672 q 424 659 429 665 q 419 647 418 653 q 422 642 419 644 l 428 642 l 439 642 q 444 647 442 644 q 449 650 447 649 m 685 683 q 694 656 694 676 q 686 617 693 636 q 660 564 676 589 q 625 539 643 539 l 625 539 q 614 542 618 539 q 607 549 610 546 q 606 567 604 560 q 578 515 590 539 q 560 481 565 492 q 558 475 558 478 l 557 475 l 549 481 l 549 481 q 564 534 551 503 q 593 597 576 565 q 571 576 582 585 q 553 567 560 568 l 553 567 q 546 569 550 567 q 540 574 542 572 q 536 583 536 576 q 539 600 536 586 q 513 569 526 583 q 490 553 500 556 l 489 553 q 483 556 486 553 q 478 560 479 558 q 480 590 472 568 q 499 635 488 611 q 490 634 494 635 q 482 633 486 633 q 472 633 476 633 q 461 632 467 632 q 449 621 454 626 q 436 610 443 615 q 338 551 368 551 q 326 554 329 551 q 313 581 315 560 q 321 628 310 603 q 360 681 333 654 q 426 729 393 714 q 481 742 456 742 q 513 736 500 742 q 531 726 525 731 q 565 756 550 743 q 594 781 581 769 l 594 781 l 606 776 l 604 776 q 579 738 597 769 q 538 665 561 706 q 531 653 535 658 q 524 640 526 647 q 538 631 532 636 q 539 629 539 631 l 538 629 l 536 631 q 521 635 532 635 q 489 564 486 568 q 500 574 492 564 q 519 597 508 583 q 542 625 531 610 q 563 653 554 640 l 575 678 q 613 735 594 710 q 647 775 632 761 l 647 775 l 660 765 l 658 765 q 619 708 639 739 q 583 647 600 678 q 558 599 565 615 q 553 579 551 582 q 565 590 556 579 q 590 615 575 600 q 619 647 604 629 q 647 681 635 664 l 649 681 l 656 676 q 676 685 667 685 l 681 685 q 685 683 682 683 m 850 642 q 851 678 858 672 l 850 678 q 838 668 847 678 q 810 626 829 658 q 821 631 817 631 q 829 626 825 631 l 829 626 l 828 626 q 805 604 817 624 q 789 568 793 585 q 790 549 785 553 l 792 549 q 821 581 801 549 q 837 610 829 594 q 850 642 844 626 m 856 683 q 865 656 867 676 q 857 617 864 636 q 831 564 849 589 q 797 539 814 539 q 788 542 793 539 q 776 567 775 549 q 749 515 761 539 q 732 481 738 492 q 729 475 729 475 l 729 475 l 719 481 l 719 481 q 734 532 722 501 q 763 593 746 563 q 754 589 758 589 q 751 590 751 589 q 746 600 746 593 q 746 611 746 607 q 736 598 743 607 q 721 580 729 589 q 704 563 713 571 q 690 556 696 556 l 690 556 q 683 559 688 556 q 678 565 678 563 q 683 595 676 578 q 700 626 690 613 q 726 656 710 640 q 757 671 743 671 q 760 670 760 671 q 764 669 761 669 q 769 657 771 665 q 767 647 767 649 l 767 647 l 757 653 l 758 653 q 761 658 760 656 q 761 663 763 661 l 761 663 q 741 642 757 663 q 710 601 725 622 q 696 580 699 586 q 693 572 693 574 q 704 583 696 574 q 721 604 713 593 q 740 628 731 617 q 753 642 750 639 l 756 642 q 758 640 757 642 q 760 631 761 638 q 758 615 760 624 q 756 604 757 610 q 757 599 756 599 q 765 607 758 599 q 781 628 772 615 q 800 654 790 640 q 818 681 810 668 l 818 681 l 825 676 q 847 685 838 685 l 851 685 q 856 683 853 683 m 878 707 l 886 707 q 871 742 883 732 q 850 746 863 746 q 799 732 826 746 q 761 707 771 718 q 760 701 758 703 q 772 697 760 697 q 815 701 790 697 q 847 706 831 704 q 878 707 863 707 m 1231 744 q 1256 703 1250 731 q 1250 643 1261 676 q 1238 611 1246 626 q 1219 583 1229 596 q 1176 558 1199 558 q 1164 561 1172 558 q 1151 587 1150 568 q 1153 614 1151 606 q 1143 601 1150 610 q 1128 583 1136 592 q 1111 566 1119 574 q 1097 558 1103 558 l 1096 558 q 1083 568 1086 558 q 1086 585 1083 578 q 1078 577 1082 581 q 1072 574 1075 574 l 1072 574 q 1067 576 1069 574 q 1063 579 1064 578 q 1065 603 1060 585 q 1074 629 1071 622 l 1074 631 q 1068 624 1071 628 q 1061 615 1065 621 q 1029 576 1047 599 q 1006 550 1011 554 l 1004 550 q 992 557 996 550 q 992 561 992 561 q 997 577 993 568 q 1006 597 1000 586 q 990 588 996 588 q 988 589 989 588 q 982 599 982 592 q 982 611 982 606 q 972 598 979 607 q 957 579 965 589 q 940 563 949 569 q 926 556 932 556 q 925 554 926 554 q 918 558 922 554 q 914 564 914 561 q 914 574 913 568 q 885 544 896 549 l 883 543 q 871 549 874 543 q 876 576 869 558 q 893 615 883 594 q 911 662 903 639 q 914 692 919 685 q 899 696 913 696 q 886 625 899 665 q 872 589 879 607 q 853 556 864 571 l 853 554 l 838 561 l 839 563 q 869 627 854 590 q 886 696 883 664 q 849 692 869 694 q 818 688 833 689 q 790 686 803 686 q 753 699 760 686 q 756 719 749 710 q 790 746 765 735 q 838 757 814 757 q 876 744 863 757 q 897 706 893 732 q 919 696 914 703 q 926 672 926 688 q 919 638 925 656 q 906 603 914 621 q 893 572 899 585 q 888 557 888 558 q 903 578 890 560 q 928 613 917 596 l 936 625 q 963 654 946 639 q 993 669 979 669 q 996 669 994 669 q 999 668 997 668 q 1005 656 1007 665 q 1001 647 1003 647 l 1001 646 l 993 651 l 993 651 q 996 661 1000 658 l 996 661 q 977 642 993 661 q 946 600 961 622 q 932 579 935 585 q 929 572 929 574 q 940 582 932 572 q 956 603 949 592 q 976 626 967 615 q 989 640 985 638 l 992 640 l 994 640 q 997 630 997 638 q 993 614 996 622 q 992 603 993 608 q 993 597 992 597 q 999 603 994 597 q 1011 619 1004 610 q 1026 641 1018 629 q 1039 663 1033 653 q 1042 669 1040 665 q 1046 676 1043 672 l 1046 678 l 1058 669 l 1024 592 q 1031 601 1026 596 q 1039 611 1035 606 q 1066 645 1053 629 q 1086 661 1079 661 q 1090 658 1089 661 q 1090 645 1093 656 q 1085 624 1088 635 q 1078 600 1083 617 q 1074 582 1074 583 l 1074 582 q 1084 594 1078 585 q 1097 613 1090 604 q 1107 628 1103 624 q 1110 632 1107 629 l 1110 632 l 1110 632 q 1136 659 1121 646 q 1164 672 1151 672 q 1169 671 1168 672 q 1175 659 1176 668 q 1172 650 1174 650 l 1172 649 l 1164 654 l 1164 654 q 1167 660 1165 657 q 1167 664 1169 663 l 1167 664 q 1147 644 1163 664 q 1115 603 1131 625 q 1103 582 1106 588 q 1100 575 1100 576 q 1109 583 1103 575 q 1122 601 1115 592 q 1144 629 1133 617 q 1160 643 1154 642 l 1161 643 q 1164 642 1163 643 q 1166 630 1167 639 q 1164 610 1165 621 q 1163 585 1163 597 q 1167 568 1163 572 q 1168 567 1168 567 l 1171 567 q 1207 596 1189 567 q 1236 660 1225 626 q 1241 685 1239 674 q 1242 708 1243 697 q 1226 739 1239 732 q 1193 747 1214 747 q 1149 740 1172 747 q 1103 724 1126 733 q 1061 710 1081 717 q 1026 704 1042 704 q 992 719 1003 704 l 993 721 q 1013 714 1000 714 l 1013 714 q 1042 719 1025 714 q 1078 733 1058 725 q 1128 751 1101 743 q 1179 760 1154 760 q 1231 744 1208 760 m 919 528 q 926 524 925 525 q 929 518 929 521 q 925 513 929 515 q 917 510 922 510 l 913 510 q 910 511 911 511 q 908 513 910 511 l 907 510 l 904 510 l 904 521 l 908 521 q 911 515 908 518 q 917 514 913 514 l 919 514 q 921 517 921 515 q 917 521 921 519 l 915 521 q 911 522 913 521 q 910 522 911 522 q 907 524 907 524 q 904 526 904 526 l 904 529 q 907 536 904 535 q 915 539 910 539 q 919 538 918 539 q 924 536 922 538 l 924 538 l 928 538 l 928 528 l 924 528 q 921 533 924 531 q 919 534 919 533 q 915 535 918 535 q 913 533 913 535 q 911 532 911 532 q 917 528 911 529 l 919 528 m 931 528 l 931 538 l 957 538 l 957 528 l 953 528 q 951 532 953 532 q 947 535 951 535 l 947 535 l 947 517 l 947 515 q 949 514 947 514 l 949 514 l 951 514 l 951 511 l 936 511 l 936 514 l 938 514 l 939 514 l 940 515 l 940 517 l 940 517 l 940 535 l 939 535 q 936 532 936 535 q 935 528 935 532 l 931 528 m 976 535 l 976 538 l 989 538 l 989 535 l 986 535 l 985 533 l 985 533 l 985 531 l 985 518 q 982 513 985 515 q 974 510 976 510 q 965 513 968 510 q 963 518 963 515 l 963 531 q 961 533 963 533 q 960 535 961 535 l 960 535 l 958 535 l 958 538 l 974 538 l 974 535 l 974 535 l 972 535 q 971 533 971 535 q 969 531 969 533 l 969 519 q 971 517 969 517 q 971 515 971 515 q 975 514 972 514 q 979 515 978 514 l 981 517 l 981 519 l 981 531 q 979 533 981 533 q 978 535 978 535 l 976 535 l 976 535 m 1010 517 q 1011 524 1011 518 q 1010 532 1011 531 q 1004 535 1007 535 l 1001 535 l 1001 514 l 1004 514 q 1010 517 1007 514 m 1004 538 q 1017 535 1011 538 q 1021 524 1021 531 q 1017 514 1021 518 q 1004 511 1014 511 l 990 511 l 990 514 l 992 514 l 993 514 q 994 515 993 515 q 994 517 994 515 l 994 532 q 993 533 993 533 q 992 535 993 535 l 990 535 l 990 538 l 1004 538 m 1022 535 l 1022 538 l 1039 538 l 1039 535 l 1038 535 q 1035 533 1035 535 l 1035 532 l 1035 517 l 1035 514 l 1038 514 l 1039 514 l 1039 511 l 1022 511 l 1022 514 l 1024 514 l 1026 514 l 1026 517 l 1026 532 l 1026 533 q 1024 535 1026 535 l 1022 535 m 1061 517 q 1063 524 1063 518 q 1061 532 1063 531 q 1056 535 1058 535 q 1051 532 1054 535 q 1050 524 1050 531 q 1051 517 1050 518 q 1056 514 1053 514 q 1061 517 1060 514 m 1056 539 q 1067 535 1065 539 q 1071 524 1071 531 q 1068 514 1071 519 q 1056 510 1064 510 q 1044 514 1049 510 q 1040 524 1040 518 q 1044 535 1040 531 q 1056 539 1049 539 m 1114 519 q 1115 522 1114 521 q 1115 524 1115 522 q 1115 526 1115 525 q 1114 529 1114 528 q 1111 533 1114 531 q 1109 535 1110 535 q 1107 536 1108 535 l 1103 536 l 1097 536 q 1095 535 1096 535 q 1093 533 1094 535 q 1090 529 1093 532 l 1090 524 l 1090 519 q 1092 517 1092 518 q 1093 515 1092 517 q 1097 513 1096 513 q 1103 511 1099 511 q 1107 513 1106 511 q 1111 515 1108 513 q 1114 519 1114 518 m 1113 535 q 1117 529 1115 532 l 1117 524 l 1117 518 l 1113 514 l 1108 510 l 1103 510 l 1097 510 q 1092 514 1094 511 q 1089 518 1089 517 q 1088 524 1088 519 q 1089 529 1088 528 q 1092 535 1089 532 q 1097 538 1094 538 q 1103 539 1099 539 q 1108 538 1106 539 q 1113 535 1110 538 m 1106 518 q 1108 521 1108 518 l 1110 519 l 1107 517 q 1103 515 1106 515 q 1096 518 1099 515 q 1093 524 1093 521 q 1096 531 1093 525 q 1103 532 1097 532 l 1106 532 q 1107 531 1107 531 q 1108 532 1107 532 l 1108 532 l 1110 532 l 1110 526 l 1108 526 q 1107 528 1107 528 q 1106 531 1107 529 q 1103 532 1104 532 q 1100 529 1100 532 q 1099 524 1099 528 q 1100 518 1099 519 q 1103 517 1100 517 q 1106 518 1106 517 m 1156 519 l 1156 518 l 1156 518 q 1154 511 1156 513 q 1152 510 1153 511 q 1149 510 1151 510 q 1144 511 1146 510 l 1143 511 q 1142 513 1142 511 l 1139 513 l 1138 511 l 1138 511 l 1133 511 l 1133 511 l 1133 513 q 1135 517 1133 515 l 1138 519 q 1140 521 1139 521 q 1142 522 1140 521 q 1144 524 1143 524 q 1146 526 1146 525 q 1147 528 1147 528 q 1146 531 1147 531 q 1143 532 1144 532 l 1139 532 q 1138 531 1139 531 q 1138 529 1138 531 l 1139 529 l 1139 529 l 1140 529 q 1142 526 1142 528 q 1140 525 1142 525 q 1138 524 1140 524 q 1135 525 1136 524 q 1133 528 1133 526 q 1136 533 1133 531 q 1144 536 1142 536 q 1153 533 1147 536 q 1156 528 1156 531 q 1153 524 1156 524 q 1147 519 1150 521 l 1146 519 q 1139 515 1139 517 l 1140 517 l 1143 517 l 1147 517 q 1150 515 1150 515 l 1151 517 l 1151 519 l 1156 519 m 1171 536 q 1179 532 1175 536 q 1182 522 1182 531 q 1179 514 1182 515 q 1171 510 1175 510 q 1163 514 1165 510 q 1158 522 1158 517 q 1163 532 1158 531 q 1171 536 1165 536 m 1174 515 q 1171 514 1174 514 q 1168 515 1168 514 q 1167 522 1167 517 q 1168 531 1167 529 q 1171 532 1168 532 q 1174 531 1174 532 q 1175 522 1175 529 q 1174 515 1175 517 m 1207 519 l 1207 518 l 1207 518 q 1206 511 1207 513 q 1203 510 1204 511 q 1200 510 1203 510 q 1196 511 1197 510 l 1194 511 q 1193 513 1193 511 l 1192 513 q 1190 511 1190 513 l 1189 511 l 1185 511 l 1185 511 l 1185 513 q 1185 515 1185 514 q 1186 517 1186 515 q 1189 519 1186 517 q 1191 521 1190 521 q 1193 522 1192 521 q 1196 524 1194 524 l 1199 526 l 1199 528 q 1197 531 1199 531 q 1194 532 1197 532 l 1190 532 q 1189 529 1190 531 l 1190 529 l 1190 529 l 1193 529 l 1193 526 q 1192 525 1193 525 q 1189 524 1192 524 q 1186 525 1188 524 q 1185 528 1185 526 q 1189 533 1185 532 q 1196 536 1192 536 q 1204 533 1199 536 q 1207 528 1207 531 q 1204 524 1207 524 q 1199 519 1204 522 l 1197 519 q 1190 515 1193 518 q 1193 517 1192 517 l 1196 517 l 1199 517 q 1201 515 1201 515 q 1203 517 1203 517 q 1204 519 1204 518 l 1207 519 m 1226 514 l 1229 514 l 1231 514 l 1231 511 l 1214 511 l 1214 514 l 1215 514 l 1218 514 q 1219 517 1219 515 l 1219 517 l 1219 529 l 1214 529 l 1214 532 q 1218 533 1217 532 q 1221 535 1221 535 l 1226 535 l 1226 517 l 1226 514 z "},"2":{"ha":1572,"x_min":121,"x_max":1471,"o":"m 121 949 l 1471 949 l 1471 0 l 121 0 l 121 949 m 140 19 l 1451 19 l 1451 929 l 140 929 l 140 19 m 265 326 l 271 326 q 282 331 278 326 q 285 343 285 336 q 282 354 285 351 q 271 358 278 358 l 265 358 l 265 326 m 265 308 l 265 303 l 265 299 q 266 297 265 297 q 267 296 267 297 l 275 294 l 275 292 l 258 292 l 242 292 l 242 294 l 249 296 q 250 297 250 297 l 250 303 l 250 308 l 250 349 l 250 353 l 250 357 q 249 358 250 358 l 242 361 l 242 364 q 249 363 246 364 q 256 363 253 363 q 260 363 258 363 q 265 364 263 364 l 274 364 q 294 358 289 364 q 301 344 301 356 q 294 328 301 333 q 274 321 285 321 q 265 322 268 321 l 265 308 m 333 363 q 347 363 340 363 q 360 364 353 364 l 360 363 l 357 346 l 354 346 l 350 358 l 331 358 l 331 331 l 333 331 l 343 331 q 344 332 344 332 l 347 339 l 350 339 l 350 328 l 350 318 l 347 317 l 344 325 q 343 326 344 326 l 333 326 l 331 326 l 331 308 l 331 297 l 351 297 l 358 311 l 361 311 l 360 292 l 360 292 l 335 292 l 321 292 l 307 292 l 307 294 l 314 296 q 315 297 315 297 l 315 303 l 315 308 l 315 349 l 315 353 l 315 357 q 314 358 315 358 l 307 361 l 307 364 q 315 363 311 364 q 321 363 318 363 l 333 363 m 394 329 l 399 329 q 410 333 406 329 q 413 344 413 336 q 410 356 413 350 q 400 358 404 358 l 397 358 l 394 358 l 394 329 m 394 308 l 394 303 l 394 297 l 394 296 l 400 294 l 400 292 l 386 292 l 371 292 l 371 294 l 378 296 q 379 297 378 297 l 379 303 l 379 308 l 379 349 l 379 353 l 379 357 l 378 358 l 371 361 l 371 364 q 378 363 374 364 q 385 363 382 363 q 387 363 386 363 q 389 364 388 364 l 394 364 l 400 364 l 403 364 q 422 360 417 364 q 429 346 429 357 q 425 335 429 339 q 419 331 422 332 q 414 326 417 329 q 419 317 417 322 q 425 308 422 314 q 427 306 426 307 q 429 303 428 304 q 433 297 431 300 l 435 296 l 436 296 l 438 294 l 440 294 l 440 292 q 429 290 438 290 q 422 292 424 290 q 420 292 421 292 q 418 293 419 293 q 414 299 415 296 q 412 301 413 300 q 410 304 411 303 l 406 313 q 400 321 403 318 q 399 322 400 322 l 399 324 q 397 325 397 325 l 396 325 l 394 325 l 394 308 m 479 358 q 472 360 476 360 q 463 357 468 360 q 460 349 460 354 l 460 343 l 464 339 q 468 336 465 339 q 474 333 471 336 q 481 331 475 333 q 483 328 482 329 q 486 326 485 328 q 488 324 488 325 q 490 321 489 322 q 491 317 490 318 q 492 313 492 315 q 483 296 492 303 q 463 290 476 290 q 444 293 456 290 l 444 293 l 447 313 l 450 313 l 454 297 q 463 294 460 294 q 472 299 468 294 q 476 307 476 301 q 475 313 476 311 q 472 317 475 314 q 467 319 472 317 q 465 321 465 321 q 463 322 464 321 q 459 324 460 324 q 456 325 458 324 q 453 327 454 326 q 450 329 451 328 q 448 332 449 331 q 446 335 447 333 q 444 343 444 338 q 451 358 444 354 q 471 364 458 364 q 489 363 482 364 l 489 361 l 486 346 l 483 344 l 479 358 m 517 328 q 522 303 517 317 q 539 294 529 294 q 554 303 550 294 q 560 328 560 310 q 554 351 560 344 q 538 360 550 360 q 522 353 526 360 q 517 328 517 342 m 576 329 q 567 300 576 311 q 538 290 557 290 q 510 300 519 290 q 500 326 500 310 q 511 354 500 343 q 539 365 522 365 q 567 356 558 365 q 576 329 576 346 m 600 297 q 601 296 600 296 l 608 294 l 608 292 l 597 292 l 585 292 l 585 294 l 592 296 q 593 297 593 297 l 593 308 l 593 349 l 593 357 q 592 358 593 358 l 585 361 l 585 364 q 591 363 589 364 q 596 363 593 363 q 601 363 599 363 q 606 364 603 364 l 639 321 q 641 318 640 319 q 644 315 642 317 q 643 322 643 318 l 643 349 l 643 357 q 642 358 643 358 l 636 361 l 636 364 q 642 363 639 364 q 647 363 644 363 q 653 363 650 363 q 658 364 656 364 l 658 361 l 651 358 q 650 357 650 358 l 650 349 l 650 292 l 644 292 l 604 342 q 600 347 601 344 l 600 340 l 600 308 l 600 297 m 692 344 q 689 339 689 339 l 682 319 l 700 319 l 693 339 q 692 341 693 340 q 692 344 692 342 m 681 314 l 676 306 q 676 302 676 303 q 675 300 675 301 l 675 297 l 675 296 l 676 296 l 682 294 l 682 292 l 669 292 l 658 292 l 658 294 l 664 296 q 665 297 665 296 q 667 297 665 297 q 667 299 667 299 q 668 301 668 300 l 694 364 l 700 364 l 722 303 q 723 299 722 300 q 724 297 724 299 q 725 297 725 297 q 726 296 725 296 l 732 294 l 732 292 l 718 292 l 700 292 l 700 294 l 706 296 l 707 296 l 707 297 l 707 300 q 706 304 706 301 l 701 314 l 681 314 m 760 349 l 760 308 l 760 297 l 779 297 l 786 311 l 790 313 l 789 292 l 788 292 l 764 292 l 750 292 l 736 292 l 736 294 l 743 296 l 744 297 l 744 303 l 744 308 l 744 349 l 744 353 l 744 357 q 743 358 743 358 l 736 361 l 736 364 q 743 363 739 364 q 751 363 747 363 q 760 363 756 363 q 767 364 764 364 l 767 361 l 761 358 q 760 357 760 358 l 760 353 l 760 349 m 818 364 q 825 363 821 364 q 833 363 829 363 q 842 363 838 363 q 849 364 846 364 l 850 361 l 843 358 q 842 357 842 358 l 842 353 l 842 349 l 842 321 q 846 301 842 306 q 860 296 850 296 q 874 301 868 296 q 878 319 878 308 l 878 349 l 878 353 l 878 357 q 876 358 878 358 l 869 361 l 869 364 q 876 363 874 364 q 882 363 879 363 q 888 363 885 363 q 893 364 890 364 l 893 361 l 886 358 q 885 357 885 358 l 885 353 l 885 349 l 885 322 q 878 297 885 307 q 857 290 872 290 q 833 297 840 290 q 826 321 826 304 l 826 349 l 826 353 l 826 357 q 825 358 825 358 l 818 361 l 818 364 m 935 358 q 928 360 933 360 q 919 357 922 360 q 915 349 915 353 q 917 343 915 344 q 919 339 917 342 q 924 336 921 339 q 929 333 926 336 q 936 331 931 333 q 939 328 938 329 q 942 326 940 328 q 944 324 943 325 q 946 321 944 322 q 947 313 947 318 q 939 296 947 303 q 918 290 933 290 q 910 291 914 290 q 900 293 906 292 l 900 293 l 903 313 l 906 313 l 910 297 q 918 294 915 294 q 929 299 925 294 q 932 307 932 301 l 932 313 l 928 317 q 926 318 926 318 q 924 319 925 318 q 918 322 918 322 q 915 324 915 324 q 911 325 914 324 q 908 327 910 326 q 906 329 907 328 q 903 332 904 331 q 901 335 903 333 q 901 339 901 338 q 900 343 900 340 q 908 358 900 354 q 928 364 914 364 q 944 363 938 364 l 944 361 l 942 346 l 939 344 l 935 358 m 982 363 q 994 363 989 363 q 1007 364 1000 364 l 1008 363 l 1004 346 l 1001 346 l 999 358 l 979 358 l 979 331 l 982 331 l 992 331 l 993 332 l 994 339 l 999 339 l 999 328 l 999 318 l 994 317 l 993 325 l 992 326 l 982 326 l 979 326 l 979 308 l 979 297 l 1000 297 l 1006 311 l 1010 311 l 1008 292 l 1007 292 l 983 292 l 969 292 l 956 292 l 956 294 l 963 296 l 964 297 l 964 303 l 964 308 l 964 349 l 964 353 l 964 357 q 963 358 963 358 l 956 361 l 956 364 q 963 363 958 364 q 969 363 967 363 l 982 363 m 1061 328 q 1067 303 1061 313 q 1083 294 1074 294 q 1099 303 1094 294 q 1104 328 1104 314 q 1099 351 1104 340 q 1082 360 1093 360 q 1067 353 1071 360 q 1061 328 1061 346 m 1121 329 q 1110 300 1121 311 q 1082 290 1100 290 q 1054 300 1063 290 q 1044 326 1044 310 q 1054 354 1044 344 q 1083 365 1065 365 q 1111 356 1101 365 q 1121 329 1121 346 m 1144 297 q 1146 296 1144 296 l 1151 294 l 1153 292 l 1140 292 l 1129 292 l 1129 294 l 1136 296 l 1138 297 l 1138 308 l 1138 349 l 1138 357 q 1136 358 1138 358 l 1129 361 l 1129 364 q 1135 363 1132 364 q 1140 363 1138 363 q 1145 363 1143 363 q 1150 364 1147 364 l 1183 321 q 1185 318 1185 319 q 1188 315 1186 317 l 1188 322 l 1188 349 l 1188 357 q 1186 358 1188 358 l 1179 361 l 1179 364 q 1186 363 1183 364 q 1192 363 1189 363 q 1197 363 1194 363 q 1203 364 1199 364 l 1203 361 l 1196 358 q 1194 357 1194 358 l 1194 349 l 1194 292 l 1189 292 l 1149 342 q 1144 347 1146 344 l 1144 340 l 1144 308 l 1144 297 m 1233 349 l 1233 308 l 1233 297 l 1253 297 l 1260 311 l 1264 313 l 1263 292 l 1263 292 l 1238 292 l 1225 292 l 1210 292 l 1210 294 l 1217 296 l 1218 297 l 1218 303 l 1218 308 l 1218 349 l 1218 353 l 1218 357 q 1217 358 1217 358 l 1210 361 l 1210 364 q 1217 363 1213 364 q 1225 363 1221 363 q 1234 363 1231 363 q 1240 364 1238 364 l 1242 361 l 1235 358 q 1233 357 1233 358 l 1233 353 l 1233 349 m 1296 331 l 1306 350 q 1307 352 1307 351 q 1308 354 1307 353 l 1308 357 q 1307 360 1308 360 l 1301 361 l 1301 364 q 1308 363 1304 364 q 1314 363 1311 363 q 1319 363 1317 363 q 1325 364 1322 364 l 1325 361 l 1319 360 l 1317 357 q 1315 354 1315 356 l 1299 325 l 1299 308 l 1299 303 l 1299 297 l 1300 296 l 1307 294 l 1307 292 l 1292 292 l 1276 292 l 1275 294 l 1282 296 q 1283 297 1283 297 l 1283 303 l 1283 308 l 1283 324 l 1267 353 q 1265 356 1265 356 l 1264 357 q 1261 360 1261 360 l 1256 361 l 1256 364 q 1262 363 1258 364 q 1269 363 1265 363 q 1280 363 1275 363 q 1289 364 1285 364 l 1289 361 l 1285 360 q 1282 358 1283 360 l 1282 357 l 1282 356 q 1283 353 1283 354 q 1285 351 1283 353 l 1296 331 m 1339 313 l 1333 361 l 1349 361 l 1350 361 l 1343 314 l 1339 313 m 1340 306 q 1347 304 1344 306 q 1349 299 1349 303 q 1347 293 1349 294 q 1340 290 1342 290 q 1335 293 1338 290 q 1333 299 1333 294 q 1335 304 1333 303 q 1340 306 1336 306 m 364 192 q 365 190 364 190 l 369 189 l 369 188 l 361 188 l 353 188 l 353 189 l 358 190 l 358 192 l 358 199 l 358 229 l 358 235 l 358 236 l 353 238 l 353 240 l 361 240 l 368 240 l 393 208 q 396 204 393 207 l 396 210 l 396 229 l 396 236 l 394 236 l 390 238 l 390 240 l 399 240 l 407 240 l 407 238 l 401 236 q 400 235 400 236 l 400 229 l 400 188 l 396 188 l 367 224 q 365 226 365 225 q 364 228 365 226 l 364 222 l 364 199 l 364 192 m 425 214 q 429 196 425 203 q 440 189 433 189 q 451 196 449 189 q 456 214 456 200 q 451 232 456 226 q 440 238 447 238 q 428 232 432 238 q 425 214 425 224 m 468 215 q 461 194 468 201 q 439 186 453 186 q 419 193 426 186 q 413 213 413 200 q 419 233 413 226 q 442 242 428 242 q 461 235 454 242 q 468 215 468 228 m 494 188 l 482 188 l 482 189 l 489 190 l 489 192 l 489 199 l 489 236 l 479 236 l 475 226 l 474 225 l 472 239 l 472 240 l 490 240 l 500 240 l 518 240 l 518 239 l 517 226 l 514 225 l 511 236 l 500 236 l 500 199 l 500 192 q 501 190 501 192 l 507 189 l 508 188 l 494 188 m 556 211 l 556 199 q 556 195 556 196 q 557 192 557 194 l 557 190 l 563 189 l 563 188 l 551 188 l 539 188 l 539 189 l 544 190 l 544 192 l 544 199 l 544 229 l 544 232 l 544 235 l 544 236 l 539 238 l 539 240 l 549 240 l 558 240 l 578 240 l 578 239 l 575 228 l 574 226 l 571 236 l 556 236 l 556 215 l 558 215 l 565 215 q 567 217 567 215 l 568 221 l 571 221 l 571 214 l 571 206 l 568 206 l 567 210 q 565 211 567 211 l 558 211 l 556 211 m 593 214 q 597 196 593 203 q 610 189 601 189 q 621 196 617 189 q 625 214 625 200 q 621 232 625 226 q 608 238 617 238 q 597 232 599 238 q 593 214 593 226 m 638 215 q 629 194 638 201 q 608 186 621 186 q 588 193 597 186 q 581 213 581 203 q 589 233 581 228 q 610 242 596 242 q 629 235 622 242 q 638 215 638 226 m 661 215 l 665 215 q 672 218 671 215 q 675 226 675 221 q 672 233 675 231 q 665 236 671 236 l 664 236 l 661 236 l 661 215 m 661 199 l 661 194 l 661 192 q 663 190 661 190 l 665 189 l 667 188 l 656 188 l 644 188 l 644 189 l 649 190 q 650 192 650 192 l 650 194 l 650 199 l 650 229 l 650 232 l 650 235 q 649 236 650 236 l 644 238 l 644 240 l 654 240 l 657 240 l 661 240 l 665 240 l 668 240 q 682 238 676 240 q 688 228 688 233 q 685 218 688 224 q 680 215 682 217 q 675 213 678 214 q 678 208 678 210 q 681 206 679 207 q 683 200 683 203 q 685 197 685 199 q 688 194 686 196 q 690 192 688 194 l 690 190 l 692 190 q 693 189 693 189 l 696 189 l 696 188 q 688 186 693 186 q 682 188 683 186 q 679 189 681 188 q 676 192 676 189 q 674 197 674 194 q 669 203 671 200 q 667 208 667 206 l 665 210 q 664 211 665 211 l 664 211 l 663 211 l 661 211 l 661 199 m 758 226 l 756 225 l 753 236 q 750 237 751 236 q 747 238 749 238 q 733 231 740 238 q 729 215 729 225 q 735 197 729 203 q 750 192 740 192 q 761 193 757 192 l 761 192 q 744 186 754 186 q 725 193 732 186 q 717 213 717 201 q 725 233 717 225 q 747 240 732 240 q 760 239 756 240 l 761 239 l 758 226 m 778 214 q 782 196 778 203 q 793 189 786 189 q 804 196 801 189 q 808 214 808 200 q 804 232 808 226 q 793 238 800 238 q 781 232 785 238 q 778 214 778 224 m 821 215 q 814 194 821 201 q 792 186 806 186 q 772 193 779 186 q 765 213 765 200 q 772 233 765 226 q 794 242 781 242 q 814 235 807 242 q 821 215 821 225 m 875 240 l 885 240 l 893 240 l 893 238 l 888 236 l 888 235 l 888 229 l 888 199 l 888 192 q 889 190 888 190 l 893 189 l 893 188 l 882 188 l 871 188 l 871 189 l 875 190 l 876 192 l 876 199 l 876 224 l 876 231 q 875 227 875 228 q 874 224 875 226 l 858 188 l 856 188 l 840 222 q 840 226 840 225 q 839 229 839 226 l 839 222 l 839 199 l 839 192 l 839 190 l 843 189 l 843 188 l 836 188 l 828 188 l 828 189 l 832 190 q 833 192 833 192 l 833 199 l 833 229 l 833 235 q 832 236 833 236 l 828 238 l 828 240 l 836 240 l 846 240 l 858 207 q 859 205 858 206 q 860 203 860 204 q 861 207 861 204 l 875 240 m 947 240 l 956 240 l 965 240 l 965 238 l 960 236 l 960 235 q 958 229 958 233 l 958 199 q 960 192 958 193 l 960 190 l 965 189 l 965 188 l 953 188 l 943 188 l 943 189 l 947 190 l 947 192 l 947 199 l 947 224 l 947 231 q 947 227 947 228 q 946 224 946 226 l 931 188 l 926 188 l 913 222 q 911 226 911 225 q 910 229 911 226 l 910 222 l 910 199 l 910 192 l 911 190 l 915 189 l 915 188 l 908 188 l 899 188 l 899 189 l 904 190 l 906 192 l 906 199 l 906 229 l 906 235 q 904 236 904 236 l 899 238 l 899 240 l 908 240 l 917 240 l 931 207 q 931 205 931 206 q 932 203 932 204 q 933 205 932 204 q 933 207 933 206 l 947 240 m 992 240 l 1010 240 l 1010 239 l 1008 228 l 1006 226 l 1004 236 l 989 236 l 989 217 l 992 217 l 999 217 l 999 217 l 1000 222 l 1003 222 l 1003 214 l 1003 206 l 1000 206 l 999 211 l 999 213 l 990 213 l 989 213 l 989 200 l 989 192 l 1004 192 l 1008 201 l 1011 201 l 1010 188 l 1010 188 l 992 188 l 982 188 l 972 188 l 972 189 l 976 190 q 978 192 978 192 l 978 194 l 978 199 l 978 229 l 978 232 l 978 235 q 976 236 978 236 l 972 238 l 972 240 l 982 240 l 992 240 m 1035 215 l 1039 215 q 1046 218 1044 215 q 1049 226 1049 219 q 1047 233 1049 232 q 1039 236 1044 236 l 1038 236 l 1035 236 l 1035 215 m 1035 199 l 1035 194 l 1035 192 l 1036 190 l 1040 189 l 1040 188 l 1029 188 l 1018 188 l 1018 189 l 1022 190 q 1024 192 1024 192 l 1024 194 l 1024 199 l 1024 229 l 1024 232 l 1024 235 l 1024 236 l 1018 238 l 1018 240 l 1029 240 l 1032 240 l 1036 240 l 1039 240 l 1042 240 q 1057 238 1049 240 q 1061 228 1061 233 q 1058 218 1061 224 q 1054 215 1056 217 q 1050 213 1053 214 q 1054 206 1053 207 q 1056 203 1056 204 q 1058 200 1057 201 q 1061 194 1058 197 l 1064 192 q 1065 190 1064 190 l 1067 190 q 1068 189 1067 189 l 1069 189 l 1069 188 q 1061 186 1067 186 q 1056 188 1057 186 q 1053 189 1054 188 q 1050 192 1053 189 q 1047 197 1050 192 q 1043 203 1044 200 q 1040 208 1043 206 q 1039 210 1039 210 l 1039 211 l 1038 211 l 1036 211 l 1035 211 l 1035 199 m 1111 226 l 1110 225 l 1107 236 q 1103 237 1104 236 q 1100 238 1103 238 q 1088 231 1092 238 q 1083 215 1083 225 q 1088 197 1083 204 q 1103 192 1093 192 q 1114 193 1110 192 l 1114 192 q 1097 186 1108 186 q 1078 193 1088 186 q 1071 213 1071 200 q 1079 233 1071 225 q 1100 240 1085 240 q 1114 239 1108 240 l 1114 239 l 1111 226 m 1138 199 l 1138 194 l 1138 192 l 1139 190 l 1143 189 l 1144 188 l 1132 188 l 1121 188 l 1121 189 l 1125 190 q 1126 192 1126 192 l 1126 194 l 1126 199 l 1126 229 l 1126 232 l 1126 235 q 1125 236 1126 236 l 1121 238 l 1121 240 l 1132 240 l 1143 240 l 1144 238 l 1139 236 l 1138 236 l 1138 232 l 1138 229 l 1138 199 m 1161 204 l 1158 197 q 1157 193 1158 194 l 1157 192 l 1157 190 l 1158 190 l 1163 189 l 1163 188 l 1153 188 l 1146 188 l 1144 189 l 1149 190 q 1150 191 1150 190 q 1151 192 1150 192 q 1153 194 1151 193 l 1171 240 l 1175 240 l 1192 194 q 1193 192 1193 192 q 1196 190 1193 190 l 1199 189 l 1199 188 l 1189 188 l 1176 188 l 1175 189 l 1179 190 l 1181 190 l 1181 192 l 1181 194 q 1179 197 1179 196 l 1176 204 l 1161 204 m 1169 225 q 1169 223 1169 224 q 1168 221 1168 222 l 1163 208 l 1175 208 l 1171 221 q 1170 223 1171 222 q 1169 225 1169 224 m 1219 229 l 1219 200 l 1219 192 l 1233 192 l 1239 201 l 1242 203 l 1240 188 l 1240 188 l 1222 188 l 1213 188 l 1203 188 l 1203 189 l 1207 190 l 1208 192 l 1208 194 l 1208 199 l 1208 229 l 1208 232 l 1208 235 q 1207 236 1207 236 l 1203 238 l 1203 240 l 1214 240 l 1225 240 l 1225 238 l 1221 236 l 1219 236 l 1219 232 l 1219 229 m 689 642 q 692 678 699 671 l 690 678 q 678 668 688 678 q 650 626 669 658 q 660 631 657 631 q 668 626 667 631 l 669 626 l 668 626 q 644 604 656 624 q 629 568 632 585 q 629 549 625 553 l 632 549 q 661 581 642 549 q 677 610 669 594 q 689 642 685 626 m 499 646 l 515 646 q 536 683 526 665 q 551 710 546 701 q 522 679 538 696 q 488 646 506 663 l 499 646 m 460 650 q 467 657 463 653 q 476 665 471 661 q 535 719 501 690 q 508 726 526 726 q 456 712 485 726 q 400 674 428 697 q 374 644 388 661 q 353 610 361 626 q 342 563 332 572 q 344 561 342 561 q 361 569 350 561 q 386 587 372 576 q 415 610 400 597 q 440 633 429 624 q 426 639 432 636 q 421 653 421 644 q 427 667 422 660 q 439 681 432 675 l 439 681 l 450 674 l 449 672 q 435 659 440 665 q 431 647 429 653 q 433 642 431 644 l 439 642 l 450 642 q 456 647 453 644 q 460 650 458 649 m 696 683 q 705 656 706 676 q 697 617 704 636 q 671 564 688 589 q 636 539 654 539 l 636 539 q 625 542 629 539 q 618 549 621 546 q 617 567 615 560 q 589 515 601 539 q 571 481 576 492 q 569 475 569 478 l 568 475 l 560 481 l 560 481 q 575 534 563 503 q 604 597 588 565 q 582 576 593 585 q 564 567 571 568 l 564 567 q 557 569 561 567 q 551 574 553 572 q 547 583 547 576 q 550 600 547 586 q 524 569 538 583 q 501 553 511 556 l 500 553 q 494 556 497 553 q 489 560 490 558 q 491 590 483 568 q 510 635 499 611 q 501 634 506 635 q 493 633 497 633 q 483 633 488 633 q 472 632 478 632 q 460 621 465 626 q 447 610 454 615 q 349 551 379 551 q 338 554 340 551 q 324 581 326 560 q 332 628 321 603 q 371 681 344 654 q 438 729 404 714 q 492 742 467 742 q 524 736 511 742 q 542 726 536 731 q 576 756 561 743 q 606 781 592 769 l 606 781 l 617 776 l 615 776 q 590 738 608 769 q 549 665 572 706 q 542 653 546 658 q 535 640 538 647 q 549 631 543 636 q 550 629 550 631 l 549 629 l 547 631 q 532 635 543 635 q 500 564 497 568 q 511 574 503 564 q 531 597 519 583 q 553 625 542 610 q 574 653 565 640 l 586 678 q 624 735 606 710 q 658 775 643 761 l 658 775 l 671 765 l 669 765 q 631 708 650 739 q 594 647 611 678 q 569 599 576 615 q 564 579 563 582 q 576 590 567 579 q 601 615 586 600 q 631 647 615 629 q 658 681 646 664 l 660 681 l 667 676 q 688 685 678 685 l 692 685 q 696 683 693 683 m 861 642 q 863 678 869 672 l 861 678 q 849 668 858 678 q 821 626 840 658 q 832 631 828 631 q 840 626 836 631 l 840 626 l 839 626 q 816 604 828 624 q 800 568 804 585 q 801 549 796 553 l 803 549 q 832 581 813 549 q 848 610 840 594 q 861 642 856 626 m 867 683 q 876 656 878 676 q 868 617 875 636 q 842 564 860 589 q 808 539 825 539 q 799 542 804 539 q 788 567 786 549 q 760 515 772 539 q 743 481 749 492 q 740 475 740 475 l 740 475 l 731 481 l 731 481 q 745 532 733 501 q 774 593 757 563 q 765 589 769 589 q 763 590 763 589 q 757 600 757 593 q 757 611 757 607 q 747 598 754 607 q 732 580 740 589 q 715 563 724 571 q 701 556 707 556 l 701 556 q 694 559 699 556 q 689 565 689 563 q 694 595 688 578 q 711 626 701 613 q 738 656 721 640 q 768 671 754 671 q 772 670 771 671 q 775 669 772 669 q 780 657 782 665 q 778 647 778 649 l 778 647 l 768 653 l 769 653 q 772 658 771 656 q 772 663 774 661 l 772 663 q 752 642 768 663 q 721 601 736 622 q 707 580 710 586 q 704 572 704 574 q 715 583 707 574 q 732 604 724 593 q 751 628 742 617 q 764 642 761 639 l 767 642 q 769 640 768 642 q 772 631 772 638 q 769 615 771 624 q 767 604 768 610 q 768 599 767 599 q 776 607 769 599 q 792 628 783 615 q 811 654 801 640 q 829 681 821 668 l 829 681 l 836 676 q 858 685 849 685 l 863 685 q 867 683 864 683 m 889 707 l 897 707 q 882 742 894 732 q 861 746 874 746 q 810 732 838 746 q 772 707 782 718 q 771 701 769 703 q 783 697 771 697 q 826 701 801 697 q 858 706 842 704 q 889 707 874 707 m 1242 744 q 1267 703 1261 731 q 1261 643 1272 676 q 1249 611 1257 626 q 1231 583 1240 596 q 1188 558 1210 558 q 1175 561 1183 558 q 1162 587 1161 568 q 1164 614 1163 606 q 1154 601 1161 610 q 1139 583 1147 592 q 1122 566 1131 574 q 1108 558 1114 558 l 1107 558 q 1094 568 1097 558 q 1097 585 1094 578 q 1090 577 1093 581 q 1083 574 1086 574 l 1083 574 q 1078 576 1081 574 q 1074 579 1075 578 q 1076 603 1071 585 q 1085 629 1082 622 l 1085 631 q 1079 624 1082 628 q 1072 615 1076 621 q 1040 576 1058 599 q 1017 550 1022 554 l 1015 550 q 1003 557 1007 550 q 1003 561 1003 561 q 1008 577 1004 568 q 1017 597 1011 586 q 1001 588 1007 588 q 999 589 1000 588 q 993 599 993 592 q 993 611 993 606 q 983 598 990 607 q 968 579 976 589 q 951 563 960 569 q 938 556 943 556 q 936 554 938 554 q 929 558 933 554 q 925 564 925 561 q 925 574 924 568 q 896 544 907 549 l 894 543 q 882 549 885 543 q 888 576 881 558 q 904 615 894 594 q 922 662 914 639 q 925 692 931 685 q 910 696 924 696 q 897 625 910 665 q 883 589 890 607 q 864 556 875 571 l 864 554 l 849 561 l 850 563 q 880 627 865 590 q 897 696 894 664 q 860 692 881 694 q 829 688 844 689 q 801 686 814 686 q 764 699 771 686 q 767 719 760 710 q 801 746 776 735 q 849 757 825 757 q 888 744 874 757 q 908 706 904 732 q 931 696 925 703 q 937 672 938 688 q 931 638 936 656 q 917 603 925 621 q 904 572 910 585 q 899 557 899 558 q 915 578 901 560 q 939 613 928 596 l 947 625 q 974 654 957 639 q 1004 669 990 669 q 1007 669 1006 669 q 1010 668 1008 668 q 1016 656 1018 665 q 1013 647 1014 647 l 1013 646 l 1004 651 l 1004 651 q 1007 661 1011 658 l 1007 661 q 988 642 1004 661 q 957 600 972 622 q 943 579 946 585 q 940 572 940 574 q 951 582 943 572 q 967 603 960 592 q 987 626 978 615 q 1000 640 996 638 l 1003 640 l 1006 640 q 1008 630 1008 638 q 1004 614 1007 622 q 1003 603 1004 608 q 1004 597 1003 597 q 1010 603 1006 597 q 1022 619 1015 610 q 1037 641 1029 629 q 1050 663 1044 653 q 1053 669 1051 665 q 1057 676 1054 672 l 1057 678 l 1069 669 l 1035 592 q 1042 601 1038 596 q 1050 611 1046 606 q 1077 645 1064 629 q 1097 661 1090 661 q 1101 658 1100 661 q 1101 645 1104 656 q 1096 624 1099 635 q 1090 600 1094 617 q 1085 582 1085 583 l 1085 582 q 1095 594 1089 585 q 1108 613 1101 604 q 1118 628 1114 624 q 1121 632 1118 629 l 1121 632 l 1121 632 q 1147 659 1132 646 q 1175 672 1163 672 q 1181 671 1179 672 q 1186 659 1188 668 q 1183 650 1185 650 l 1183 649 l 1175 654 l 1175 654 q 1178 660 1176 657 q 1178 664 1181 663 l 1178 664 q 1158 644 1174 664 q 1126 603 1142 625 q 1114 582 1117 588 q 1111 575 1111 576 q 1120 583 1114 575 q 1133 601 1126 592 q 1155 629 1144 617 q 1171 643 1165 642 l 1172 643 q 1175 642 1174 643 q 1177 630 1178 639 q 1175 610 1176 621 q 1174 585 1174 597 q 1178 568 1174 572 q 1179 567 1179 567 l 1182 567 q 1218 596 1200 567 q 1247 660 1236 626 q 1252 685 1250 674 q 1253 708 1254 697 q 1238 739 1250 732 q 1204 747 1225 747 q 1160 740 1183 747 q 1114 724 1138 733 q 1072 710 1092 717 q 1038 704 1053 704 q 1003 719 1014 704 l 1004 721 q 1024 714 1011 714 l 1024 714 q 1053 719 1036 714 q 1089 733 1069 725 q 1139 751 1113 743 q 1190 760 1165 760 q 1242 744 1219 760 m 931 528 q 938 524 936 525 q 940 518 940 521 q 936 513 940 515 q 928 510 933 510 l 924 510 q 922 511 922 511 q 919 513 921 511 l 918 510 l 915 510 l 915 521 l 919 521 q 922 515 919 518 q 928 514 924 514 l 931 514 q 932 517 932 515 q 928 521 932 519 l 926 521 q 922 522 924 521 q 921 522 922 522 q 918 524 918 524 q 915 526 915 526 l 915 529 q 918 536 915 535 q 926 539 921 539 q 931 538 929 539 q 935 536 933 538 l 935 538 l 939 538 l 939 528 l 935 528 q 932 533 935 531 q 930 534 931 533 q 926 535 929 535 q 924 533 924 535 q 922 532 922 532 q 928 528 922 529 l 931 528 m 942 528 l 942 538 l 968 538 l 968 528 l 964 528 q 963 532 964 532 q 958 535 963 535 l 958 535 l 958 517 l 958 515 q 960 514 958 514 l 960 514 l 963 514 l 963 511 l 947 511 l 947 514 l 949 514 l 950 514 l 951 515 l 951 517 l 951 517 l 951 535 l 950 535 q 947 532 947 535 q 946 528 946 532 l 942 528 m 988 535 l 988 538 l 1000 538 l 1000 535 l 997 535 l 996 533 l 996 533 l 996 531 l 996 518 q 993 513 996 515 q 985 510 988 510 q 976 513 979 510 q 974 518 974 515 l 974 531 q 972 533 974 533 q 971 535 972 535 l 971 535 l 969 535 l 969 538 l 985 538 l 985 535 l 985 535 l 983 535 q 982 533 982 535 q 981 531 981 533 l 981 519 q 982 517 981 517 q 982 515 982 515 q 986 514 983 514 q 990 515 989 514 l 992 517 l 992 519 l 992 531 q 990 533 992 533 q 989 535 989 535 l 988 535 l 988 535 m 1021 517 q 1022 524 1022 518 q 1021 532 1022 531 q 1015 535 1018 535 l 1013 535 l 1013 514 l 1015 514 q 1021 517 1018 514 m 1015 538 q 1028 535 1022 538 q 1032 524 1032 531 q 1028 514 1032 518 q 1015 511 1025 511 l 1001 511 l 1001 514 l 1003 514 l 1004 514 q 1005 515 1004 515 q 1006 517 1006 515 l 1006 532 q 1004 533 1004 533 q 1003 535 1004 535 l 1001 535 l 1001 538 l 1015 538 m 1033 535 l 1033 538 l 1050 538 l 1050 535 l 1049 535 q 1046 533 1046 535 l 1046 532 l 1046 517 l 1046 514 l 1049 514 l 1050 514 l 1050 511 l 1033 511 l 1033 514 l 1035 514 l 1038 514 l 1038 517 l 1038 532 l 1038 533 q 1035 535 1038 535 l 1033 535 m 1072 517 q 1074 524 1074 518 q 1072 532 1074 531 q 1067 535 1069 535 q 1063 532 1065 535 q 1061 524 1061 531 q 1063 517 1061 518 q 1067 514 1064 514 q 1072 517 1071 514 m 1067 539 q 1078 535 1076 539 q 1082 524 1082 531 q 1079 514 1082 519 q 1067 510 1075 510 q 1056 514 1060 510 q 1051 524 1051 518 q 1056 535 1051 531 q 1067 539 1060 539 m 1125 519 q 1126 522 1125 521 q 1126 524 1126 522 q 1126 526 1126 525 q 1125 529 1125 528 q 1122 533 1125 531 q 1120 535 1121 535 q 1118 536 1119 535 l 1114 536 l 1108 536 q 1106 535 1107 535 q 1104 533 1106 535 q 1101 529 1104 532 l 1101 524 l 1101 519 q 1103 517 1103 518 q 1104 515 1103 517 q 1108 513 1107 513 q 1114 511 1110 511 q 1118 513 1117 511 q 1122 515 1119 513 q 1125 519 1125 518 m 1124 535 q 1128 529 1126 532 l 1128 524 l 1128 518 l 1124 514 l 1119 510 l 1114 510 l 1108 510 q 1103 514 1106 511 q 1100 518 1100 517 q 1099 524 1099 519 q 1100 529 1099 528 q 1103 535 1100 532 q 1108 538 1106 538 q 1114 539 1110 539 q 1119 538 1117 539 q 1124 535 1121 538 m 1117 518 q 1119 521 1119 518 l 1121 519 l 1118 517 q 1114 515 1117 515 q 1107 518 1110 515 q 1104 524 1104 521 q 1107 531 1104 525 q 1114 532 1108 532 l 1117 532 q 1118 531 1118 531 q 1119 532 1118 532 l 1119 532 l 1121 532 l 1121 526 l 1119 526 q 1118 528 1118 528 q 1117 531 1118 529 q 1114 532 1115 532 q 1111 529 1111 532 q 1110 524 1110 528 q 1111 518 1110 519 q 1114 517 1111 517 q 1117 518 1117 517 m 1167 519 l 1167 518 l 1167 518 q 1165 511 1167 513 q 1163 510 1164 511 q 1160 510 1163 510 q 1156 511 1157 510 l 1154 511 q 1153 513 1153 511 l 1150 513 l 1149 511 l 1149 511 l 1144 511 l 1144 511 l 1144 513 q 1146 517 1144 515 l 1149 519 q 1151 521 1150 521 q 1153 522 1151 521 q 1156 524 1154 524 q 1157 526 1157 525 q 1158 528 1158 528 q 1157 531 1158 531 q 1154 532 1156 532 l 1150 532 q 1149 531 1150 531 q 1149 529 1149 531 l 1150 529 l 1150 529 l 1151 529 q 1153 526 1153 528 q 1151 525 1153 525 q 1149 524 1151 524 q 1146 525 1147 524 q 1144 528 1144 526 q 1147 533 1144 531 q 1156 536 1153 536 q 1164 533 1158 536 q 1167 528 1167 531 q 1164 524 1167 524 q 1158 519 1161 521 l 1157 519 q 1150 515 1150 517 l 1151 517 l 1154 517 l 1158 517 q 1161 515 1161 515 l 1163 517 l 1163 519 l 1167 519 m 1182 536 q 1190 532 1186 536 q 1193 522 1193 531 q 1190 514 1193 515 q 1182 510 1186 510 q 1174 514 1176 510 q 1169 522 1169 517 q 1174 532 1169 531 q 1182 536 1176 536 m 1185 515 q 1182 514 1185 514 q 1179 515 1179 514 q 1178 522 1178 517 q 1179 531 1178 529 q 1182 532 1179 532 q 1185 531 1185 532 q 1186 522 1186 529 q 1185 515 1186 517 m 1218 519 l 1218 518 l 1218 518 q 1217 511 1218 513 q 1215 510 1215 511 q 1211 510 1214 510 q 1207 511 1208 510 l 1206 511 q 1204 513 1204 511 l 1203 513 q 1201 511 1201 513 l 1200 511 l 1196 511 l 1196 511 l 1196 513 q 1197 515 1196 514 q 1197 517 1197 515 q 1200 519 1197 517 q 1202 521 1201 521 q 1204 522 1203 521 q 1207 524 1206 524 l 1210 526 l 1210 528 q 1208 531 1210 531 q 1206 532 1208 532 l 1201 532 q 1200 529 1201 531 l 1201 529 l 1201 529 l 1204 529 l 1204 526 q 1203 525 1204 525 q 1200 524 1203 524 q 1197 525 1199 524 q 1196 528 1196 526 q 1200 533 1196 532 q 1207 536 1203 536 q 1215 533 1210 536 q 1218 528 1218 531 q 1215 524 1218 524 q 1210 519 1215 522 l 1208 519 q 1201 515 1204 518 q 1204 517 1203 517 l 1207 517 l 1210 517 q 1213 515 1213 515 q 1214 517 1214 517 q 1215 519 1215 518 l 1218 519 m 1238 514 l 1240 514 l 1242 514 l 1242 511 l 1225 511 l 1225 514 l 1226 514 l 1229 514 q 1231 517 1231 515 l 1231 517 l 1231 529 l 1225 529 l 1225 532 q 1229 533 1228 532 q 1232 535 1232 535 l 1238 535 l 1238 517 l 1238 514 z "},"3":{"ha":608,"x_min":-142,"x_max":589,"o":"m 386 356 q 396 383 396 375 q 392 390 396 389 q 374 394 389 392 q 347 397 364 396 q 310 397 329 397 q 275 394 292 396 q 249 390 258 393 q 229 385 242 388 q 206 381 217 383 q 178 374 194 378 q 150 367 161 369 q 126 358 133 360 q 114 360 118 357 q 100 378 107 363 q 89 414 93 393 q 86 433 86 428 q 89 444 86 438 q 101 457 92 454 q 119 464 106 458 q 153 478 133 469 q 194 498 172 488 q 235 518 215 508 q 272 536 256 528 q 294 549 288 544 q 317 561 301 551 q 353 582 333 571 q 406 614 383 600 q 444 641 428 628 q 475 667 461 654 q 501 696 489 681 q 519 725 519 718 q 503 733 519 732 q 476 732 493 733 q 442 727 460 731 q 407 719 424 724 q 379 710 390 714 q 275 661 324 689 q 222 626 246 646 q 193 592 199 607 q 176 579 188 579 q 139 610 158 579 q 128 685 111 651 q 152 715 135 699 q 192 747 169 731 q 242 776 215 763 q 293 797 268 789 q 436 825 379 825 q 516 808 476 825 q 575 754 556 790 q 585 722 582 743 q 588 675 589 700 q 584 649 586 656 q 572 626 582 642 q 516 560 553 594 q 422 490 479 526 q 393 472 403 478 q 381 463 383 467 q 380 459 378 460 q 386 456 382 458 q 413 431 396 450 q 435 400 429 413 q 453 326 453 365 q 429 253 453 285 q 378 194 406 222 q 239 99 321 138 q 79 36 157 60 q -56 15 -17 4 q -115 49 -92 24 q -140 110 -137 75 q -140 133 -142 124 q -135 142 -137 142 q -121 131 -132 142 q -108 121 -112 122 q -83 121 -103 119 q -44 126 -69 121 q 8 138 -19 131 q 62 153 36 144 q 101 167 88 161 q 177 194 135 176 q 261 238 219 213 q 337 292 303 263 q 386 356 371 322 z "},"4":{"ha":732,"x_min":-143,"x_max":729,"o":"m -140 196 q -141 208 -143 204 q -131 219 -139 211 q -116 231 -125 224 q -99 244 -107 238 q -35 301 -67 272 q 29 358 -3 329 q 114 440 68 393 q 204 535 160 486 q 287 632 249 585 q 350 715 325 679 q 361 731 356 722 q 369 743 367 739 q 379 757 374 747 q 390 776 385 767 q 407 799 401 799 q 419 792 411 799 q 433 775 426 785 q 454 717 454 749 q 453 705 454 710 q 451 694 453 700 q 444 680 449 688 q 433 658 440 672 q 333 519 389 583 q 219 392 278 454 q 172 340 193 364 q 147 313 150 317 q 133 299 143 308 q 113 281 124 289 q 96 260 88 258 q 136 270 114 265 q 181 279 158 275 q 226 287 204 283 q 264 292 247 290 q 288 292 281 293 q 303 288 294 292 q 315 284 313 283 q 324 292 317 285 q 338 310 329 299 q 356 333 346 321 q 374 359 365 346 q 389 382 383 372 q 442 458 417 419 q 494 536 468 497 q 524 581 511 563 q 543 606 538 600 q 550 616 546 608 q 560 632 554 624 q 569 646 565 640 q 576 657 572 651 q 587 672 581 663 q 603 694 593 681 q 618 716 611 706 q 628 731 625 726 q 635 741 631 733 q 646 756 640 749 q 656 769 651 763 q 663 778 661 775 q 697 767 674 790 q 717 740 708 756 q 728 711 725 725 q 728 699 729 704 q 722 683 728 693 q 706 656 717 674 q 693 635 696 638 q 681 617 692 633 q 661 585 671 600 q 656 576 658 581 q 650 567 653 571 q 640 551 646 561 q 626 529 633 540 q 605 494 621 519 q 569 440 589 469 q 529 382 549 411 q 496 335 510 353 q 468 296 486 322 q 431 242 450 269 q 398 191 413 214 q 379 161 383 168 q 372 147 376 156 q 360 131 367 139 q 335 92 346 113 q 317 57 324 72 q 310 41 314 50 q 301 25 306 32 q 289 -10 292 7 q 284 -24 286 -22 q 272 -28 282 -26 q 251 -24 258 -28 q 226 -3 243 -19 q 203 26 210 13 q 197 41 199 33 q 196 64 196 49 q 198 92 196 83 q 211 122 200 100 q 229 153 218 135 q 250 186 240 172 q 267 219 267 214 q 251 219 268 225 q 243 216 249 217 q 235 215 238 215 q 210 210 231 215 q 162 196 190 204 q 101 177 133 188 q 39 157 68 167 q 22 151 31 154 q 6 146 13 149 q -22 137 -6 143 q -56 122 -37 131 q -75 118 -68 118 q -97 126 -86 118 q -117 147 -108 135 q -133 173 -126 160 q -140 196 -139 186 z "},"5":{"ha":650,"x_min":-47,"x_max":654,"o":"m -19 57 q -37 88 -33 74 q -44 131 -42 103 q -47 154 -47 147 q -43 165 -46 161 q -31 169 -37 172 q -19 154 -24 165 q 26 113 -8 126 q 101 110 61 100 q 197 147 149 119 q 282 206 246 174 q 309 233 293 215 q 342 271 325 250 q 373 312 358 292 q 394 346 388 332 q 410 370 401 351 q 426 410 418 389 q 439 453 433 432 q 444 482 444 474 q 435 499 444 490 q 415 511 426 508 q 401 511 408 513 q 379 504 393 510 q 269 456 326 489 q 172 386 213 422 q 156 372 164 378 q 146 367 149 367 q 126 377 139 367 q 104 399 113 388 q 92 425 97 410 q 86 454 86 440 q 96 479 86 465 q 106 492 100 485 q 115 506 111 500 q 126 520 119 511 q 138 536 132 529 q 147 549 143 543 q 151 556 151 554 q 154 562 151 557 q 160 572 157 567 q 167 583 164 578 q 174 596 171 589 q 184 610 176 597 q 200 640 192 624 q 217 672 210 657 q 228 689 225 686 q 235 704 229 693 q 247 726 240 715 q 260 753 254 738 q 271 781 267 769 q 285 808 279 808 q 299 801 289 808 q 352 781 319 786 q 440 772 385 775 q 491 772 474 771 q 522 775 508 772 q 567 785 546 779 q 590 793 588 790 q 601 796 593 796 q 617 788 608 796 q 635 768 626 779 q 649 747 643 757 q 654 731 654 736 q 622 697 654 715 q 549 668 590 678 q 489 659 514 661 q 439 660 464 657 q 401 669 417 663 q 361 689 385 675 q 347 697 353 693 q 339 700 340 700 q 333 686 336 700 q 327 668 331 679 q 319 646 324 657 q 308 619 315 636 q 296 589 301 603 q 286 565 290 575 q 279 553 282 556 q 308 556 272 542 q 367 569 344 569 q 397 564 382 569 q 421 556 417 560 q 433 547 422 553 q 446 540 438 546 q 461 526 454 533 q 492 488 481 508 q 507 440 503 468 q 512 398 513 413 q 504 358 511 383 q 498 334 501 346 q 493 319 494 322 q 478 281 490 308 q 454 236 465 254 q 431 199 442 214 q 410 170 421 183 q 388 146 400 157 q 360 121 376 135 q 334 99 347 110 q 315 82 321 88 q 228 25 279 50 q 203 13 214 18 q 190 6 193 7 q 177 1 186 4 q 156 -4 168 -1 q 134 -8 144 -7 q 118 -10 124 -10 q 102 -8 111 -8 q 86 -6 93 -7 q 26 19 56 1 q -19 57 -4 38 z "},"6":{"ha":550,"x_min":-96,"x_max":582,"o":"m 364 193 q 347 173 361 189 q 314 140 332 157 q 267 95 296 121 q 206 47 238 69 q 140 7 174 24 q 78 -11 107 -10 l 44 -11 q -3 5 21 -7 q -40 31 -26 17 q -59 63 -47 38 q -78 106 -71 88 q -91 206 -96 156 q -56 315 -86 257 q -37 349 -47 331 q -15 384 -26 367 q 8 417 -4 401 q 28 442 19 432 q 49 465 40 454 q 72 491 56 474 q 109 528 89 508 q 147 566 129 549 q 172 589 164 583 q 184 598 176 592 q 199 611 192 604 q 236 643 213 625 q 283 678 260 661 q 306 693 301 689 q 350 722 324 706 q 406 753 376 738 q 462 778 435 768 q 508 789 489 789 q 523 786 518 789 q 542 769 528 783 q 552 757 546 765 q 565 739 558 749 q 577 720 572 729 q 582 704 582 711 q 574 699 582 701 q 565 697 571 697 q 554 693 558 696 q 527 683 547 692 q 485 663 507 674 q 447 644 464 653 q 428 635 429 636 l 414 626 q 395 615 406 622 q 368 597 385 608 q 354 588 364 594 q 333 574 344 581 q 277 534 304 554 q 222 490 250 514 q 215 485 218 488 q 208 479 211 482 q 203 474 206 476 q 226 478 208 474 q 307 482 260 488 q 411 407 378 469 q 427 354 424 382 q 424 307 431 326 q 411 272 418 293 q 401 250 408 263 q 388 228 394 238 q 374 208 381 218 q 364 193 367 199 m 144 133 q 339 342 303 265 q 350 369 349 361 q 347 390 351 376 q 342 400 344 399 q 319 400 339 401 q 240 383 281 397 q 165 351 200 369 q 153 346 160 346 q 147 344 150 346 q 139 339 143 342 q 130 331 136 336 q 118 324 124 326 q 76 294 97 311 q 39 260 56 278 q 10 224 22 242 q -4 193 -1 207 q -8 180 -6 188 q -12 167 -10 172 q -17 147 -15 160 q -18 121 -18 135 q -19 94 -19 100 q -14 81 -18 88 q 0 67 -8 69 q 49 68 18 57 q 89 91 61 72 q 144 133 117 110 z "},"7":{"ha":624,"x_min":-37,"x_max":679,"o":"m 235 776 q 288 777 258 776 q 333 779 317 778 q 374 783 351 782 q 411 786 396 785 q 478 792 454 790 q 518 796 501 794 q 551 799 535 797 q 594 806 567 801 q 630 804 619 808 q 653 783 640 800 q 671 744 663 768 q 679 708 679 721 q 676 691 679 699 q 661 672 674 683 q 624 640 649 660 q 557 588 600 621 q 493 537 519 558 q 443 494 467 515 q 419 473 432 483 q 400 458 407 463 q 388 449 393 453 q 383 444 383 446 q 376 439 382 443 q 364 428 371 435 q 349 415 357 421 q 336 404 340 408 q 324 393 333 401 q 307 378 315 385 q 246 320 282 356 q 174 245 210 285 q 108 166 138 206 q 63 96 78 126 q 49 55 54 76 q 43 19 43 33 q 39 -1 43 1 q 6 6 28 -8 q -31 51 -19 22 q -36 86 -37 69 q -10 167 -31 126 q 38 244 10 207 q 97 317 65 282 q 158 381 129 351 l 228 450 q 269 492 251 474 q 300 519 288 510 q 328 547 311 531 q 366 580 346 563 q 404 612 386 597 q 432 632 422 626 q 443 640 435 635 q 458 651 451 644 q 479 667 465 657 q 504 685 493 676 q 523 698 515 692 q 529 706 531 704 l 518 703 q 505 698 514 701 q 484 692 496 694 q 460 687 472 689 q 440 683 449 685 q 425 678 428 681 q 406 673 422 676 q 370 667 390 669 q 330 662 350 664 q 299 660 310 660 q 210 675 236 660 q 178 697 194 682 q 156 722 163 711 q 149 736 153 728 q 142 754 146 744 q 138 772 139 764 q 136 783 136 779 q 141 790 136 790 q 164 782 146 789 q 185 777 172 778 q 235 776 199 776 z "},"8":{"ha":632,"x_min":-68,"x_max":614,"o":"m 440 822 q 467 829 457 828 q 492 829 476 831 q 531 818 517 826 q 569 785 546 810 q 602 739 593 756 q 613 701 611 722 q 613 688 613 693 q 613 678 614 683 q 608 668 611 674 q 601 653 606 663 q 574 614 590 631 q 519 569 557 597 q 494 551 507 560 q 478 539 482 542 q 456 524 474 535 q 419 499 439 513 q 387 476 400 486 q 374 465 374 467 q 383 455 374 464 q 403 435 392 446 q 444 388 432 403 q 465 353 457 372 q 480 285 479 322 q 468 213 481 247 q 419 132 454 174 q 340 55 385 90 q 247 -5 296 19 q 154 -33 199 -29 q 114 -36 129 -36 q 82 -32 99 -36 q -27 24 14 -18 q -68 138 -68 67 q -49 201 -67 167 q -6 267 -31 235 q 49 327 19 300 q 100 371 78 354 q 169 425 135 399 q 240 478 204 451 q 260 493 251 486 q 268 501 268 500 q 261 513 268 506 q 253 524 258 515 q 242 541 247 532 q 232 558 236 550 q 228 568 228 567 q 225 575 228 572 q 219 607 222 582 q 222 645 218 631 q 240 682 225 660 q 278 728 256 706 q 328 769 301 750 q 385 801 356 788 q 440 822 414 815 m 526 757 q 499 754 504 757 q 492 750 497 751 q 482 746 488 749 q 471 742 476 744 q 463 738 465 740 q 452 731 460 735 q 438 724 444 726 q 419 715 429 721 q 399 703 408 710 q 383 692 390 697 q 374 683 375 686 q 363 675 371 681 q 347 663 357 672 q 325 644 336 654 q 304 623 314 633 q 290 606 294 613 q 277 581 281 593 q 275 558 274 568 q 290 538 278 550 q 304 526 300 526 q 324 536 308 526 q 335 544 328 539 q 350 554 343 549 q 399 588 367 565 q 465 637 432 610 q 523 691 497 664 q 553 739 549 718 q 551 753 556 750 q 526 757 546 757 m 401 363 q 392 380 400 368 q 372 404 383 392 q 350 426 361 417 q 335 435 339 435 q 325 429 331 435 q 314 422 319 426 q 306 417 308 418 q 296 410 297 411 q 267 388 292 410 q 213 340 242 367 q 158 290 183 314 q 128 261 133 267 q 41 161 69 203 q 7 88 13 119 q 7 75 6 78 q 15 69 8 72 q 61 60 33 60 q 106 64 81 60 q 179 85 142 67 q 244 124 217 103 q 272 147 256 132 q 303 176 288 161 q 331 203 318 190 q 347 224 343 217 q 356 235 350 229 q 365 247 361 242 q 399 310 378 263 q 401 363 411 339 z "},"9":{"ha":631,"x_min":-42,"x_max":608,"o":"m -26 40 q -32 49 -29 44 q -37 56 -35 53 q -42 67 -42 58 q -22 83 -42 72 q -5 93 -15 88 q 13 103 6 99 q 28 113 19 107 q 44 124 38 119 q 74 142 51 128 q 123 174 97 157 q 170 205 149 190 q 196 224 192 219 q 204 230 199 226 q 213 236 210 233 q 231 250 218 240 q 258 270 244 260 q 281 289 271 281 q 290 297 290 297 q 268 294 290 297 q 242 290 258 292 q 211 289 226 289 q 179 290 188 289 q 160 296 171 290 q 97 345 122 313 q 61 417 72 378 q 53 450 56 436 q 53 478 51 464 q 62 508 56 492 q 79 547 68 525 q 133 630 100 590 q 208 703 167 669 q 297 761 250 736 q 389 799 343 786 q 417 806 404 804 q 456 807 429 807 q 487 806 475 807 q 509 801 499 806 q 532 785 519 796 q 565 756 544 775 q 586 730 575 747 q 601 700 597 713 q 607 668 606 690 q 606 619 608 646 q 597 583 606 607 q 574 531 588 560 q 542 470 560 501 q 504 410 524 439 q 483 380 493 394 q 469 360 472 365 q 360 232 417 293 q 238 115 304 171 q 222 103 231 110 q 208 90 214 96 q 149 44 176 65 q 97 11 121 24 q 61 -4 76 -1 q 31 -1 46 -7 q -26 40 -12 13 m 231 376 q 407 451 313 396 q 433 466 422 460 q 446 472 444 472 l 465 486 q 484 506 475 494 q 504 538 493 518 q 555 642 542 599 q 554 706 568 685 q 540 716 551 711 q 513 723 528 721 q 482 725 497 725 q 456 722 467 725 q 442 718 450 719 q 428 715 435 717 q 413 712 421 714 q 399 707 404 710 q 383 699 393 704 q 363 692 372 694 q 342 681 353 688 q 325 672 332 675 q 273 629 300 654 q 221 576 246 604 q 176 519 196 549 q 143 464 156 490 q 125 388 117 411 q 133 375 128 378 q 157 369 138 372 q 191 368 175 367 q 231 376 207 369 z "},"":{"ha":732,"x_min":69,"x_max":663,"o":"m 663 972 l 663 0 l 69 0 l 69 972 l 663 972 m 365 515 l 624 944 l 108 944 l 365 515 m 635 65 l 635 906 l 383 486 l 635 65 m 99 903 l 99 68 l 349 486 l 99 903 m 110 29 l 624 29 l 367 457 l 110 29 z "},"\u0000":{"ha":0,"x_min":0,"x_max":0,"o":""},"\r":{"ha":0,"x_min":0,"x_max":0,"o":""}," ":{"ha":589,"x_min":0,"x_max":0,"o":""},"\n":{"ha":0,"x_min":0,"x_max":0,"o":""},"!":{"ha":617,"x_min":69,"x_max":621,"o":"m 613 883 q 601 813 621 854 q 592 794 597 804 q 581 775 586 785 q 571 758 575 765 q 564 747 567 750 q 556 736 563 746 q 543 713 550 726 q 516 666 532 693 q 485 615 500 639 q 477 603 482 611 q 469 589 472 596 q 458 570 465 582 q 444 547 451 558 q 430 524 438 536 q 419 504 422 511 q 408 483 417 497 q 389 456 399 469 q 366 416 381 442 q 340 367 351 390 q 310 309 321 326 q 297 293 300 292 l 275 301 q 258 310 267 304 q 244 318 249 315 q 226 334 236 324 q 211 353 215 344 q 232 443 199 375 q 242 463 235 449 q 256 491 249 476 q 271 518 264 506 q 282 535 278 531 q 283 536 282 536 q 283 538 283 536 q 285 539 283 538 q 290 547 286 540 q 299 561 294 553 q 319 595 314 586 q 331 611 325 604 q 346 633 336 617 q 356 651 356 649 q 359 657 356 653 q 367 667 363 661 q 378 683 378 681 q 387 699 378 685 q 422 754 396 714 q 449 797 435 775 q 471 833 463 818 q 507 900 490 869 q 526 940 524 931 q 539 953 532 954 q 558 945 546 953 q 581 926 569 938 q 601 903 592 915 q 613 883 610 892 m 194 246 q 229 224 210 239 q 254 201 249 210 q 257 183 257 194 q 254 167 257 172 q 249 156 253 164 q 242 138 246 147 q 227 110 236 128 q 207 76 218 92 q 168 1 168 11 q 160 -7 168 -4 q 151 -10 153 -10 q 135 -3 149 -10 q 123 5 128 1 q 115 10 118 8 q 108 14 111 14 q 90 26 104 14 q 74 46 76 39 q 69 72 69 54 q 74 99 69 89 q 84 117 76 103 q 101 147 92 132 q 122 183 111 163 q 140 218 133 204 q 156 244 151 240 q 167 251 160 249 q 194 246 178 253 z "},"\"":{"ha":506,"x_min":108,"x_max":451,"o":"m 253 867 q 263 842 261 850 q 265 818 265 835 q 260 777 265 800 q 245 733 256 754 q 219 697 235 713 q 185 676 204 681 q 158 681 174 674 q 119 724 131 693 q 121 788 108 756 q 143 822 126 803 q 172 847 160 842 q 185 856 185 850 q 179 868 185 860 q 172 879 172 875 q 168 885 172 881 q 157 897 164 890 q 144 911 147 907 q 142 922 142 915 q 149 941 142 932 q 163 950 156 950 q 188 940 174 950 q 215 917 201 931 q 238 890 228 904 q 253 867 249 875 m 451 818 q 447 777 451 797 q 435 742 443 757 q 371 676 407 685 q 344 681 361 674 q 306 724 317 693 q 307 788 294 756 q 331 822 314 803 q 360 847 347 842 q 372 856 372 850 q 365 868 372 861 q 360 879 360 876 q 356 885 360 881 q 344 897 351 890 q 331 911 333 907 q 329 922 329 915 q 335 941 329 932 q 349 950 342 950 q 374 939 358 950 q 428 888 406 921 q 451 818 451 854 z "},"#":{"ha":1103,"x_min":135,"x_max":986,"o":"m 886 638 q 957 619 933 636 q 981 550 981 601 q 976 521 981 528 q 961 517 972 514 q 937 519 956 518 q 897 523 918 521 q 855 526 875 525 q 825 528 835 528 q 789 525 797 528 q 772 508 781 522 q 765 495 768 501 q 758 486 761 489 q 749 469 756 482 q 743 456 743 457 q 763 454 751 456 q 784 454 772 454 q 810 453 796 454 q 854 451 838 453 q 880 448 871 450 q 894 442 889 446 q 906 431 900 438 q 924 368 925 407 q 919 343 922 349 q 904 343 915 338 q 876 347 899 346 q 790 347 854 347 q 708 345 732 346 q 682 342 685 344 q 664 314 678 338 q 630 253 650 290 q 585 169 610 215 q 538 75 561 124 q 511 22 521 42 q 495 -7 501 3 q 485 -20 489 -17 q 479 -24 482 -24 q 468 -19 475 -25 q 444 1 461 -14 q 410 46 418 26 q 402 63 404 56 q 401 77 400 69 q 406 96 401 85 q 418 124 410 107 q 423 136 421 131 q 425 143 425 142 q 428 150 425 147 q 433 158 429 151 q 440 171 436 164 q 458 204 443 178 q 489 261 472 231 q 517 314 506 292 q 528 336 529 336 q 514 336 521 336 q 498 336 507 336 q 478 335 489 336 q 439 331 449 332 q 426 326 429 329 q 418 313 425 324 q 403 290 411 303 q 388 267 394 276 q 382 256 382 257 q 372 240 382 253 q 363 224 368 233 q 353 208 357 215 q 346 195 350 201 q 340 186 342 189 q 334 176 338 183 q 326 161 331 169 q 318 144 322 153 q 311 132 314 135 q 304 118 304 122 q 294 97 304 114 q 283 75 290 90 q 271 46 276 60 q 260 21 264 31 q 254 10 256 11 q 238 9 250 7 q 213 18 226 11 q 164 67 179 35 q 158 111 154 90 q 181 172 161 132 q 199 209 188 188 q 221 246 211 231 q 240 278 231 261 q 256 306 250 296 l 268 329 l 240 331 q 203 338 222 332 q 169 355 185 344 q 144 381 154 365 q 135 418 135 397 q 135 431 135 425 q 139 440 136 438 q 147 443 142 443 q 172 440 151 443 q 265 435 200 435 q 303 435 290 435 q 324 436 317 435 q 333 440 331 438 q 340 446 336 442 q 350 460 344 450 q 361 480 356 469 q 371 499 367 490 q 375 510 375 507 q 365 513 375 513 q 326 511 354 513 q 274 511 292 510 q 231 519 256 513 q 196 535 215 522 q 171 556 176 547 q 160 583 164 567 q 158 614 157 599 q 176 639 160 639 q 207 632 183 639 q 235 625 221 626 q 278 621 249 624 q 331 619 299 619 q 388 618 363 618 l 447 619 l 465 650 q 480 676 472 663 q 490 696 488 689 q 499 711 493 703 q 508 726 504 719 q 516 741 511 733 q 524 754 521 749 q 533 772 526 760 q 547 796 540 785 q 553 808 550 803 q 558 817 556 813 q 564 825 561 821 q 571 839 564 826 q 589 869 578 851 q 621 924 613 907 q 632 958 629 942 q 638 976 635 974 q 658 974 640 981 q 689 958 675 968 q 715 934 708 944 q 725 904 722 924 q 726 892 726 896 q 726 883 726 888 q 722 872 725 878 q 715 854 719 865 q 670 762 694 810 q 626 682 646 714 q 616 664 621 672 q 610 653 611 656 q 600 638 606 649 q 596 628 593 631 q 611 626 596 626 q 644 626 626 626 q 678 627 663 626 q 697 629 694 628 q 706 636 700 629 q 718 653 711 643 q 731 674 724 663 q 742 690 738 685 q 750 705 744 697 q 758 719 756 713 q 769 739 761 725 q 786 767 778 753 q 801 795 793 782 q 813 815 810 808 q 820 828 815 821 q 828 842 825 836 q 834 852 831 846 q 839 863 838 858 q 846 874 842 867 q 853 888 850 881 q 881 942 869 918 q 894 972 893 965 q 901 985 897 981 q 914 987 906 989 q 932 978 922 985 q 951 963 942 972 q 967 944 961 954 q 980 917 974 933 q 986 890 986 900 q 978 866 986 883 q 959 828 969 849 q 938 790 949 808 q 921 764 926 772 q 911 747 918 760 q 896 721 904 735 q 881 695 888 706 q 875 683 875 685 q 872 676 875 682 q 863 663 868 669 q 851 642 851 647 q 863 640 853 640 q 886 638 872 639 m 625 497 q 634 514 631 507 q 636 522 638 521 q 626 524 636 524 q 602 524 615 524 q 574 523 589 524 q 551 521 560 522 q 532 508 539 519 q 524 494 529 504 q 512 474 518 485 q 501 453 506 463 q 496 443 496 444 q 557 444 496 440 q 578 447 571 446 q 590 450 586 449 q 597 453 594 451 q 603 460 599 456 q 613 474 613 469 q 617 481 614 476 q 620 488 618 483 q 625 497 622 493 z "},"$":{"ha":786,"x_min":133,"x_max":736,"o":"m 719 771 q 736 710 736 736 q 732 683 736 696 q 722 668 728 671 q 707 672 718 665 q 696 681 696 678 q 631 690 696 693 q 601 688 615 689 q 583 686 586 688 q 568 683 579 685 q 544 678 557 681 q 483 661 522 674 q 403 630 443 649 q 333 588 364 611 q 300 536 303 564 q 301 525 300 528 q 311 518 303 522 q 365 507 326 511 q 472 503 404 503 q 529 501 508 503 q 564 498 550 500 q 586 492 578 496 q 604 482 594 489 q 663 390 653 450 q 653 324 668 356 q 615 274 642 304 q 558 221 589 244 q 486 181 529 199 q 399 153 443 164 q 380 149 388 150 q 369 146 372 147 q 382 132 365 144 q 396 118 389 125 q 406 104 403 111 q 411 90 410 96 q 409 73 413 83 q 396 47 406 63 q 368 3 386 31 q 349 -31 357 -14 q 342 -51 342 -47 q 324 -64 342 -64 q 308 -57 315 -64 q 299 -50 306 -54 q 288 -43 293 -46 q 276 -35 282 -40 q 267 -28 269 -31 q 251 -5 258 -21 q 243 18 243 11 q 252 45 243 25 q 271 79 261 65 q 274 85 274 82 q 276 90 275 88 q 279 94 278 93 q 283 101 279 96 q 292 114 286 107 l 304 132 l 272 133 q 224 140 243 136 q 189 151 204 143 q 136 226 146 171 q 133 250 133 244 q 138 267 133 256 q 145 283 140 274 q 154 297 150 292 q 169 308 164 310 q 181 306 178 306 q 185 301 185 306 q 202 282 185 289 q 242 271 219 275 q 285 266 264 267 q 314 265 307 265 q 385 271 346 265 q 464 289 425 276 q 537 320 503 301 q 592 365 571 339 q 607 390 603 379 q 610 415 611 400 q 606 426 608 424 q 597 432 604 429 q 553 435 586 435 q 472 432 521 435 q 383 431 421 429 q 322 443 344 433 q 268 485 290 458 q 243 549 246 513 q 249 601 242 575 q 275 658 257 626 q 415 782 317 728 q 441 793 426 788 q 470 803 456 799 q 498 812 485 808 q 517 815 511 815 q 522 829 536 815 q 508 876 504 850 q 519 904 510 889 q 553 947 529 919 q 569 969 561 957 q 582 990 578 982 q 592 1006 589 1003 q 600 1010 594 1010 q 611 1007 608 1010 q 617 1002 613 1006 q 629 994 622 999 q 653 971 646 985 q 661 915 669 942 q 615 847 653 888 q 603 833 608 839 q 599 825 597 826 q 609 822 600 824 q 629 819 618 821 q 719 771 697 815 z "},"%":{"ha":783,"x_min":82,"x_max":682,"o":"m 179 674 q 162 754 157 715 q 199 846 167 793 q 208 861 203 853 q 215 874 213 869 q 220 883 218 879 q 226 891 222 886 q 238 903 231 896 q 257 924 244 911 q 317 975 290 958 q 374 999 344 992 q 392 1002 385 1001 q 408 1000 400 1003 q 436 990 421 997 q 465 974 451 983 q 487 951 478 964 q 496 922 496 938 q 492 903 496 917 q 484 874 489 889 q 474 848 479 860 q 465 833 468 836 q 462 828 464 832 q 457 821 460 825 q 433 786 449 801 q 375 711 407 747 q 356 690 368 703 q 336 668 344 678 q 300 637 321 650 q 256 624 279 624 q 211 637 229 624 q 179 674 193 650 m 676 919 q 682 903 682 907 q 679 886 682 899 q 672 866 678 879 q 660 842 667 853 q 649 822 653 831 q 644 813 644 814 q 636 799 644 810 q 627 788 632 794 q 619 775 622 781 q 613 762 617 768 q 606 751 608 756 q 599 739 599 742 q 586 721 599 736 q 576 706 581 714 q 569 694 572 699 q 557 671 563 679 q 543 653 551 663 q 533 638 533 640 q 528 629 531 633 q 522 619 525 625 q 514 607 518 614 q 499 585 506 594 q 493 575 493 576 q 492 571 492 574 q 485 563 490 568 q 474 545 482 558 q 457 517 465 532 q 427 467 443 492 q 398 419 411 442 q 376 381 385 397 q 364 361 367 365 q 355 344 361 354 q 342 325 349 335 q 336 316 339 321 q 331 308 333 311 q 326 301 328 304 q 320 290 326 300 q 303 265 314 281 q 287 240 293 251 q 281 228 281 229 q 276 219 281 226 q 265 204 272 213 q 255 187 260 194 q 249 176 250 179 q 243 169 246 174 q 238 160 240 165 q 224 138 226 143 q 215 122 221 132 q 207 108 211 108 q 192 85 204 108 q 178 63 182 63 q 175 60 175 63 q 172 53 175 58 q 167 40 169 47 q 154 10 157 25 q 150 -7 154 -3 q 144 -7 147 -7 q 138 -6 140 -7 q 110 15 129 -3 q 86 43 92 32 q 82 81 82 56 q 83 105 82 97 q 90 124 85 113 q 96 136 93 131 q 99 143 99 142 q 100 147 99 146 q 100 149 100 147 q 108 163 104 153 q 116 175 111 168 q 124 186 121 182 q 132 201 132 197 q 137 213 132 204 q 153 239 142 221 q 160 251 156 244 q 168 264 165 258 q 176 276 171 269 q 185 289 182 283 q 197 310 194 301 q 202 319 199 313 q 211 333 206 326 q 219 345 215 340 q 222 351 222 350 q 232 368 222 353 q 258 408 242 383 q 263 416 261 413 q 265 422 265 419 q 275 435 265 425 q 281 444 278 440 q 283 449 283 447 q 287 456 283 450 q 294 469 290 463 q 321 510 315 501 q 326 519 326 518 q 330 526 326 521 q 338 538 333 531 q 349 554 343 544 q 357 571 354 564 q 365 585 361 578 q 372 594 369 592 q 379 603 375 597 q 386 617 383 610 q 394 630 390 624 q 401 639 399 636 q 414 658 410 650 q 429 683 425 676 q 438 693 433 689 q 446 705 440 697 q 456 720 451 713 q 465 735 461 728 q 468 743 468 742 q 474 751 468 746 q 490 772 479 757 q 500 789 500 786 q 510 805 500 789 q 533 841 519 821 q 559 882 546 861 q 579 914 572 903 q 586 926 582 919 q 593 938 590 933 q 600 949 596 943 q 607 957 604 954 q 612 963 610 960 q 615 969 614 967 q 624 975 618 975 q 635 969 628 975 q 650 956 642 964 q 665 938 658 947 q 676 919 672 928 m 219 710 q 220 703 218 704 q 233 704 222 703 q 285 728 257 707 q 338 778 313 750 q 385 835 364 806 q 418 882 407 864 q 438 919 433 908 q 432 931 442 931 q 378 907 411 931 q 313 851 346 883 q 256 783 281 818 q 225 728 231 749 q 222 718 224 724 q 219 710 221 713 m 560 392 q 597 379 579 393 q 628 342 615 365 q 635 324 633 331 q 635 297 636 317 q 619 228 633 268 q 583 147 604 188 q 536 72 561 107 q 488 18 511 38 q 455 -2 468 3 q 419 -8 442 -7 q 396 -8 404 -8 q 381 -3 388 -7 q 351 17 367 4 q 331 40 335 31 q 314 97 319 63 q 313 157 308 132 q 337 214 319 183 q 378 274 354 244 q 429 326 401 303 q 482 363 457 350 q 497 372 490 368 q 504 379 504 376 q 515 383 508 383 q 535 388 525 383 q 546 391 539 390 q 560 392 553 392 m 583 286 q 589 305 589 300 q 583 317 589 310 q 578 321 581 321 q 564 314 575 321 q 528 290 547 306 q 490 258 508 275 q 454 222 471 240 q 426 186 438 203 q 403 145 414 167 q 387 105 393 124 q 379 72 381 86 q 383 54 378 58 q 393 53 388 51 q 414 61 399 54 q 433 78 418 64 q 465 108 449 92 q 497 142 482 125 q 517 164 513 158 q 555 226 538 194 q 583 286 572 258 z "},"&":{"ha":929,"x_min":71,"x_max":857,"o":"m 857 392 q 835 386 856 388 q 799 376 818 383 q 750 349 779 368 q 737 340 743 343 q 729 336 731 336 q 718 329 725 336 q 710 322 715 326 q 700 315 704 318 q 682 303 693 311 q 642 272 671 296 q 631 264 639 269 q 617 253 624 258 q 601 240 610 247 q 586 229 593 233 q 558 199 558 207 q 562 184 558 194 q 571 160 565 174 q 583 135 576 147 q 594 114 589 122 q 603 101 597 108 q 611 90 608 94 q 622 82 618 83 q 639 81 626 81 q 653 80 650 81 q 660 74 657 79 q 625 29 669 56 q 581 6 597 13 q 542 0 564 0 q 479 25 501 0 q 443 83 457 50 q 434 99 436 97 q 422 96 432 100 q 340 38 382 65 q 250 -6 299 11 q 228 -10 242 -8 q 201 -14 215 -12 q 174 -15 188 -15 q 151 -12 160 -14 q 90 33 110 -3 q 71 108 71 68 q 90 188 71 149 q 132 258 110 226 q 159 290 140 269 q 203 337 178 311 q 260 392 229 363 q 324 451 292 422 q 370 494 350 475 q 393 515 390 513 q 403 538 401 524 q 460 747 414 647 q 592 918 506 846 q 631 946 613 935 q 674 965 650 957 q 695 972 686 971 q 719 974 704 974 q 744 972 736 974 q 765 964 751 971 q 801 935 789 951 q 814 890 814 919 q 806 852 814 878 q 788 804 799 826 q 726 719 765 758 q 647 647 686 679 q 624 626 635 635 q 602 608 615 619 q 576 586 589 597 q 551 565 563 575 q 536 550 540 554 q 524 536 526 540 q 522 518 522 532 q 523 481 522 511 q 526 418 524 451 q 529 358 528 385 q 532 332 531 332 q 540 338 532 331 q 560 356 549 344 q 599 392 575 371 q 649 431 622 413 q 704 464 676 450 q 756 478 732 478 q 782 472 771 478 q 801 459 789 469 q 826 436 814 449 q 848 411 839 424 q 857 392 857 399 m 551 729 q 545 708 549 721 q 539 683 542 696 q 535 660 536 671 q 533 643 533 649 q 539 639 533 635 q 553 651 542 640 q 579 676 564 661 q 612 710 594 692 q 644 744 629 728 q 671 773 660 761 q 685 789 682 785 q 749 878 729 849 q 763 914 768 908 q 742 918 758 918 q 723 919 729 921 q 704 911 717 918 q 644 867 676 897 q 594 810 613 838 q 567 767 576 785 q 551 729 558 749 m 400 203 q 407 212 407 208 q 404 233 407 215 q 401 272 403 244 q 400 329 400 300 q 400 380 400 358 q 399 403 400 401 q 388 392 399 403 q 364 367 378 382 q 337 338 350 353 q 318 317 324 324 q 307 302 314 311 q 293 286 300 293 q 278 269 286 279 q 267 251 271 258 q 258 240 263 244 q 253 233 254 235 q 238 213 250 231 q 214 172 226 194 q 189 112 197 142 q 186 75 181 82 q 211 72 190 69 q 246 82 232 75 q 303 122 268 96 q 375 181 339 149 q 400 203 392 197 z "},"'":{"ha":367,"x_min":122,"x_max":279,"o":"m 279 818 q 274 777 279 800 q 259 733 269 754 q 233 697 249 713 q 199 676 218 681 q 172 681 188 674 q 133 724 144 693 q 135 788 122 756 q 157 822 140 803 q 186 847 174 842 q 199 856 199 850 q 193 868 199 860 q 186 879 186 875 q 182 885 186 881 q 171 897 178 890 q 158 911 161 907 q 156 922 156 915 q 163 941 156 932 q 176 950 169 950 q 201 939 183 950 q 255 888 231 922 q 279 818 279 854 z "},"(":{"ha":507,"x_min":146,"x_max":771,"o":"m 760 961 q 768 947 771 953 q 747 933 765 940 q 666 869 714 917 q 569 764 618 822 q 476 648 519 706 q 407 553 432 590 q 388 525 396 538 q 376 508 379 513 q 368 495 374 504 q 357 478 363 486 q 347 458 353 468 q 338 443 340 449 q 319 412 329 432 q 299 369 310 392 q 280 321 289 346 q 264 275 271 296 q 243 190 249 226 q 238 107 238 154 q 238 60 238 72 q 244 32 239 47 q 252 1 251 11 q 246 -15 253 -8 q 239 -19 242 -19 q 225 -14 236 -19 q 174 50 193 1 q 149 178 154 99 q 148 254 146 221 q 160 329 150 288 q 170 365 167 353 q 185 400 174 376 q 190 414 188 407 q 194 424 193 421 q 202 444 197 431 q 214 470 207 457 q 227 495 221 483 q 238 511 233 507 q 245 522 240 514 q 253 536 250 529 q 267 560 257 544 q 288 593 276 576 q 310 626 299 610 q 329 651 321 642 q 346 671 338 661 q 358 686 354 681 q 394 727 374 706 q 425 757 414 749 q 461 789 438 768 q 508 832 485 810 q 526 847 517 839 q 542 860 536 856 q 559 872 549 864 q 579 888 569 881 q 610 909 589 896 q 656 936 632 922 q 701 960 679 950 q 735 969 724 969 q 760 961 750 969 z "},")":{"ha":589,"x_min":-68,"x_max":557,"o":"m 554 772 q 555 696 557 729 q 543 621 553 663 q 533 585 538 597 q 518 550 529 574 q 497 492 508 522 q 467 439 485 463 q 458 428 463 436 q 450 414 453 421 q 431 379 443 400 q 403 337 418 358 q 372 296 388 315 q 344 264 357 276 q 310 224 329 244 q 279 193 290 203 q 242 163 267 183 q 194 118 218 142 q 177 103 186 111 q 161 90 168 94 q 145 78 156 86 q 124 63 135 69 q 93 41 114 54 q 49 14 72 28 q 3 -10 25 0 q -31 -19 -19 -19 q -57 -11 -47 -19 q -65 3 -68 -3 q -43 17 -62 10 q 37 81 -14 32 q 146 201 88 131 q 162 221 150 207 q 186 250 174 235 q 218 289 204 271 q 244 324 232 307 q 269 358 257 340 q 297 397 282 375 q 316 425 307 413 q 328 442 325 438 q 346 472 336 453 q 357 492 351 482 q 367 507 363 501 q 385 538 375 518 q 405 581 394 558 q 424 629 415 604 q 440 675 433 654 q 460 760 456 724 q 465 843 465 796 q 465 890 467 878 q 458 918 464 903 q 451 949 451 939 q 458 965 451 958 q 465 969 463 969 q 479 964 468 969 q 530 900 511 949 q 554 772 549 851 z "},"*":{"ha":806,"x_min":122,"x_max":715,"o":"m 700 760 q 693 708 715 746 q 675 682 685 692 q 653 666 665 672 q 622 658 640 660 q 578 656 604 656 q 538 654 539 657 q 560 628 536 651 q 593 578 588 600 q 588 532 599 557 q 576 511 581 517 q 563 501 572 506 q 540 503 540 490 q 535 514 540 506 q 524 532 531 522 q 510 551 518 542 q 499 565 503 561 q 485 580 496 568 q 464 606 475 592 q 435 642 443 631 q 419 653 426 653 q 409 647 414 653 q 393 632 404 642 q 370 608 382 621 q 351 589 358 596 q 340 576 346 582 q 332 567 335 569 q 321 556 328 564 q 306 537 314 547 q 292 517 299 526 q 282 501 285 507 q 271 486 275 486 q 265 488 268 486 q 258 493 263 490 q 231 543 238 513 q 229 561 228 556 q 236 578 231 567 q 278 631 243 596 q 302 655 293 644 q 311 667 311 665 q 301 667 311 668 q 254 663 292 665 q 195 655 222 660 q 153 646 168 650 q 131 644 139 640 q 124 651 125 647 q 125 669 122 654 q 126 685 125 679 q 131 697 128 692 q 138 710 133 703 q 151 726 143 717 q 165 742 160 736 q 182 749 171 747 q 212 752 193 751 q 264 753 231 753 q 319 753 296 753 q 343 754 342 753 q 341 760 344 754 q 332 775 338 767 q 321 790 326 783 q 313 800 315 797 q 299 821 308 804 q 286 889 278 851 q 314 942 292 925 q 329 949 325 949 q 351 919 339 949 q 363 894 354 910 q 381 865 372 878 q 399 835 389 851 q 417 807 410 818 q 429 788 424 796 q 436 781 435 781 q 447 790 442 785 q 461 801 454 796 q 475 814 468 807 q 504 842 489 826 q 533 873 519 858 q 558 901 547 888 q 572 921 568 914 q 603 921 583 944 q 626 879 621 901 q 625 843 632 857 q 616 831 624 839 q 597 812 608 822 q 574 790 586 801 q 550 769 561 778 q 537 758 543 763 q 531 751 531 753 q 540 750 531 750 q 562 753 544 751 q 599 756 579 754 q 639 758 618 757 q 671 763 660 760 q 691 765 686 765 q 700 760 696 764 z "},"+":{"ha":832,"x_min":133,"x_max":732,"o":"m 717 547 q 719 501 732 539 q 699 464 713 482 q 674 439 686 446 q 638 429 660 431 q 556 431 615 428 q 504 434 526 433 q 479 433 482 435 q 465 415 476 432 q 440 373 454 399 q 408 316 425 347 q 376 256 392 285 q 349 202 361 226 q 333 165 338 178 q 322 141 326 146 q 306 139 317 136 q 285 149 296 142 q 267 163 274 156 q 251 188 258 171 q 244 204 246 199 q 246 224 243 210 q 251 249 247 238 q 267 286 254 260 q 285 322 275 304 q 300 350 294 340 q 315 376 307 361 q 329 406 322 392 q 341 430 336 419 q 346 442 346 440 q 275 443 346 446 q 233 442 249 443 q 208 440 218 442 q 192 437 199 439 q 175 431 186 435 q 156 422 164 425 q 144 419 147 419 q 133 446 133 419 q 143 484 133 467 q 168 515 153 501 q 202 538 183 529 q 239 550 221 546 q 272 554 253 553 q 336 554 292 556 l 411 553 l 439 606 q 470 666 454 635 q 499 725 486 697 q 522 774 513 753 q 533 803 532 794 q 550 817 538 817 q 572 808 560 817 q 595 785 585 799 q 613 758 606 772 q 621 735 621 744 q 571 619 621 701 q 560 600 564 608 q 556 590 556 592 q 552 583 556 589 q 543 567 549 576 q 534 551 538 558 q 532 543 531 544 q 549 541 533 542 q 585 539 564 540 q 626 538 606 538 q 658 538 647 538 q 683 540 674 538 q 699 544 692 542 q 717 547 708 551 z "},",":{"ha":213,"x_min":-35,"x_max":189,"o":"m 164 156 q 183 140 178 149 q 188 114 188 132 q 184 73 189 93 q 169 32 179 53 q 156 7 164 21 q 141 -19 149 -7 q 127 -39 133 -31 q 119 -47 121 -47 q 115 -51 115 -47 q 110 -59 115 -53 q 98 -73 106 -65 q 82 -90 90 -81 q 67 -104 74 -99 q 53 -112 61 -107 q 38 -122 44 -118 q 6 -131 21 -131 q -14 -125 -7 -131 q -29 -109 -24 -121 q -32 -90 -35 -97 q -22 -79 -29 -83 q -8 -75 -15 -75 q 13 -67 -1 -75 q 41 -49 26 -60 q 66 -28 56 -39 q 76 -12 76 -18 q 64 1 76 -8 q 31 33 39 21 q 24 64 24 44 q 53 125 24 97 q 125 160 83 153 q 147 163 142 163 q 164 156 153 163 z "},"-":{"ha":742,"x_min":131,"x_max":615,"o":"m 593 506 q 613 506 610 507 q 613 497 615 504 q 592 452 608 478 q 560 417 575 426 q 519 405 544 407 q 442 406 494 403 q 411 406 429 406 q 372 408 393 407 q 326 410 350 410 q 282 411 303 411 q 225 412 246 411 q 192 412 204 413 q 175 410 181 411 q 163 406 169 408 q 140 399 146 399 q 132 404 133 399 q 136 438 131 424 q 160 471 142 451 q 213 504 185 497 q 242 508 221 507 q 290 509 263 508 q 350 509 318 510 q 415 507 382 508 q 527 503 485 503 q 593 506 569 503 z "},".":{"ha":219,"x_min":22,"x_max":207,"o":"m 175 147 q 189 72 207 107 q 183 61 186 67 q 178 53 181 56 q 137 1 163 24 q 93 -22 111 -22 q 83 -20 90 -22 q 69 -14 76 -18 q 47 3 58 -8 q 29 25 36 14 q 24 49 25 33 q 25 76 22 65 q 42 106 29 89 q 69 137 54 122 q 102 162 85 151 q 132 172 119 172 q 155 165 142 172 q 175 147 168 157 z "},"/":{"ha":640,"x_min":69,"x_max":669,"o":"m 650 938 q 663 917 657 931 q 669 896 669 903 q 653 847 669 882 q 615 774 638 811 q 594 736 608 761 q 568 692 579 711 q 560 676 565 686 q 550 658 554 667 q 515 600 538 639 q 469 521 493 561 q 448 484 463 508 q 421 438 433 460 q 401 401 410 417 q 392 383 392 385 q 386 374 392 379 q 378 363 383 371 q 368 344 372 354 q 351 315 358 328 q 338 292 344 303 q 325 270 332 281 q 308 244 318 260 q 289 213 297 228 q 278 194 281 199 q 269 181 275 186 q 264 173 268 179 q 257 160 260 167 q 243 135 253 153 q 222 100 233 118 q 194 51 206 71 q 177 15 183 31 q 169 -11 171 0 q 167 -35 167 -22 q 161 -51 167 -46 q 151 -56 157 -56 q 139 -53 144 -57 q 129 -48 136 -51 q 115 -42 122 -44 q 86 -19 97 -35 q 76 -4 76 -7 q 74 0 76 -3 q 69 29 69 3 q 71 55 69 47 q 79 75 72 63 q 87 91 83 82 q 93 104 90 100 q 100 119 96 115 q 110 136 106 125 q 118 154 113 143 q 130 176 124 165 q 142 197 136 188 q 149 210 147 207 q 172 248 164 235 q 186 275 179 261 q 194 290 190 283 q 203 306 197 296 q 220 333 210 317 q 247 376 231 349 q 264 403 257 392 q 271 417 271 415 l 278 428 q 284 440 281 433 q 292 453 288 446 q 306 478 300 468 q 311 490 311 489 q 317 501 311 492 q 331 521 322 510 q 348 549 339 533 q 363 574 357 564 q 399 642 381 608 q 440 707 418 675 q 451 722 446 714 q 460 736 457 731 q 467 749 463 743 q 474 760 471 756 q 481 770 476 764 q 488 783 485 776 q 509 822 497 801 q 524 844 521 842 q 536 863 526 844 q 546 878 540 869 q 554 890 551 886 q 572 923 561 903 q 590 957 583 943 q 598 971 596 968 q 607 974 600 974 q 629 960 617 974 q 642 947 636 953 q 650 938 647 940 z "},":":{"ha":403,"x_min":65,"x_max":382,"o":"m 306 635 q 354 613 332 635 q 379 561 376 590 q 368 508 382 539 q 329 450 354 478 q 298 422 308 428 q 268 418 288 417 q 255 424 261 419 q 236 440 249 428 q 208 474 215 460 q 201 511 201 489 q 211 549 201 528 q 236 589 221 569 q 269 622 251 608 q 306 635 288 635 m 211 278 q 239 232 229 265 q 226 149 254 185 q 217 136 221 142 q 214 129 214 131 q 208 122 214 128 q 195 108 203 115 q 179 94 188 100 q 165 85 171 88 q 147 77 150 78 q 133 79 143 76 q 111 91 124 82 q 92 110 99 100 q 83 126 88 115 q 74 147 78 136 q 67 169 69 158 q 67 186 65 181 q 80 210 69 196 q 114 249 90 224 q 149 279 135 272 q 182 286 163 286 q 211 278 201 286 z "},";":{"ha":421,"x_min":35,"x_max":403,"o":"m 393 565 q 401 549 400 554 q 403 525 403 543 q 399 501 401 508 q 389 481 397 494 q 346 431 372 453 q 303 410 319 410 q 293 411 299 410 q 285 414 288 413 q 266 428 276 418 q 247 451 256 439 q 231 478 238 464 q 224 501 224 492 q 239 541 224 517 q 274 585 254 565 q 301 605 286 596 q 324 614 317 614 q 344 607 331 614 q 393 565 372 596 m 199 286 q 242 265 219 283 q 264 224 264 247 q 253 178 264 203 q 213 110 242 153 q 192 85 207 101 q 162 53 178 69 q 132 24 146 38 q 111 7 118 11 q 86 0 97 0 q 64 6 74 0 q 42 28 49 13 q 43 51 35 44 q 54 56 46 56 q 71 62 60 56 q 94 76 82 68 q 114 92 106 83 q 122 104 122 100 q 115 128 122 108 q 100 161 107 149 q 93 178 94 171 q 90 197 92 186 q 97 227 90 214 q 119 257 103 240 q 156 283 139 276 q 199 286 174 289 z "},"<":{"ha":721,"x_min":132,"x_max":579,"o":"m 572 797 q 575 752 579 776 q 557 708 571 728 q 541 689 553 701 q 515 662 529 676 q 485 634 500 647 q 461 614 471 621 q 449 603 454 608 q 442 597 443 599 q 433 591 439 596 q 419 579 426 586 q 397 561 413 574 q 365 538 381 549 q 340 516 350 525 q 328 504 329 507 q 322 500 324 500 q 306 489 317 500 q 286 468 282 472 q 320 433 300 454 q 362 390 340 411 q 403 349 383 368 q 432 321 422 331 q 469 285 456 300 q 489 257 482 271 q 498 227 496 243 q 500 188 500 211 q 499 156 500 161 q 493 146 499 150 q 485 140 486 140 q 478 142 483 139 q 450 163 472 143 q 402 206 428 182 q 353 251 376 229 q 324 279 331 274 q 240 362 271 332 q 182 411 208 392 q 135 460 140 443 q 136 478 132 467 q 150 500 140 490 q 229 569 183 531 q 314 633 275 607 q 328 646 319 639 q 344 657 338 653 q 392 694 363 671 q 451 741 422 717 q 503 785 481 765 q 532 810 526 804 q 551 824 543 824 q 572 797 564 824 z "},"=":{"ha":964,"x_min":132,"x_max":842,"o":"m 835 683 q 833 654 842 672 q 796 608 824 636 q 774 587 782 594 q 744 576 765 579 q 678 573 722 574 q 547 572 633 572 q 406 571 461 572 q 319 567 351 569 q 271 562 286 565 q 247 551 256 558 q 236 546 240 546 q 225 549 232 546 q 217 581 207 560 q 239 619 228 600 q 265 653 250 638 q 288 672 278 665 q 330 681 299 678 q 423 683 361 683 q 600 681 485 682 q 706 679 668 679 q 763 679 743 679 q 788 681 782 679 q 800 683 794 682 q 822 690 815 690 q 835 683 829 690 m 733 442 q 753 438 744 443 q 761 424 761 432 q 758 410 761 418 q 744 382 756 403 q 723 356 739 374 q 693 328 707 339 q 676 320 688 324 q 647 315 665 317 q 598 314 628 314 q 524 315 568 314 q 196 308 218 324 q 189 306 193 307 q 181 301 185 304 q 169 298 175 300 q 161 293 164 296 q 138 299 149 286 q 134 313 132 307 q 153 346 136 319 q 208 410 182 389 q 219 417 215 414 q 228 421 222 419 q 245 424 235 422 q 274 426 256 425 q 322 430 293 429 q 372 429 351 431 q 476 428 419 429 q 581 428 532 428 q 663 428 629 428 q 701 431 697 429 q 718 436 713 431 q 733 442 725 440 z "},">":{"ha":714,"x_min":128,"x_max":604,"o":"m 588 513 q 601 492 597 503 q 600 475 604 482 q 590 461 596 468 q 581 454 583 454 q 567 446 579 454 q 540 426 556 438 q 508 401 525 414 q 479 379 490 389 q 463 367 469 372 q 454 361 456 361 q 440 351 453 361 q 429 342 436 347 q 417 333 422 336 q 404 326 413 332 q 386 313 396 319 q 369 301 376 307 q 357 292 361 294 q 353 289 356 290 q 349 285 351 288 q 339 277 347 283 q 321 263 331 271 q 261 215 289 240 q 206 164 233 190 q 173 133 188 146 q 156 121 158 121 q 146 125 150 121 q 131 145 135 131 q 128 169 128 160 q 131 204 128 186 q 138 233 133 222 q 151 256 142 242 q 175 284 161 269 q 206 315 189 299 q 240 343 224 331 q 268 365 253 353 q 293 383 283 376 q 349 426 321 406 q 406 468 378 447 q 434 492 429 488 q 435 500 439 497 q 371 548 413 517 q 287 615 329 579 q 210 688 244 651 q 165 753 175 725 q 163 786 163 764 q 165 802 163 792 q 170 823 167 813 q 178 841 174 833 q 190 849 183 849 q 221 826 199 849 q 247 802 232 817 q 278 774 263 788 q 306 748 293 760 q 324 731 318 736 q 334 722 329 726 q 342 715 339 718 q 494 588 417 654 q 513 573 500 583 q 540 551 526 563 q 569 529 556 540 q 588 513 582 518 z "},"?":{"ha":921,"x_min":57,"x_max":904,"o":"m 879 865 q 899 795 894 833 q 897 728 904 757 q 881 683 892 708 q 860 642 871 657 q 816 589 842 614 q 762 541 790 564 q 703 499 733 518 q 644 463 672 479 q 628 454 642 461 q 599 438 615 447 q 563 419 583 429 q 529 401 542 408 q 492 382 507 390 q 449 356 476 374 q 425 342 431 342 q 410 331 421 342 q 398 322 404 326 q 388 315 392 318 q 370 303 382 313 q 347 283 358 294 q 326 260 336 271 q 313 242 317 249 q 304 228 310 239 q 289 215 299 217 q 281 217 283 215 q 272 229 278 219 q 257 258 261 247 q 254 288 253 269 q 293 367 258 335 q 331 397 304 378 q 379 429 357 415 q 397 439 383 432 q 426 453 411 446 q 451 467 440 461 q 464 474 463 474 q 482 486 467 474 q 494 495 489 492 q 501 499 500 499 q 521 509 503 499 q 565 535 539 519 q 623 575 594 554 q 679 617 651 596 q 721 656 696 629 q 769 713 746 682 q 810 776 793 744 q 828 831 828 808 q 808 872 828 853 q 777 890 799 881 q 736 903 756 899 q 678 903 713 908 q 621 886 644 897 q 610 880 617 885 q 595 870 603 875 q 581 861 588 865 q 571 854 574 857 q 534 819 551 842 q 506 776 517 796 q 471 656 474 704 q 470 635 471 644 q 467 625 469 626 q 449 620 464 621 q 419 622 435 619 q 370 643 392 628 q 342 678 349 658 q 338 697 339 688 q 338 726 338 707 q 361 819 340 775 q 416 897 382 863 q 493 954 450 931 q 582 986 536 978 q 635 990 600 990 q 693 988 669 990 q 744 976 714 985 q 794 956 774 967 q 843 916 818 942 q 879 865 868 890 m 185 211 q 196 207 189 211 q 210 195 203 203 q 225 180 218 188 q 235 165 232 172 q 242 136 242 151 q 231 100 242 117 q 188 53 219 83 q 159 24 172 38 q 143 6 146 10 q 113 1 132 -10 q 89 21 104 6 q 76 100 57 57 q 96 125 79 107 q 131 162 113 143 q 166 196 150 181 q 185 211 182 211 z "},"@":{"ha":1022,"x_min":132,"x_max":1000,"o":"m 994 797 q 999 755 999 778 q 997 710 1000 732 q 986 667 993 688 q 969 629 979 646 q 963 619 967 628 q 951 600 958 611 q 924 560 938 579 q 894 521 910 540 q 870 494 892 517 q 824 448 849 472 q 778 403 799 424 q 756 383 757 383 q 750 380 754 383 q 740 372 746 376 q 721 357 728 364 q 713 351 718 354 q 704 344 708 347 q 676 326 693 338 q 646 308 660 315 q 615 296 635 301 q 585 290 594 290 q 561 299 576 290 q 539 317 546 308 q 533 329 535 324 q 532 350 532 335 q 533 372 532 361 q 535 386 533 382 q 533 392 536 394 q 506 365 529 389 q 453 320 479 339 q 410 296 426 301 q 383 296 394 293 q 346 372 342 311 q 395 514 354 447 q 489 629 436 581 q 549 666 517 654 q 604 669 582 678 q 623 656 611 667 q 642 633 635 644 q 647 624 644 631 q 650 611 649 617 q 655 602 653 600 q 672 624 657 604 q 696 655 690 649 q 707 661 701 661 q 717 656 711 661 q 734 632 726 644 q 744 617 742 619 q 740 604 746 614 q 718 574 733 594 q 697 544 707 558 q 685 525 688 529 q 676 514 682 521 q 667 501 671 507 q 654 484 663 496 q 638 459 646 472 q 624 434 631 446 q 614 415 617 422 q 606 401 611 411 q 596 382 601 392 q 582 342 585 360 q 584 328 582 331 q 597 326 586 326 q 631 339 613 328 q 645 349 638 344 q 656 356 653 353 q 692 387 676 372 q 717 413 707 401 q 728 426 724 419 q 735 433 733 432 q 742 442 736 435 q 756 458 749 450 q 769 475 763 467 q 778 486 775 483 q 788 500 781 489 q 804 524 794 511 q 822 549 814 536 q 832 565 829 561 q 842 582 835 569 q 856 607 849 594 q 910 718 896 676 q 922 803 925 760 q 914 839 921 819 q 895 875 907 858 q 868 903 883 892 q 833 914 853 914 q 773 904 807 914 q 706 879 739 894 q 642 846 672 864 q 589 810 611 828 q 578 803 583 807 q 569 796 572 799 q 532 766 556 786 q 484 722 508 746 q 439 675 460 699 q 407 636 418 651 q 397 622 404 633 q 383 600 390 611 q 339 528 363 567 q 294 451 315 490 q 256 371 274 411 q 226 293 238 331 q 222 278 224 285 q 218 271 221 272 q 217 267 217 269 q 217 261 217 264 q 215 251 217 258 q 211 236 214 243 q 207 215 208 229 q 204 189 206 200 q 206 153 203 163 q 226 128 210 143 q 300 96 251 104 q 322 94 313 93 q 349 97 331 94 q 501 157 421 111 q 523 169 514 164 q 533 174 532 174 q 544 178 535 174 q 564 191 553 183 q 587 206 575 199 q 604 218 599 214 q 635 244 614 226 q 681 282 657 263 q 699 299 689 289 q 720 320 710 310 q 740 340 731 331 q 753 354 749 349 q 774 371 765 371 q 788 364 778 371 q 786 319 807 351 q 756 278 771 299 q 729 246 740 257 q 631 143 686 189 q 606 122 619 133 q 586 104 593 111 q 571 90 579 97 q 558 81 563 83 q 488 39 525 57 q 411 13 451 21 q 335 11 382 7 q 289 23 314 14 q 241 46 264 32 q 199 77 218 60 q 169 114 181 94 q 160 125 163 126 q 158 128 156 124 q 157 142 160 132 q 151 150 154 153 q 149 160 150 154 q 145 170 146 164 q 142 183 144 176 q 133 219 135 206 q 132 256 132 232 q 175 469 132 367 q 201 533 183 497 q 235 593 218 569 q 247 613 240 603 q 256 626 253 622 q 471 851 339 760 q 487 863 479 858 q 496 869 494 867 q 524 888 503 876 q 567 910 544 899 q 611 931 590 922 q 638 939 632 939 q 660 946 646 939 q 686 953 668 950 q 725 959 704 957 q 767 962 746 961 q 803 960 788 963 q 894 928 853 953 q 967 864 935 903 q 981 837 974 856 q 994 797 989 818 m 482 414 q 503 434 486 417 q 540 472 521 451 q 577 510 560 492 q 599 535 594 529 q 610 551 608 546 q 611 579 611 557 q 610 605 611 601 q 603 608 610 608 q 556 583 583 608 q 502 524 528 558 q 456 456 476 490 q 429 404 435 422 q 426 394 428 400 q 422 383 425 388 q 424 369 418 368 q 454 392 431 371 q 472 405 464 399 q 482 414 479 411 z "},"A":{"ha":879,"x_min":-1,"x_max":1143,"o":"m -1 75 q 7 85 -1 83 q 60 101 35 92 q 108 129 86 110 q 124 141 115 135 q 139 150 133 147 q 183 185 164 168 q 194 196 188 190 q 204 204 200 201 q 216 217 211 210 q 221 226 221 224 q 208 229 221 229 q 179 235 196 229 q 151 250 163 242 q 133 274 139 261 q 129 306 128 286 q 142 336 129 336 q 154 329 147 336 q 197 314 168 319 q 269 308 225 308 q 303 310 297 308 q 319 319 310 311 q 340 338 331 329 q 371 372 349 347 q 406 411 386 389 q 444 455 425 433 q 482 496 464 476 q 510 526 500 515 q 533 552 522 540 q 547 569 544 564 q 580 608 558 583 q 628 662 601 633 q 685 721 656 690 q 740 778 714 751 q 785 822 765 804 q 811 846 804 840 q 822 853 815 849 q 836 865 829 858 q 851 877 839 868 q 865 888 863 886 q 876 898 868 892 q 894 910 885 904 q 910 922 903 917 q 921 926 918 926 q 931 933 926 929 q 925 937 933 936 q 889 940 917 938 q 840 942 871 942 q 785 942 810 942 q 731 940 749 942 q 696 935 714 939 q 671 929 683 932 q 653 925 658 926 q 631 919 646 924 q 601 910 617 915 q 569 899 586 904 q 542 890 551 893 q 525 876 500 876 q 585 851 556 876 q 608 824 603 836 q 614 790 614 811 q 611 766 613 776 q 603 739 610 756 q 569 678 593 713 q 517 610 546 644 q 456 547 488 576 q 401 500 425 517 q 379 484 390 493 q 361 469 368 475 q 349 460 354 464 q 342 457 343 457 q 336 453 339 456 q 325 444 331 450 q 267 411 301 428 q 203 394 232 394 q 160 406 179 394 q 125 438 140 418 q 106 494 110 457 q 108 567 101 531 q 112 585 110 575 q 117 601 114 596 q 135 651 125 625 q 146 681 144 678 q 151 690 147 682 q 160 708 154 697 q 183 753 167 728 q 211 792 200 779 q 227 814 215 800 q 253 842 239 828 q 282 867 268 856 q 304 885 296 879 q 420 947 356 924 q 560 978 485 971 q 622 981 578 981 q 749 978 667 981 q 811 977 781 978 q 867 976 842 976 q 910 974 892 975 q 933 974 928 974 q 976 972 953 972 q 1019 972 999 972 q 1056 972 1040 972 q 1074 974 1071 972 q 1083 972 1081 976 q 1090 968 1083 968 q 1108 960 1099 968 q 1126 940 1118 951 q 1138 917 1133 929 q 1143 897 1143 906 q 1126 872 1143 892 q 1084 820 1106 847 q 1056 785 1063 793 q 1048 774 1053 782 q 1036 760 1043 767 q 1022 744 1029 753 q 1013 731 1015 735 q 983 691 999 713 q 960 658 968 669 q 944 639 951 646 q 939 632 939 633 q 936 626 939 631 q 931 617 933 622 q 921 600 921 604 q 908 581 921 596 q 894 559 904 575 q 871 526 883 543 q 849 492 858 508 q 838 471 839 476 q 834 464 836 468 q 829 456 832 460 q 801 411 814 432 q 786 386 789 390 q 783 378 786 383 q 776 368 779 372 q 768 356 774 365 q 757 340 763 347 q 747 321 753 332 q 736 303 740 310 q 726 284 732 296 q 714 263 719 272 q 703 242 708 253 q 693 225 697 232 q 687 213 690 219 q 681 201 683 206 q 663 167 675 188 q 653 149 657 157 q 650 139 650 142 q 647 129 650 138 q 638 111 643 121 q 613 24 613 61 q 611 4 613 7 q 603 1 610 1 q 565 16 589 3 q 528 44 540 29 q 518 58 524 49 q 510 76 513 67 q 502 99 503 93 q 504 122 501 104 q 515 163 507 139 q 526 193 522 188 q 531 204 528 194 q 540 222 533 214 q 546 238 550 233 q 528 239 544 239 q 460 238 511 239 q 433 235 443 236 q 418 233 424 235 q 408 228 413 231 q 399 218 404 225 q 385 203 392 211 q 375 190 378 196 q 356 167 367 181 q 335 140 346 153 q 317 119 325 128 q 307 107 310 110 q 296 95 304 104 q 278 76 288 86 q 259 56 269 65 q 243 42 249 46 q 231 35 236 39 q 222 28 225 31 q 204 15 217 21 q 178 4 192 8 q 150 -3 164 0 q 126 -6 136 -6 q 74 3 96 -6 q 29 31 53 11 q -1 75 -1 57 m 496 332 q 501 328 490 326 q 523 331 506 329 q 560 332 540 332 q 603 336 596 335 q 617 347 611 338 q 624 358 619 353 q 631 365 628 363 l 656 403 q 672 427 664 415 q 682 443 679 439 q 689 452 685 446 q 696 464 693 458 q 720 499 707 481 q 750 539 733 518 q 767 563 758 551 q 778 578 775 574 q 786 589 781 582 q 796 601 792 596 q 806 616 800 608 q 817 631 813 624 q 828 645 822 638 q 839 658 835 653 l 850 672 q 855 681 850 675 q 872 700 860 686 q 888 719 879 707 q 907 749 896 732 q 917 760 911 753 q 929 774 922 768 q 941 788 935 781 q 951 803 947 796 q 977 835 960 814 q 1010 874 994 857 q 1022 890 1022 886 q 1011 886 1021 892 q 987 870 1001 881 q 955 847 972 860 q 922 819 938 833 q 891 790 913 811 q 844 743 869 769 q 793 691 818 717 q 751 646 768 665 q 720 610 736 628 q 697 586 704 593 q 678 565 690 579 q 656 538 667 550 q 634 511 644 524 q 621 494 624 499 q 608 479 611 485 q 601 469 606 476 q 590 456 597 463 q 580 442 585 449 q 574 432 575 435 q 565 421 572 428 q 552 405 561 415 q 533 381 543 394 q 513 355 522 368 q 496 332 503 342 m 493 789 q 505 822 503 810 q 504 861 507 833 q 502 870 503 869 q 494 868 501 871 q 444 844 468 857 q 410 824 421 832 q 399 818 401 818 q 392 814 399 818 q 379 805 386 810 q 366 796 372 800 q 358 790 360 792 q 331 766 347 782 q 300 735 314 750 q 288 721 293 728 q 279 711 282 714 q 232 650 246 672 q 222 636 226 643 q 214 626 217 629 q 208 617 208 618 q 204 608 208 613 q 191 587 199 601 q 177 556 183 572 q 167 523 171 539 q 163 497 163 507 q 181 468 163 468 q 222 483 194 468 q 263 508 242 492 q 305 544 285 525 q 343 584 325 564 q 375 621 361 604 q 403 653 399 646 q 414 669 408 660 q 422 679 419 679 q 425 683 425 679 q 429 692 425 688 q 442 708 433 694 q 462 737 451 721 q 481 768 472 753 q 493 789 490 783 z "},"B":{"ha":967,"x_min":15,"x_max":950,"o":"m 744 924 q 758 935 758 933 q 751 936 757 935 q 738 940 744 938 q 714 943 728 942 q 685 944 700 944 q 658 944 671 944 q 636 940 644 943 q 599 930 621 936 q 569 921 578 924 q 550 915 558 915 q 531 908 538 913 q 495 891 508 897 q 479 885 482 885 q 472 881 476 885 q 461 875 469 878 q 452 871 458 874 q 442 864 446 868 q 414 849 431 856 q 399 839 399 842 q 389 832 399 838 q 358 811 375 825 q 317 771 342 797 q 264 715 290 744 q 213 655 238 686 q 169 590 189 624 q 138 519 150 556 q 134 510 136 515 q 129 499 132 504 q 123 480 126 492 q 116 456 119 468 q 111 436 113 444 q 111 428 110 428 q 120 429 114 426 q 135 436 126 432 q 153 445 144 440 q 168 456 163 450 q 176 461 171 457 q 189 472 182 465 q 262 540 229 504 q 322 619 294 576 q 342 649 338 639 q 356 669 347 654 q 374 702 365 685 q 389 735 382 719 q 397 758 396 751 q 406 791 404 781 q 404 814 407 801 q 404 831 401 828 q 444 823 419 839 q 482 781 468 807 q 488 765 486 772 q 489 746 489 758 q 488 726 489 736 q 485 708 486 715 q 479 693 483 703 q 470 672 475 683 q 460 651 465 661 q 451 636 456 642 q 440 619 449 633 q 419 589 431 606 q 376 527 399 557 q 336 479 353 497 q 313 455 321 464 q 300 440 304 446 q 279 421 294 433 q 247 396 264 408 q 217 374 231 383 q 199 364 203 364 q 186 360 194 364 q 156 351 175 353 q 126 351 138 349 q 60 404 81 365 q 40 488 40 443 q 47 553 40 519 q 67 620 54 588 q 98 683 81 653 q 136 736 115 714 q 162 763 146 747 q 194 796 178 779 q 226 826 211 813 q 249 846 240 840 q 274 864 257 853 q 308 886 290 875 q 341 906 326 897 q 360 915 356 914 q 367 919 363 917 q 378 924 372 921 q 464 956 418 943 q 554 975 510 968 q 578 978 561 976 q 615 981 594 979 q 655 983 635 982 q 689 983 675 983 q 718 982 701 983 q 751 978 735 981 q 783 972 768 975 q 806 964 797 968 q 879 921 847 944 q 933 857 911 897 q 941 838 938 846 q 944 826 944 829 q 947 819 944 819 q 950 793 950 817 q 946 750 950 769 q 928 704 942 728 q 899 658 915 681 q 863 615 882 635 q 825 582 843 594 q 787 556 808 571 q 747 529 765 540 l 733 521 l 750 517 q 803 493 774 510 q 849 458 833 476 q 888 358 892 411 q 851 257 886 311 q 765 153 815 203 q 658 64 715 103 q 556 10 601 25 q 547 6 551 7 q 539 3 542 4 q 513 -6 526 -3 q 472 -12 500 -8 q 426 -17 443 -17 q 390 -15 410 -18 q 300 28 333 -7 q 275 65 285 44 q 265 101 265 85 q 265 113 265 108 q 263 118 264 118 q 260 115 260 118 q 246 96 260 113 q 213 59 232 79 q 176 22 194 39 q 150 0 158 4 q 82 14 125 -8 q 54 31 61 25 q 36 53 47 36 q 24 71 29 63 q 17 82 18 79 q 20 97 15 88 q 29 106 25 106 q 56 115 32 106 q 81 132 69 122 q 118 168 93 142 q 156 206 136 185 q 186 238 175 226 q 197 250 192 244 q 204 260 201 256 q 213 268 208 264 q 217 274 214 269 q 224 283 221 278 q 239 304 228 290 q 261 333 250 318 q 292 372 275 350 q 324 416 308 394 q 351 455 339 438 q 369 481 364 472 l 444 589 q 467 620 456 604 q 483 643 478 636 q 500 665 492 654 q 526 700 508 676 q 610 806 563 753 q 707 897 657 858 q 744 924 726 917 m 815 900 q 791 879 808 896 q 753 838 774 863 q 710 787 732 814 q 672 736 689 760 q 658 717 667 729 q 642 694 650 706 q 629 676 635 683 q 624 667 624 668 q 617 658 624 665 q 613 653 614 656 q 610 647 611 650 q 592 621 607 640 q 578 596 578 600 q 574 590 578 594 q 567 579 571 585 q 557 565 563 572 q 549 551 551 557 q 540 538 543 538 q 531 526 538 535 q 525 514 525 517 q 538 517 525 511 q 574 533 551 522 q 694 610 636 560 q 794 711 753 660 q 827 755 814 735 q 851 803 840 775 q 865 840 858 818 q 868 868 871 861 q 853 888 865 875 q 833 903 840 900 q 815 900 825 906 m 769 443 q 735 466 753 460 q 681 475 717 472 q 626 472 651 476 q 556 457 600 468 q 512 442 539 453 q 472 422 485 431 q 447 390 464 418 q 433 368 440 379 q 424 354 426 357 q 417 344 421 350 q 411 333 414 339 q 401 318 408 329 q 386 296 393 307 q 369 272 378 285 q 356 253 361 260 q 346 239 351 246 q 338 229 340 232 q 328 213 332 221 q 312 188 321 201 q 297 167 303 174 q 306 136 285 151 q 346 119 319 124 q 365 118 353 118 q 390 119 376 118 q 418 123 404 121 q 442 128 432 125 q 463 133 453 131 q 475 139 472 136 q 557 174 508 150 q 653 228 606 197 q 739 296 700 260 q 790 368 778 332 q 794 408 799 392 q 769 443 789 424 z "},"C":{"ha":688,"x_min":13,"x_max":793,"o":"m 581 947 q 592 954 585 947 q 627 965 601 961 q 681 969 653 969 q 727 965 710 971 q 765 940 744 958 q 783 915 779 928 q 793 831 793 881 q 774 719 793 775 q 732 614 756 663 q 710 572 724 597 q 683 524 696 547 q 658 485 669 501 q 644 469 647 469 q 642 467 643 468 l 638 458 q 632 451 635 456 q 628 446 629 447 q 619 437 625 444 q 606 419 613 429 q 590 401 597 410 q 578 389 582 392 q 569 379 575 385 q 557 368 563 374 q 520 339 538 350 q 492 325 503 328 q 435 344 467 321 q 397 407 399 369 q 398 420 396 418 q 411 425 400 422 q 451 445 429 429 q 495 485 472 461 q 542 537 518 508 q 588 594 565 565 q 628 648 610 622 q 658 692 646 674 q 712 778 694 744 q 738 843 729 811 q 743 883 743 868 q 738 911 743 899 q 729 922 732 921 q 713 921 726 924 q 692 917 699 919 q 667 903 685 914 q 633 881 643 888 q 614 869 622 875 q 601 859 610 865 q 585 847 592 853 q 554 824 568 836 q 526 797 540 811 q 422 695 472 749 q 333 579 372 642 q 326 569 331 576 q 315 556 321 563 q 301 535 310 549 q 286 511 293 522 q 273 492 279 500 q 265 483 267 483 q 256 469 263 481 q 244 450 250 458 q 228 423 238 439 q 215 399 219 407 q 208 384 213 393 q 201 367 204 375 q 192 343 192 347 q 182 317 192 339 q 174 292 178 307 q 167 267 169 278 q 161 242 164 256 q 156 222 158 229 q 151 203 153 215 q 150 181 150 192 q 149 156 147 165 q 154 132 150 147 q 160 113 157 121 q 165 101 163 104 q 208 80 178 88 q 272 75 238 72 q 332 88 296 78 q 396 111 368 97 q 451 138 424 124 q 501 169 478 151 q 517 181 508 176 q 553 204 532 188 q 596 240 574 221 q 638 279 618 260 q 669 311 658 299 q 695 338 689 333 q 710 343 701 343 q 724 338 721 343 q 728 322 728 333 q 721 302 728 314 q 704 279 714 290 q 685 259 694 268 q 668 244 675 250 q 661 238 665 242 q 654 229 657 233 q 642 218 651 226 q 624 201 633 210 q 600 182 613 193 q 581 164 588 171 q 533 126 560 144 q 494 100 507 107 q 479 88 482 92 q 461 75 476 82 q 446 67 454 72 q 432 57 438 61 q 405 41 422 50 q 368 24 388 32 q 328 8 349 15 q 294 -3 308 1 q 271 -7 285 -6 q 242 -10 257 -8 q 213 -11 226 -11 q 192 -10 200 -11 q 78 42 121 1 q 19 149 36 82 q 15 169 17 161 q 13 184 14 176 q 13 200 13 192 q 14 221 13 208 q 37 344 17 286 q 93 456 57 401 q 101 471 101 467 q 110 482 101 471 q 117 493 113 486 q 125 507 122 500 q 138 528 132 522 q 141 534 139 531 q 144 540 143 538 q 151 549 149 549 q 154 553 154 549 q 161 564 154 557 q 172 581 168 571 q 180 592 175 585 q 190 604 185 599 q 268 696 232 654 q 342 774 304 738 q 422 846 379 811 q 518 915 464 881 q 556 936 533 925 q 581 947 578 947 z "},"D":{"ha":879,"x_min":25,"x_max":906,"o":"m 625 979 q 680 977 657 979 q 722 969 703 975 q 761 950 742 963 q 806 915 781 938 q 897 761 878 851 q 902 731 900 749 q 905 695 904 714 q 905 658 906 676 q 901 624 904 639 q 892 575 899 601 q 881 542 885 549 q 877 533 879 539 q 872 519 875 526 q 863 494 867 501 q 855 476 861 489 q 842 451 849 464 q 830 426 836 438 q 822 414 824 415 q 817 406 821 411 q 811 396 814 401 q 804 385 808 392 q 797 372 800 378 q 788 353 790 360 q 784 348 786 350 q 781 344 782 346 q 777 340 779 343 q 774 332 775 336 q 756 305 771 324 q 719 262 740 286 q 672 211 697 238 q 623 160 647 185 q 578 117 599 136 q 547 90 558 99 q 543 87 546 89 q 536 82 540 85 q 522 71 528 76 q 513 64 519 68 q 500 54 507 60 q 470 34 489 44 q 431 15 451 24 q 388 0 410 6 q 351 -6 367 -6 q 283 21 315 -6 q 246 83 251 47 q 242 97 243 96 q 239 90 242 97 q 232 78 233 78 q 222 61 229 75 q 192 27 215 49 q 154 -3 169 6 q 126 -10 140 -10 q 101 -3 114 -10 q 75 13 88 3 q 53 33 63 22 q 39 54 43 44 q 32 69 35 61 q 28 81 29 78 q 39 90 28 90 q 60 96 50 90 q 89 121 69 101 q 117 151 106 138 q 138 177 128 164 q 158 205 147 190 q 182 240 168 219 q 188 251 185 246 q 194 261 192 257 q 202 272 197 264 q 213 288 207 281 q 228 312 217 294 q 253 350 240 329 q 281 391 267 371 q 303 424 294 411 q 312 436 308 431 q 315 444 315 442 q 319 450 315 449 q 328 463 324 454 q 338 479 331 467 q 356 506 346 492 q 374 535 364 519 q 388 558 383 550 q 397 571 393 565 q 401 576 400 576 q 404 581 404 576 q 412 594 404 582 q 431 624 419 607 q 457 662 443 642 q 482 699 471 682 q 519 754 497 724 q 567 816 542 785 q 619 874 592 847 q 669 917 646 900 q 685 932 688 929 q 677 934 682 933 q 667 936 672 935 q 616 936 646 940 q 553 923 586 932 q 485 899 519 914 q 424 868 451 885 l 411 860 l 431 842 q 457 808 450 822 q 463 769 464 793 q 438 692 460 732 q 393 622 417 653 q 365 585 383 607 q 326 539 347 563 q 285 495 306 515 q 251 464 265 475 q 238 453 244 460 q 229 444 232 447 q 221 439 224 439 q 215 435 219 439 q 206 428 211 432 q 183 413 197 421 q 155 397 169 404 q 126 386 140 390 q 99 382 111 382 q 56 397 71 382 q 33 438 42 413 q 26 460 28 450 q 25 489 25 469 q 53 633 25 564 q 128 761 81 703 q 134 768 131 764 q 142 778 138 772 q 201 836 167 808 q 273 886 235 864 q 351 926 311 908 q 429 953 392 943 q 485 967 463 961 q 529 975 508 972 q 572 978 550 978 q 625 979 594 979 m 765 893 q 756 895 760 896 q 743 890 753 894 q 706 863 724 881 q 678 825 689 844 q 659 802 672 819 q 632 764 646 785 q 606 724 618 743 q 589 694 593 704 q 579 678 586 690 q 565 654 572 667 q 551 629 558 642 q 542 610 544 617 q 531 589 539 603 q 517 561 524 575 q 499 528 510 547 q 481 496 488 510 q 461 461 472 481 q 443 428 450 442 q 428 399 436 413 q 418 381 421 386 q 411 368 415 375 q 404 356 407 361 q 385 323 394 339 q 368 293 376 307 q 342 253 353 271 q 325 228 331 235 q 319 217 322 224 q 313 206 315 211 q 306 194 310 200 q 299 182 301 188 q 293 174 297 181 q 284 160 289 167 q 276 147 279 153 q 272 139 272 140 q 281 135 272 135 q 287 133 283 133 q 292 131 290 132 q 303 131 294 131 q 324 132 313 131 q 346 135 335 133 q 364 139 357 138 q 407 155 383 144 q 454 176 431 165 q 517 220 485 194 q 580 276 549 246 q 638 337 611 306 q 685 396 665 368 q 693 408 689 404 q 701 419 696 411 q 712 436 707 428 q 721 451 717 444 q 725 458 725 457 q 729 465 726 461 q 739 479 735 471 q 799 591 775 526 q 826 714 824 656 q 825 763 828 742 q 813 813 822 783 q 803 838 808 825 q 790 863 797 851 q 776 882 783 874 q 765 893 769 890 m 365 781 q 376 817 372 801 q 375 833 379 833 q 363 825 374 833 q 338 806 351 817 q 311 785 324 796 q 292 767 299 774 q 239 711 260 733 q 203 672 218 689 q 178 642 189 656 q 153 608 167 628 q 117 550 135 585 q 92 488 100 515 q 86 447 81 451 q 98 449 88 444 q 114 457 108 453 q 126 467 117 460 q 146 485 135 475 q 167 503 157 494 q 179 514 176 511 q 196 531 185 518 q 220 556 207 543 q 244 583 233 569 q 261 601 256 596 q 274 619 267 608 q 288 639 281 631 q 301 660 293 647 q 315 681 308 672 q 365 781 343 724 z "},"E":{"ha":917,"x_min":13,"x_max":1050,"o":"m 1015 913 q 1042 838 1050 876 q 989 768 1035 800 q 966 756 978 761 q 938 746 954 751 q 918 741 926 743 q 896 738 910 739 q 857 738 882 738 q 786 739 832 739 q 716 741 746 740 q 662 744 686 742 q 617 748 638 746 q 576 753 597 750 q 563 752 568 754 q 546 742 558 750 q 497 701 522 725 q 463 664 471 676 q 451 649 457 657 q 442 638 444 642 q 433 624 433 629 q 478 610 433 613 q 603 618 522 607 q 635 625 624 622 q 658 629 647 628 q 678 632 668 631 q 706 635 689 633 q 744 638 731 638 q 768 636 757 639 q 814 618 800 632 q 824 604 818 614 q 833 585 829 594 q 837 567 836 575 q 835 560 838 560 q 829 550 832 560 q 791 527 824 535 q 706 519 758 519 q 584 511 638 519 q 483 485 531 503 q 388 441 435 468 q 285 378 340 414 q 239 343 263 364 q 193 297 215 322 q 153 246 171 272 q 124 196 135 219 q 96 107 92 132 q 101 83 99 86 q 118 76 103 79 q 147 74 126 75 q 190 72 167 72 q 236 73 214 72 q 271 75 258 74 q 377 99 322 83 q 485 138 432 115 q 588 190 539 161 q 676 251 638 218 q 707 280 700 271 q 717 300 714 289 q 725 317 722 314 q 754 306 735 324 q 769 279 765 296 q 772 265 771 272 q 772 253 772 257 q 765 222 772 239 q 749 188 758 204 q 728 157 739 171 q 707 133 717 143 q 675 99 694 115 q 636 72 656 83 q 611 58 629 67 q 572 41 593 50 q 532 25 551 32 q 503 15 513 18 q 480 9 493 13 q 456 3 467 6 q 268 -21 382 -18 l 260 -21 l 231 -21 q 205 -20 215 -21 q 188 -19 194 -19 q 181 -18 183 -18 q 176 -17 179 -18 l 174 -17 q 120 0 146 -11 q 79 26 94 11 q 63 39 64 39 q 57 46 60 42 q 44 63 53 53 q 19 117 26 93 q 13 178 13 142 q 22 240 13 210 q 46 297 31 269 q 56 315 51 306 q 64 328 61 324 q 93 369 75 347 q 133 410 111 390 q 177 449 154 431 q 219 479 200 467 q 244 496 226 486 q 283 516 261 506 q 328 537 304 526 q 369 553 351 547 q 397 563 385 558 q 411 569 408 567 q 417 574 417 572 q 411 582 417 575 q 390 627 397 597 q 386 681 383 657 q 400 722 389 697 q 419 754 411 746 q 424 765 426 764 q 406 767 419 767 q 375 768 393 768 q 338 768 357 768 q 304 767 319 768 q 251 760 269 764 q 203 746 232 757 q 183 735 192 740 q 167 722 175 731 q 147 711 153 708 q 132 756 140 717 q 130 779 129 772 q 133 799 131 786 q 150 828 140 815 q 179 851 160 842 q 227 870 201 864 q 286 876 253 876 q 340 873 310 876 q 406 863 369 869 q 430 857 415 860 q 459 851 444 854 q 488 847 474 849 q 513 844 503 844 q 521 846 518 844 q 526 850 524 847 q 545 863 532 854 q 573 880 558 871 q 599 895 588 889 q 613 901 611 901 q 635 911 615 901 q 740 949 685 935 q 847 965 794 963 q 903 964 881 967 q 951 954 926 961 q 985 937 965 950 q 1015 913 1006 924 m 919 815 q 983 837 958 822 q 1001 863 1007 851 q 978 875 996 871 q 933 879 960 879 q 889 877 913 879 q 842 868 865 875 q 810 860 829 865 q 773 848 792 854 q 739 836 754 842 q 718 828 724 831 q 703 822 704 822 q 699 819 699 822 q 707 817 699 818 q 728 814 715 815 q 751 813 740 813 q 763 811 761 813 q 784 810 765 811 q 826 810 803 810 q 881 811 863 810 q 919 815 900 813 z "},"F":{"ha":599,"x_min":18,"x_max":1167,"o":"m 992 801 q 935 810 968 803 q 854 832 903 817 q 828 840 840 836 q 810 844 815 843 q 794 849 806 846 q 771 856 782 853 q 744 862 760 858 q 719 868 729 865 q 699 872 703 872 q 688 863 694 871 q 676 849 683 857 q 664 835 669 842 q 651 819 657 828 q 642 806 644 811 q 635 794 639 800 q 629 786 632 789 q 621 774 626 783 q 610 756 615 765 q 599 735 606 746 q 588 717 593 724 q 574 692 581 704 q 551 651 567 679 q 544 638 550 649 q 531 614 538 626 q 518 591 524 601 q 513 581 513 581 q 499 556 513 576 q 469 500 482 524 q 457 472 457 476 q 463 467 457 469 q 486 464 469 464 q 518 467 503 464 q 539 466 535 469 q 543 450 543 463 q 532 422 543 442 q 508 390 521 403 q 432 376 485 364 q 419 378 425 378 q 411 379 414 379 q 390 347 407 379 q 350 275 371 310 q 338 251 343 261 q 331 240 332 240 q 318 219 326 236 q 309 203 315 213 q 299 186 303 193 q 289 169 294 179 q 279 153 283 160 q 273 140 276 146 q 268 132 269 135 q 258 120 264 128 q 248 105 253 113 q 239 91 243 97 q 235 83 235 85 q 225 68 235 81 q 217 56 221 63 q 210 47 213 50 q 176 9 197 24 q 129 -10 154 -6 q 114 -9 118 -11 q 99 0 110 -7 q 58 92 58 32 q 62 124 58 115 q 76 136 65 133 q 118 156 103 140 q 151 197 131 167 q 190 257 172 226 q 201 274 193 264 q 215 294 208 285 q 228 315 222 306 q 236 329 233 325 q 255 363 243 343 q 274 390 267 382 q 271 408 290 413 q 261 406 267 407 q 253 401 256 404 q 226 415 226 389 q 230 428 226 422 q 247 446 233 433 q 278 470 260 460 q 315 481 296 481 q 326 483 324 481 q 333 492 328 483 q 345 510 339 500 q 356 528 351 519 q 361 538 361 536 q 369 550 361 539 q 378 565 372 554 q 391 588 383 575 q 407 614 399 600 q 422 639 415 628 q 455 696 438 668 q 492 751 472 724 q 498 760 494 754 q 504 772 501 767 q 517 792 508 779 q 538 820 526 806 q 563 849 550 835 q 585 875 575 864 q 597 888 596 886 q 593 893 599 890 q 581 897 590 894 q 564 901 572 899 q 525 911 542 907 q 503 915 518 914 q 472 918 488 917 q 438 918 450 919 q 414 914 426 917 q 362 893 389 908 q 309 858 335 878 q 262 817 283 839 q 226 775 240 796 q 216 761 221 768 q 208 751 211 754 q 196 735 200 743 q 190 726 193 732 q 183 718 186 721 q 168 696 175 710 q 163 685 165 689 q 158 679 160 681 q 145 663 154 678 q 125 630 136 649 q 103 592 114 611 q 89 563 93 574 q 79 526 83 547 q 76 497 75 504 q 89 489 79 489 q 142 509 113 489 q 199 558 171 529 q 249 616 226 586 q 282 665 272 646 q 290 678 286 672 q 296 688 293 685 q 299 692 297 690 q 300 696 300 694 q 306 708 300 700 q 313 722 308 711 q 322 743 318 732 q 342 808 338 778 q 339 854 346 839 q 340 873 332 868 q 378 878 347 878 q 396 876 390 878 q 413 865 401 874 q 449 824 439 846 q 457 771 458 803 q 453 745 456 756 q 444 721 451 735 q 429 690 438 699 q 424 682 426 688 q 418 672 421 676 q 390 632 411 658 q 344 578 369 606 q 295 528 319 551 q 256 493 271 504 q 176 451 219 468 q 108 435 133 435 q 80 440 97 435 q 53 453 63 446 q 22 549 18 479 q 67 707 26 619 q 78 731 74 719 q 85 744 83 742 q 135 817 104 783 q 203 880 165 851 q 283 928 240 908 q 367 958 325 949 q 451 968 399 965 q 561 968 503 971 q 608 965 588 967 q 631 964 628 964 q 642 961 632 963 q 667 958 653 960 q 733 952 707 954 q 774 949 758 950 q 795 946 789 947 q 803 944 801 944 q 828 941 807 943 q 877 938 849 939 q 936 935 906 936 q 992 933 967 933 q 1048 934 1025 933 q 1087 938 1071 935 q 1115 945 1103 940 q 1139 958 1126 950 q 1149 963 1143 961 q 1157 964 1154 964 q 1164 960 1163 963 q 1167 950 1165 958 q 1164 931 1167 942 q 1156 907 1161 919 q 1144 883 1151 894 q 1131 865 1138 872 q 1092 831 1100 833 q 1079 822 1086 829 q 1067 816 1076 819 q 1047 808 1058 813 q 1022 801 1031 803 q 992 801 1013 800 z "},"G":{"ha":783,"x_min":22,"x_max":901,"o":"m 890 694 q 899 683 897 688 q 901 672 901 679 q 892 653 901 661 q 837 601 863 629 q 789 542 811 572 q 779 531 785 538 q 769 517 774 524 q 753 491 765 510 q 725 453 740 472 q 699 417 710 432 q 688 399 689 401 q 682 392 686 396 q 669 373 681 390 q 644 335 657 356 q 619 297 631 314 q 606 276 607 279 q 601 269 606 275 q 590 254 597 263 q 578 236 585 246 q 565 219 571 226 q 553 202 561 213 q 539 183 546 192 q 526 168 532 176 q 518 156 521 160 q 495 127 510 144 q 464 93 481 110 q 430 61 447 76 q 400 39 413 46 q 383 26 383 29 q 381 25 383 25 q 363 15 378 25 q 339 3 353 8 q 309 -7 325 -3 q 278 -13 293 -11 q 250 -15 263 -15 q 169 -2 208 -15 q 99 35 131 11 q 48 92 68 58 q 24 169 28 126 q 22 195 22 181 q 23 225 22 210 q 26 253 24 240 q 29 275 28 267 q 49 328 36 300 q 78 385 61 357 q 116 437 96 413 q 157 476 136 461 q 189 471 176 489 q 196 457 196 460 q 183 442 196 454 q 167 418 171 429 q 156 403 163 410 q 141 378 149 394 q 122 328 133 363 q 125 138 69 179 q 181 115 146 122 q 247 114 215 108 q 319 141 283 121 q 385 190 354 161 q 444 250 417 218 q 490 311 471 282 q 502 327 493 314 q 521 356 511 340 q 546 391 532 371 q 569 424 560 411 q 587 447 579 436 q 597 460 594 457 q 606 471 600 468 q 608 478 611 478 q 597 472 604 478 q 565 447 581 458 q 542 429 549 435 q 461 372 497 396 q 372 325 425 349 q 332 319 361 319 q 304 320 311 319 q 286 328 297 321 q 240 451 224 361 q 246 475 243 463 q 251 494 249 488 q 257 509 254 501 q 263 522 260 517 q 282 565 269 539 q 303 604 294 592 q 310 615 308 613 q 313 621 311 618 q 296 619 311 622 q 262 610 281 615 q 224 599 243 604 q 199 589 206 593 q 185 583 194 586 q 169 576 176 579 q 136 554 153 569 q 115 526 119 539 q 90 519 110 508 q 68 564 76 528 q 65 587 65 579 q 68 610 65 594 q 102 675 78 651 q 160 711 126 699 q 231 728 193 724 q 304 733 269 732 q 352 737 329 736 q 382 739 375 738 q 394 740 389 739 q 403 744 399 740 q 413 753 407 747 q 431 771 419 760 q 491 830 464 806 q 531 863 518 854 q 549 875 538 867 q 571 892 560 883 q 617 922 590 907 q 674 949 644 938 q 733 968 703 961 q 789 975 764 975 q 827 971 811 975 q 863 957 843 967 q 879 928 874 950 q 885 894 885 906 q 882 871 885 874 q 877 865 879 869 q 872 857 875 861 q 865 844 867 846 q 857 832 863 844 q 837 810 851 825 q 803 778 822 794 q 790 767 799 774 q 774 757 781 761 q 753 743 767 751 q 729 728 740 735 q 708 715 718 721 q 692 707 697 710 q 675 700 683 703 q 631 683 660 693 q 579 669 601 674 q 538 660 565 667 q 513 656 525 657 q 494 654 500 654 q 479 649 485 654 q 458 622 474 643 q 431 581 446 603 q 413 557 415 560 q 399 531 408 553 q 390 513 393 521 q 383 504 386 506 q 376 487 381 500 q 365 458 371 474 q 356 428 360 443 q 353 407 353 414 q 360 394 353 401 q 367 390 364 390 q 378 390 371 389 q 386 392 382 392 q 393 394 390 393 q 403 400 396 396 q 419 408 411 404 q 438 417 429 413 q 451 425 447 422 q 467 436 454 428 q 494 454 479 444 q 534 481 521 471 q 565 506 547 490 q 585 518 576 514 q 605 533 592 522 q 633 558 618 544 q 664 586 649 572 q 688 610 679 600 q 744 669 718 643 q 782 703 771 694 q 817 715 796 711 q 856 715 840 719 q 890 694 872 710 m 610 786 q 580 756 582 760 q 592 754 578 751 q 610 758 599 756 q 632 763 622 760 q 700 784 665 771 q 751 808 735 797 q 776 828 763 817 q 802 853 790 840 q 823 877 814 865 q 833 896 832 889 q 808 918 838 918 q 781 913 796 918 q 768 908 775 911 q 751 899 761 906 q 726 883 740 893 q 688 857 711 872 q 610 786 665 843 z "},"H":{"ha":946,"x_min":21,"x_max":1183,"o":"m 163 825 q 178 836 167 825 q 196 850 183 842 q 219 865 208 858 q 273 894 249 882 q 322 916 297 907 q 372 931 346 925 q 431 942 399 938 q 468 946 446 944 q 513 949 490 947 q 555 950 536 950 q 582 949 574 950 q 619 944 590 946 q 679 942 647 943 q 743 939 722 939 q 772 942 764 939 q 799 944 792 946 q 813 936 807 943 q 810 915 825 922 q 769 882 792 906 q 725 831 747 858 q 684 775 703 803 q 653 726 665 747 q 631 690 647 718 q 594 633 614 663 q 584 617 592 629 q 569 593 576 606 q 552 563 563 581 q 533 535 542 546 q 517 508 526 522 q 503 485 508 493 q 492 467 497 476 q 483 451 486 457 q 474 435 481 444 q 463 418 468 426 q 452 403 457 411 q 446 392 447 394 q 432 368 443 383 q 422 345 419 349 q 449 344 425 342 q 485 347 460 346 q 535 349 511 347 q 574 349 558 349 q 603 347 590 349 q 627 343 615 346 q 654 335 639 340 q 676 328 671 328 q 685 335 681 328 q 701 364 690 342 q 734 421 721 399 q 758 461 747 443 q 784 503 771 481 q 821 565 797 525 q 837 592 828 578 q 851 614 846 606 q 867 638 857 621 q 886 671 878 654 q 903 699 896 686 q 913 714 910 711 q 916 719 914 715 q 921 726 918 724 q 932 742 924 731 q 951 769 940 754 q 972 797 963 783 q 985 815 982 810 q 997 832 988 819 q 1019 860 1007 844 q 1044 890 1032 875 q 1067 914 1057 904 q 1102 937 1083 933 q 1136 938 1121 940 q 1164 928 1149 935 q 1182 907 1179 921 q 1175 892 1183 899 q 1164 881 1168 886 q 1153 864 1160 876 q 1144 851 1151 860 q 1129 831 1138 842 q 1113 808 1121 819 q 1100 790 1106 797 q 1092 779 1097 786 q 1085 767 1088 772 q 1060 726 1074 747 q 1042 699 1047 706 q 1024 672 1038 693 q 996 624 1011 650 q 965 573 981 599 q 943 533 950 547 q 936 522 940 528 q 929 510 932 515 q 923 499 926 506 q 917 486 919 492 q 898 453 911 475 q 874 415 885 431 q 867 405 871 410 q 863 397 864 400 q 856 384 861 394 q 843 361 850 374 q 831 340 836 349 q 825 328 825 331 q 818 317 825 324 q 806 296 815 313 q 786 260 796 279 q 769 224 776 240 q 761 206 761 208 q 756 193 761 201 q 742 166 750 182 q 728 134 735 150 q 716 104 721 118 q 708 83 711 90 q 703 61 706 72 q 697 44 700 50 q 690 14 693 31 q 686 -1 689 1 q 667 -7 683 -4 q 643 -1 654 -7 q 624 15 632 6 q 603 42 611 26 q 590 76 594 58 q 585 110 585 93 q 589 142 585 128 q 608 190 600 174 q 628 231 615 207 q 646 265 646 260 q 624 267 643 268 q 576 264 606 267 q 538 260 563 261 q 492 256 513 258 q 454 251 469 253 q 436 249 439 250 q 422 247 433 249 q 398 244 411 246 q 374 241 385 243 q 361 239 363 239 q 353 231 358 239 q 342 214 349 224 q 331 196 336 203 q 325 188 326 189 q 312 166 324 186 q 285 118 300 146 q 253 64 268 88 q 232 33 239 40 q 165 -1 206 3 q 130 0 146 -4 q 96 15 114 4 q 63 41 81 25 q 44 61 44 57 q 51 69 44 65 q 64 72 57 72 q 98 94 75 72 q 144 144 121 117 q 185 198 167 172 q 203 231 203 224 q 197 234 203 232 q 183 238 190 236 q 119 290 129 250 q 119 314 117 304 q 136 344 122 324 q 152 362 146 360 q 168 354 158 364 q 201 340 175 347 q 249 333 228 333 q 268 334 264 333 q 276 340 272 335 q 281 348 279 343 q 286 356 283 353 q 301 379 293 367 q 314 404 308 392 q 329 431 322 418 q 343 453 336 443 q 419 572 379 513 q 501 688 460 631 q 523 717 514 704 q 532 731 532 729 q 549 750 532 733 q 561 765 556 757 q 568 775 567 772 q 590 802 575 786 q 621 836 604 818 q 656 870 638 854 q 688 897 674 886 q 695 903 692 900 q 697 908 699 907 q 682 911 694 911 q 649 911 676 911 q 589 913 622 911 q 536 913 557 913 q 499 911 515 913 q 469 906 483 910 q 433 896 454 903 q 404 885 414 890 q 404 881 394 881 q 433 869 411 881 q 464 849 454 857 q 486 799 486 829 q 483 772 486 783 q 455 703 471 739 q 417 638 439 667 q 407 621 411 628 q 403 613 403 614 q 400 608 403 608 q 385 590 397 607 q 363 560 372 574 q 353 546 358 553 q 338 529 347 539 q 316 506 329 519 q 283 472 303 492 q 250 440 268 457 q 211 410 232 424 q 168 387 190 396 q 122 378 146 378 q 86 387 103 378 q 57 410 69 396 q 37 443 44 425 q 26 479 29 461 q 26 565 21 515 q 47 651 32 615 q 63 684 54 667 q 80 718 71 701 q 97 748 89 735 q 110 767 106 761 q 120 778 113 769 q 138 797 128 786 q 154 817 147 808 q 163 825 161 825 m 175 675 q 167 662 172 669 q 158 649 163 654 q 135 603 147 631 q 112 547 122 575 q 94 492 101 518 q 88 451 88 467 q 94 436 88 436 q 131 455 107 436 q 181 498 156 474 q 228 546 207 522 q 258 579 250 569 q 317 671 289 621 q 363 769 346 721 q 374 803 371 789 q 379 829 378 818 q 376 852 379 840 q 368 864 372 864 q 344 853 363 864 q 299 821 324 843 q 250 773 274 799 q 206 721 226 747 q 175 675 186 694 z "},"I":{"ha":583,"x_min":22,"x_max":871,"o":"m 706 883 q 713 889 710 886 q 718 894 715 892 q 724 900 721 897 q 697 901 722 901 q 636 901 672 901 l 542 901 q 499 897 529 901 q 437 885 469 893 q 377 867 404 878 q 342 843 350 856 q 329 833 339 839 q 321 828 321 831 q 315 820 321 826 q 299 807 308 814 q 281 791 290 800 q 268 775 271 782 q 256 760 258 760 q 247 750 253 760 q 240 739 244 746 q 229 725 235 732 q 216 708 224 718 q 203 690 208 699 q 193 677 197 683 q 188 671 189 671 q 176 653 185 669 q 158 618 168 638 q 138 579 147 599 q 125 550 129 560 q 107 496 113 517 q 100 463 101 475 q 99 446 99 451 q 104 433 100 440 q 113 424 110 426 q 128 424 115 422 q 145 428 139 425 q 163 439 151 431 q 232 496 199 461 q 294 572 265 531 q 344 657 322 613 q 375 742 365 701 q 378 758 376 749 q 383 775 381 768 q 388 815 390 796 q 378 842 386 833 q 411 861 358 861 q 458 852 438 861 q 490 817 479 843 q 499 759 501 793 q 476 689 496 725 q 464 666 469 678 q 456 647 458 654 q 433 613 449 632 q 419 590 419 594 q 410 576 419 586 q 400 564 400 567 q 387 544 400 561 q 353 501 374 528 q 289 438 322 463 q 267 422 278 431 q 250 407 257 413 q 233 397 244 403 q 210 385 222 392 q 185 375 197 379 q 163 368 172 371 q 147 366 156 367 q 131 365 138 365 q 58 404 93 365 q 42 424 47 415 q 32 447 38 432 q 22 510 22 479 q 31 582 22 542 q 53 652 39 618 q 86 718 67 686 q 92 728 86 721 q 118 764 99 736 q 226 872 163 824 q 365 931 290 919 q 388 935 376 933 q 403 939 399 938 q 427 944 411 942 q 472 947 443 946 q 547 948 501 947 q 657 949 592 949 q 796 951 744 950 q 851 954 847 951 q 865 953 860 957 q 868 939 871 949 q 858 924 865 929 q 842 909 854 921 q 815 883 829 897 q 788 857 800 869 q 772 840 775 844 q 746 801 756 815 q 731 778 736 786 q 721 764 728 774 q 707 744 714 754 q 695 727 700 735 q 689 717 690 719 q 672 689 682 706 q 649 653 661 672 q 633 627 639 638 q 621 607 626 617 q 610 586 615 597 q 594 556 604 575 q 560 490 575 517 q 535 449 544 464 q 528 435 533 446 q 516 414 522 425 q 504 394 510 403 q 497 383 499 385 q 494 376 496 381 q 490 368 492 372 q 483 355 488 364 q 475 339 479 346 q 463 319 469 332 q 449 294 456 306 q 435 271 442 283 q 424 251 428 258 q 415 237 419 244 q 410 226 411 229 q 406 218 408 224 q 400 210 403 213 q 391 196 397 206 q 379 176 385 186 q 367 157 374 167 q 358 143 361 147 q 351 130 356 138 q 342 115 346 122 q 331 101 338 108 q 322 89 325 93 q 313 78 318 85 q 306 68 308 72 q 219 -6 265 11 q 206 -10 208 -8 q 199 -11 201 -10 q 135 -3 163 -11 q 81 28 108 4 q 57 58 67 42 q 50 83 47 75 q 53 90 53 89 q 61 89 54 90 q 92 86 69 86 q 161 107 128 86 q 218 154 194 128 q 233 174 225 163 q 249 197 242 185 q 263 218 257 208 q 271 232 269 228 q 276 242 272 235 q 288 260 281 250 q 335 336 313 297 q 381 415 358 375 q 394 441 388 431 q 403 454 400 451 q 417 478 406 460 q 444 524 429 496 q 471 568 454 540 q 506 625 488 596 q 540 680 524 654 q 564 718 556 706 q 574 733 567 722 q 588 754 581 743 q 641 824 613 790 q 706 883 669 857 z "},"J":{"ha":754,"x_min":-3,"x_max":1036,"o":"m 961 949 q 1006 945 993 947 q 1025 938 1018 943 q 1034 922 1032 931 q 1032 907 1036 914 q 1013 888 1029 897 q 933 808 968 854 q 868 714 899 761 q 849 687 858 700 q 838 667 840 674 q 807 615 815 631 q 789 586 799 600 q 776 567 783 576 q 767 551 769 557 q 751 526 763 546 q 725 482 739 506 q 700 439 711 458 q 686 417 689 419 q 675 397 682 410 q 668 382 668 385 q 679 382 674 382 q 692 383 685 382 q 706 383 699 383 q 737 383 729 385 q 750 379 744 382 q 760 367 756 375 q 769 349 765 358 q 774 333 774 340 q 772 322 775 325 q 764 321 769 321 q 751 319 758 321 q 724 319 744 319 q 682 317 703 318 l 628 315 l 617 296 q 597 265 608 282 q 576 231 586 247 q 556 200 565 214 q 542 178 547 186 q 528 160 535 169 q 518 146 521 150 q 504 127 514 139 q 483 103 494 115 q 461 80 472 90 q 442 63 450 69 q 409 39 422 47 q 364 15 396 31 q 214 -17 297 -18 q 147 -12 178 -17 q 82 8 115 -8 q 53 23 68 15 q 25 41 38 31 q 5 65 13 51 q -3 96 -3 78 q -1 117 -3 110 q 8 135 1 124 q 35 170 18 153 q 71 204 51 188 q 111 235 90 221 q 150 260 132 250 q 210 285 174 272 q 287 308 247 297 q 365 328 326 319 q 431 340 404 336 q 453 344 439 342 q 481 350 468 347 q 499 354 492 353 q 510 359 506 356 q 518 367 514 363 q 528 382 522 372 q 544 410 544 406 q 554 426 544 413 q 565 443 558 433 q 575 460 571 453 q 590 481 581 467 q 607 508 599 496 q 624 534 615 521 q 636 554 632 547 q 651 578 639 560 q 677 619 663 597 q 706 663 692 642 q 726 693 721 683 q 766 749 744 719 q 810 806 788 778 q 859 858 833 833 q 911 900 885 883 l 925 910 l 900 913 q 865 914 889 914 q 813 914 840 914 q 760 913 786 914 q 722 911 735 913 q 647 901 682 907 q 593 888 611 894 q 566 877 582 883 q 534 865 550 871 q 506 853 518 858 q 492 844 494 847 q 485 839 490 842 q 472 833 479 836 q 438 808 458 826 q 397 769 418 790 q 357 726 376 747 q 326 689 338 704 q 279 617 299 656 q 244 538 260 578 q 228 483 233 507 q 231 453 224 460 q 245 442 235 446 q 263 439 256 438 q 297 449 278 440 q 335 469 317 457 q 447 570 397 514 q 526 686 496 626 q 548 733 539 713 q 562 770 557 753 q 568 803 567 788 q 568 835 569 818 q 568 857 567 850 q 576 864 569 864 q 617 853 597 864 q 651 829 636 843 q 678 769 679 806 q 647 675 676 733 q 488 483 590 564 q 473 472 481 478 q 460 460 465 465 q 437 441 449 449 q 422 433 425 433 q 415 429 421 433 q 400 419 408 425 q 296 386 357 386 q 263 386 274 385 q 242 392 253 388 q 199 417 215 401 q 176 454 183 433 q 167 499 169 475 q 165 547 165 522 q 203 711 165 636 q 304 841 242 786 q 447 930 367 896 q 610 969 526 964 q 692 971 646 972 q 785 963 739 969 q 822 958 807 960 q 853 956 836 957 q 894 953 869 954 q 961 949 919 951 m 453 268 q 467 290 467 286 q 462 290 465 290 q 453 288 458 290 q 440 284 449 286 q 422 281 431 282 q 354 261 388 274 q 289 236 321 249 q 276 231 282 233 q 267 225 269 228 q 251 219 258 219 q 215 206 242 219 q 161 173 189 193 q 113 131 133 153 q 92 93 92 110 q 98 81 92 86 q 111 75 104 75 q 119 74 114 75 q 128 71 124 72 q 147 67 135 68 q 182 67 158 67 q 244 76 217 68 q 294 97 271 83 q 338 131 317 111 q 383 176 360 150 q 410 208 397 192 q 426 231 422 224 q 439 249 432 238 q 453 268 446 260 z "},"K":{"ha":1013,"x_min":15,"x_max":1314,"o":"m 651 658 q 606 573 624 607 q 576 518 588 539 q 559 485 565 497 q 549 465 553 474 q 540 447 543 454 q 536 438 536 439 q 552 438 536 435 q 590 446 568 440 q 633 460 611 451 q 668 475 656 468 q 717 507 689 486 q 774 551 746 528 q 787 564 779 557 q 801 575 794 571 q 817 588 807 579 q 838 606 828 597 q 874 641 847 614 q 931 701 900 668 q 990 764 961 733 q 1032 810 1018 794 q 1065 845 1047 826 q 1098 880 1082 864 q 1128 908 1114 896 q 1150 925 1142 919 q 1189 947 1169 939 q 1222 954 1208 954 q 1238 953 1228 954 q 1254 949 1247 951 q 1297 915 1279 940 q 1314 863 1314 889 q 1312 853 1314 854 q 1299 851 1310 851 q 1264 839 1286 851 q 1218 810 1242 826 q 1174 778 1194 794 q 1143 753 1153 761 q 1107 722 1128 739 q 1072 693 1086 704 q 1045 670 1058 681 q 1017 646 1032 660 q 985 615 1003 632 q 942 572 967 597 q 880 516 907 540 q 833 479 853 492 q 823 472 831 476 q 808 460 815 467 q 790 446 801 454 q 768 431 779 438 q 748 420 757 425 q 736 415 739 415 q 706 401 731 415 q 677 390 690 394 q 644 383 664 386 q 617 379 629 381 q 603 379 606 378 q 597 377 596 382 q 606 368 599 372 q 625 353 617 361 q 644 329 633 344 q 666 288 661 306 q 671 238 671 271 q 670 202 671 222 q 667 169 669 182 q 663 113 664 146 q 665 69 663 81 q 681 60 668 60 q 715 69 693 60 q 763 93 736 78 q 817 129 789 108 q 871 174 844 150 q 898 201 883 186 q 921 222 913 215 q 944 244 929 229 q 969 272 958 260 q 1035 336 1024 335 q 1053 326 1042 339 q 1063 310 1063 317 q 1061 301 1063 307 q 1057 289 1060 296 q 1026 251 1053 279 q 967 192 999 224 q 904 131 935 160 q 863 94 874 103 q 828 69 842 79 q 803 51 814 58 q 781 38 792 43 q 758 25 771 32 q 717 7 735 14 q 685 -3 700 0 q 657 -8 671 -7 q 626 -7 643 -8 q 567 9 592 -4 q 532 58 543 22 q 529 78 529 69 q 532 108 529 86 q 535 140 533 122 q 540 168 538 157 q 544 201 543 182 q 547 239 546 219 q 548 276 549 258 q 546 304 547 293 q 539 331 544 317 q 528 358 533 346 q 517 377 522 369 q 508 382 511 385 q 497 367 504 378 q 485 341 494 360 q 464 300 475 322 q 441 256 453 279 q 422 221 429 232 q 397 175 414 203 q 360 119 381 147 q 321 66 340 90 q 286 31 301 42 q 258 17 274 22 q 233 11 243 11 q 203 15 222 11 q 172 26 185 19 q 158 36 167 29 q 142 51 150 43 q 129 67 135 58 q 121 81 124 75 q 132 99 113 101 q 152 99 139 96 q 169 107 165 103 q 175 113 171 110 q 182 118 179 115 q 233 167 208 138 q 289 244 257 196 q 320 294 306 271 q 350 344 335 317 q 383 403 365 371 q 422 481 400 436 q 446 528 433 504 q 465 564 458 553 q 484 599 472 575 q 507 643 496 622 q 542 708 519 668 q 592 787 565 747 q 647 861 619 826 q 700 910 675 896 q 707 918 710 917 q 676 921 704 919 q 570 925 621 924 q 497 924 519 926 q 466 919 485 922 q 428 912 447 917 q 392 901 410 907 q 363 886 374 894 q 333 869 350 881 q 300 844 317 858 q 269 817 283 831 q 246 793 254 803 q 234 779 240 786 q 225 769 228 772 q 218 760 218 763 q 215 753 218 758 q 207 743 211 749 q 199 733 203 738 q 196 728 196 729 q 190 718 196 724 q 173 690 183 707 q 158 667 163 674 q 138 622 150 650 q 121 579 125 593 q 116 565 118 572 q 111 556 114 558 q 102 532 106 547 q 97 501 99 517 q 97 473 96 486 q 101 454 97 460 q 109 447 106 447 q 126 446 113 446 q 160 451 147 446 q 211 485 183 463 q 265 536 239 508 q 313 592 290 564 q 347 643 335 621 q 372 690 360 664 q 392 740 383 715 q 407 784 401 764 q 413 817 413 804 q 409 841 413 829 q 401 856 406 853 q 394 865 397 858 q 393 875 390 872 q 417 876 396 878 q 482 853 453 874 q 517 796 511 832 q 507 734 519 772 q 475 668 494 696 q 468 654 468 657 q 465 647 468 651 q 457 635 461 642 q 434 603 446 618 q 410 572 422 588 q 363 517 390 544 q 303 466 335 489 q 236 426 271 443 q 167 403 201 410 q 117 401 143 397 q 75 417 92 406 q 43 444 53 432 q 28 471 33 456 q 19 501 22 489 q 15 528 15 514 q 18 559 15 542 q 26 604 21 576 q 33 624 28 611 q 42 651 38 638 q 53 678 47 665 q 63 696 58 690 q 115 782 85 740 q 182 859 144 824 q 264 919 219 894 q 358 954 308 944 q 374 958 365 956 q 388 961 383 960 q 459 963 397 964 q 606 957 521 961 q 739 955 685 954 q 808 960 793 956 q 822 963 815 961 q 831 964 828 964 q 839 953 835 964 q 842 933 843 943 q 829 914 839 922 q 783 870 797 885 q 757 839 769 856 q 738 810 749 826 q 715 775 726 793 q 695 741 704 757 q 682 717 686 725 q 670 692 679 710 q 651 658 661 675 z "},"L":{"ha":924,"x_min":-6,"x_max":992,"o":"m 364 281 q 339 247 354 267 q 308 208 324 228 q 277 169 292 188 q 251 139 263 150 q 247 129 242 132 q 264 128 250 128 q 297 126 278 128 q 335 124 317 125 q 361 122 354 124 q 397 118 368 119 q 457 115 425 117 q 528 114 488 114 q 609 115 569 114 q 681 117 649 115 q 724 121 713 119 q 752 131 738 124 q 775 144 767 138 q 800 144 790 158 q 805 128 806 138 q 797 96 804 118 q 785 65 794 82 q 768 40 776 49 q 749 22 765 35 q 721 3 732 10 q 650 -14 703 -10 q 614 -16 636 -15 q 571 -17 592 -17 q 535 -17 550 -17 q 517 -17 519 -17 q 501 -14 515 -15 q 469 -10 488 -12 q 425 -4 443 -7 q 391 1 407 -1 q 360 7 375 4 q 326 14 346 10 q 301 19 315 17 q 275 22 286 21 q 235 27 261 25 q 181 31 208 29 q 132 34 154 33 q 101 35 110 35 q 67 28 86 35 q 32 15 47 22 q 21 10 25 13 q 14 7 17 7 q 8 9 11 7 q 1 14 4 11 q -6 22 -6 19 q -3 32 -6 25 q 45 90 11 67 q 115 119 79 113 q 124 122 119 121 q 128 124 128 122 q 115 135 129 128 q 92 151 104 140 q 81 167 81 163 q 97 178 81 176 q 122 190 110 181 q 156 224 138 201 q 203 286 175 246 q 211 298 206 292 q 219 308 217 304 q 227 319 224 313 q 233 328 231 325 q 236 336 236 335 q 231 339 236 338 q 204 352 222 342 q 175 371 186 363 q 152 401 163 382 q 138 440 142 421 q 133 488 132 461 q 139 542 133 515 q 144 566 142 556 q 151 587 147 576 q 160 610 154 597 q 174 639 165 622 q 185 661 181 651 q 189 672 189 671 q 206 701 189 678 q 251 764 225 731 q 307 827 276 797 q 372 881 338 857 q 440 915 406 904 q 533 925 494 933 q 592 899 568 917 q 615 842 615 882 q 612 817 615 822 q 597 815 608 811 q 566 818 588 818 q 525 813 544 818 q 505 808 515 810 q 490 804 494 806 q 449 788 479 803 q 397 758 419 774 q 287 661 335 718 q 215 535 239 604 q 208 512 211 521 q 204 495 206 503 q 203 479 203 488 q 203 456 203 471 q 207 406 203 419 q 226 386 211 393 q 249 376 238 379 q 264 376 261 374 q 271 384 267 378 q 281 397 275 390 q 296 417 286 404 q 314 440 306 429 q 340 476 321 451 q 378 525 360 500 q 416 574 397 550 q 442 606 435 597 q 459 626 449 614 q 476 649 469 639 q 494 670 485 658 q 511 689 504 682 q 586 772 547 732 q 667 850 625 813 q 685 867 674 857 q 706 883 696 876 q 721 896 717 892 q 728 901 725 899 q 753 920 736 910 q 788 940 769 931 q 823 956 806 949 q 851 967 840 963 q 876 971 863 969 q 904 972 889 972 q 944 969 925 972 q 971 960 963 967 q 983 942 974 957 q 992 925 992 928 q 958 801 988 856 q 886 694 928 747 q 869 671 878 683 q 854 651 860 658 q 814 600 839 628 q 760 545 789 572 q 703 494 732 518 q 650 456 674 471 q 641 449 649 454 q 624 438 633 444 q 601 424 613 431 q 583 411 590 417 q 559 397 575 406 q 526 379 543 388 q 494 365 508 371 q 478 358 481 358 q 469 356 476 358 q 453 351 461 354 q 435 346 443 349 q 424 343 426 343 q 399 326 415 343 q 364 281 383 310 m 482 443 q 465 414 461 414 q 494 426 472 414 q 540 452 515 438 q 585 480 564 467 q 611 497 606 493 q 670 542 640 517 q 729 597 700 568 q 784 656 758 625 q 831 713 810 686 q 858 753 843 729 q 888 803 874 778 q 914 851 903 828 q 931 888 925 874 q 931 901 935 899 q 910 897 926 903 q 846 861 875 886 q 829 847 839 854 q 813 835 819 840 q 738 765 781 810 q 651 667 694 721 q 581 577 615 622 q 514 486 547 532 q 504 473 508 479 q 497 464 500 467 q 490 456 494 461 q 482 443 486 450 z "},"M":{"ha":1233,"x_min":15,"x_max":1325,"o":"m 493 953 q 519 953 510 953 q 535 951 529 953 q 547 949 542 950 q 560 943 551 947 q 596 914 581 932 q 622 874 611 896 q 639 828 632 851 q 649 782 646 804 q 651 761 650 771 q 653 750 653 751 q 654 740 654 750 q 654 714 654 729 l 656 679 l 671 696 q 685 712 678 703 q 697 728 692 721 q 826 865 760 808 q 946 936 893 921 q 968 942 960 940 q 990 942 976 943 q 1024 933 1014 939 q 1044 907 1033 926 q 1054 883 1053 890 q 1056 850 1056 875 q 1056 826 1056 836 q 1054 814 1056 815 q 1049 793 1050 807 q 1032 738 1046 774 q 1001 667 1018 703 q 988 638 993 650 q 982 625 982 626 q 994 638 982 622 q 1042 683 1010 654 q 1113 740 1075 711 q 1188 789 1151 768 q 1249 810 1225 810 q 1313 765 1288 810 q 1322 740 1319 753 q 1322 713 1325 728 q 1312 679 1319 699 q 1289 631 1304 660 q 1267 588 1279 611 q 1247 553 1254 565 q 1210 490 1225 517 q 1194 461 1194 463 q 1189 452 1194 461 q 1177 433 1183 443 q 1165 413 1171 422 q 1158 401 1160 403 q 1144 376 1154 392 q 1124 344 1133 360 q 1101 309 1114 328 q 1079 273 1089 290 q 1063 244 1069 256 q 1056 231 1056 232 q 1052 223 1056 229 q 1044 210 1049 217 q 1033 192 1039 203 q 1024 174 1028 181 q 1013 154 1019 165 q 1003 136 1007 143 q 991 116 997 129 q 979 92 985 103 q 971 70 975 81 q 964 56 967 60 q 961 22 960 47 q 961 2 963 6 q 951 -6 960 -1 q 917 -6 935 -12 q 901 4 906 0 q 894 8 897 8 q 888 13 893 8 q 878 23 883 17 q 869 36 874 29 q 861 47 864 43 q 856 63 858 54 q 854 85 854 71 q 856 104 856 94 q 858 119 857 114 q 869 158 865 143 q 876 175 874 172 q 893 206 885 190 q 911 238 901 222 q 922 256 914 242 q 940 288 931 271 q 955 313 949 303 q 968 335 961 324 q 985 362 975 347 q 1010 399 996 376 q 1025 423 1017 410 q 1038 443 1033 436 q 1049 460 1043 450 q 1060 476 1054 469 q 1068 492 1064 483 q 1075 503 1072 500 q 1089 527 1079 511 q 1118 572 1099 543 q 1131 593 1125 585 q 1136 603 1136 601 q 1140 610 1136 606 q 1153 630 1143 613 q 1189 693 1163 647 q 1211 735 1207 725 q 1213 746 1215 746 q 1203 742 1211 746 q 1185 733 1194 739 q 1167 722 1176 728 q 1151 713 1157 717 q 1105 677 1132 699 q 1051 631 1078 656 q 1000 583 1024 607 q 961 539 976 558 q 942 517 953 529 q 925 497 932 504 q 909 478 918 489 q 894 458 900 467 q 878 438 888 450 q 860 415 868 425 q 842 392 851 406 q 825 369 832 379 q 797 326 807 340 q 782 304 788 311 q 774 293 779 301 q 764 276 769 285 q 751 258 758 268 q 740 240 744 247 q 728 222 728 225 q 724 215 728 221 q 715 203 721 210 q 703 185 710 196 q 690 165 696 174 q 677 147 683 157 q 665 131 671 138 q 649 103 658 118 q 617 43 640 88 q 602 19 608 29 q 594 7 596 8 q 578 6 590 4 q 563 14 565 8 q 527 60 535 47 q 518 83 519 74 q 523 111 518 94 q 535 135 528 128 q 547 154 539 140 q 564 183 556 168 q 579 210 572 199 q 586 224 586 222 q 589 226 586 226 q 613 261 592 226 q 621 275 615 265 q 633 293 626 285 q 649 319 646 313 q 658 335 653 325 q 697 392 674 358 q 740 453 719 425 q 784 519 756 474 q 846 625 813 565 q 863 654 854 639 q 878 678 872 669 q 900 716 888 693 q 925 763 913 739 q 947 808 938 786 q 961 840 957 829 q 971 881 972 872 q 954 890 969 890 q 906 861 942 890 q 825 783 869 832 q 792 748 807 764 q 771 726 776 732 q 720 669 750 706 q 660 590 690 632 q 601 507 629 549 q 557 435 574 465 q 534 394 547 417 q 508 351 521 372 q 485 315 496 331 q 469 292 475 299 q 455 271 463 283 q 440 247 447 258 q 427 226 433 236 q 418 211 421 217 q 384 165 400 189 q 368 138 368 140 q 356 119 368 135 q 340 97 350 113 q 319 67 329 82 q 301 41 308 53 q 293 28 293 29 q 279 10 293 21 q 258 -3 265 -1 q 247 -3 251 -4 q 232 4 242 -3 q 203 32 218 14 q 185 67 188 50 q 183 81 182 76 q 188 90 185 85 q 197 103 190 94 q 210 124 203 113 q 228 151 217 135 q 247 179 239 167 q 268 208 257 192 q 286 233 279 224 q 301 256 292 242 q 322 285 311 271 q 342 314 332 300 q 358 333 353 328 q 389 379 378 363 q 403 399 400 396 q 413 414 404 400 q 435 447 422 428 q 459 486 447 467 q 478 517 471 506 q 497 553 485 528 q 522 604 510 578 q 546 653 535 631 q 558 681 557 675 q 581 779 575 732 q 576 842 586 826 q 567 871 569 851 q 558 884 565 875 q 543 901 551 893 q 531 909 536 908 q 507 910 526 910 q 408 885 458 910 q 312 824 357 861 q 230 743 267 788 q 172 658 193 699 q 129 577 149 618 q 94 492 110 536 q 86 460 89 474 q 82 431 83 446 q 85 388 79 397 q 110 386 92 378 q 135 404 119 392 q 167 431 151 417 q 198 460 183 446 q 218 485 213 475 q 223 492 221 489 q 225 496 225 494 q 239 514 229 496 q 251 530 244 521 q 261 544 257 539 q 313 629 288 581 q 356 721 339 678 q 381 797 375 769 q 379 843 386 824 q 379 861 375 856 q 389 863 383 865 q 406 860 394 860 q 432 850 419 860 q 453 826 444 840 q 469 797 463 813 q 478 769 476 781 q 476 738 479 760 q 467 700 472 715 q 451 661 461 683 q 430 617 442 639 q 406 574 418 594 q 382 542 393 554 q 294 443 340 490 q 193 360 249 396 q 185 353 186 353 q 164 346 181 353 q 143 339 153 340 q 114 336 133 338 q 85 335 92 335 q 68 342 78 336 q 19 414 28 361 q 16 440 17 422 q 15 475 15 458 q 17 514 15 499 q 25 553 18 529 q 84 707 40 635 q 190 834 128 779 q 331 921 253 889 q 493 953 410 953 z "},"N":{"ha":1071,"x_min":15,"x_max":1196,"o":"m 597 740 q 600 847 615 799 q 590 868 596 860 q 574 888 585 876 q 543 912 556 907 q 500 914 531 917 q 338 854 424 910 q 315 835 332 850 q 281 802 299 819 q 250 771 264 785 q 236 754 236 757 q 224 736 236 751 q 209 717 215 728 q 197 696 203 707 q 163 633 179 668 q 136 567 147 599 q 123 528 129 554 q 113 475 117 501 q 109 444 110 461 q 110 411 108 426 q 113 384 111 396 q 119 369 115 372 q 165 389 129 363 q 194 413 175 396 q 233 451 213 431 q 269 492 253 472 q 292 522 286 511 q 307 539 294 524 q 341 588 324 560 q 374 648 358 617 q 403 710 390 679 q 422 767 417 742 q 430 804 429 793 q 425 825 431 815 q 422 842 419 835 q 426 847 424 846 q 440 846 429 847 q 496 824 472 842 q 526 774 519 807 q 526 717 533 747 q 490 633 518 688 q 435 544 472 597 q 353 442 399 492 q 258 358 307 393 q 163 319 208 322 q 119 319 136 317 q 83 333 101 322 q 28 403 42 361 q 15 494 15 446 q 42 640 15 569 q 114 769 69 710 q 182 844 146 810 q 246 894 218 879 q 258 902 253 899 q 267 907 264 906 q 317 933 281 918 q 388 958 354 949 q 442 967 411 965 q 493 964 474 968 q 638 882 590 947 q 686 722 686 817 q 682 674 686 703 q 672 629 678 644 q 674 628 671 626 q 681 636 676 631 q 697 655 685 640 q 724 685 710 669 q 753 717 739 700 q 774 740 767 733 q 877 851 818 796 q 999 942 936 906 q 1051 963 1031 957 q 1097 967 1071 968 q 1149 951 1129 964 q 1188 911 1169 939 q 1194 897 1193 904 q 1196 869 1194 889 q 1185 791 1196 829 q 1160 715 1174 753 q 1146 683 1158 708 q 1118 627 1133 658 q 1088 566 1103 596 q 1064 519 1072 536 q 1038 474 1056 504 q 1001 413 1019 444 q 965 352 982 381 q 940 313 947 324 q 933 300 936 306 q 929 293 929 294 q 922 279 929 290 q 903 249 911 264 q 894 229 896 235 q 888 216 893 226 q 875 193 882 206 q 861 169 868 181 q 851 154 854 158 q 842 139 849 151 q 829 113 836 126 q 803 13 794 43 q 800 -3 806 3 q 788 -7 796 -7 q 734 17 760 -7 q 697 64 708 42 q 689 85 690 78 q 688 114 688 93 q 690 140 689 132 q 696 158 692 149 q 707 181 700 168 q 721 207 714 194 q 733 228 728 219 q 740 239 739 238 q 753 262 743 243 q 769 293 763 281 q 775 303 772 299 q 779 310 778 308 q 783 317 781 313 q 790 329 786 322 q 803 351 794 336 q 824 383 813 365 q 844 417 835 401 q 860 442 854 433 q 885 480 871 458 q 914 524 900 501 q 940 569 928 547 q 961 611 953 592 q 989 656 974 631 q 1019 710 1004 682 q 1046 766 1033 739 q 1064 814 1058 793 q 1069 833 1065 821 q 1075 856 1072 844 q 1076 899 1088 892 q 1066 897 1075 900 q 1047 890 1057 894 q 1025 881 1036 886 q 1008 872 1014 876 q 999 865 1004 868 q 993 863 996 864 q 971 846 990 863 q 933 811 951 829 q 883 763 907 788 q 842 719 860 739 q 819 694 831 708 q 800 674 807 681 q 789 660 793 665 q 781 651 785 656 q 772 642 776 647 q 760 629 768 638 q 721 585 740 607 q 682 543 701 563 q 671 529 679 539 q 654 510 663 519 q 615 464 631 483 q 585 426 599 444 q 559 389 571 408 q 532 344 547 369 q 508 308 525 333 q 472 253 492 282 q 435 197 453 224 q 407 156 417 169 q 388 125 399 144 q 369 94 376 106 q 360 78 367 90 q 346 56 353 67 q 333 34 339 44 q 324 19 326 24 q 317 5 321 8 q 304 3 313 1 q 262 28 286 7 q 228 68 238 49 q 224 79 225 75 q 226 93 224 83 q 249 133 229 103 q 293 199 268 164 q 382 340 335 269 q 390 352 385 343 q 401 369 396 361 q 413 387 407 378 q 422 401 419 396 q 433 417 426 407 q 446 436 439 426 q 460 463 451 447 q 476 489 469 478 q 544 611 513 549 q 597 740 576 674 z "},"O":{"ha":768,"x_min":29,"x_max":839,"o":"m 108 439 q 114 447 114 447 q 115 451 114 450 q 107 458 115 453 q 58 499 72 472 q 44 561 44 526 q 63 629 44 594 q 107 697 81 664 q 163 756 133 729 q 217 801 193 783 q 301 858 256 831 q 394 906 346 885 q 494 942 443 928 q 594 957 544 956 q 638 956 625 957 q 664 951 651 956 q 714 936 697 942 q 739 924 731 931 q 753 915 750 915 q 768 905 757 915 q 791 881 779 894 q 812 853 803 867 q 822 832 821 839 q 828 810 825 822 q 834 785 832 797 q 838 763 836 772 q 838 750 839 753 q 835 722 835 742 q 828 669 833 699 q 815 633 822 640 q 810 620 814 631 q 799 597 806 610 q 780 552 788 571 q 765 519 772 533 q 750 494 757 506 q 733 467 743 482 q 713 436 722 450 q 700 419 703 422 q 694 411 697 417 q 688 401 690 406 q 675 382 683 393 q 667 369 672 378 q 654 353 661 360 q 622 310 629 319 q 615 299 615 301 q 603 288 615 294 q 583 265 592 278 q 563 243 581 261 q 523 202 546 225 q 476 156 500 179 q 436 118 453 133 q 369 66 404 90 q 300 26 333 42 q 261 8 274 13 q 228 0 249 3 q 194 -3 203 -3 q 171 -1 186 -4 q 51 83 79 14 q 36 137 43 104 q 29 190 29 169 q 35 253 29 219 q 53 319 42 286 q 78 383 64 353 q 108 439 92 414 m 293 485 q 240 422 267 457 q 189 351 213 388 q 146 276 165 314 q 115 207 126 239 q 107 128 97 156 q 117 113 111 115 q 143 111 124 110 q 203 131 171 114 q 260 164 236 149 q 282 178 271 171 q 299 189 293 186 q 310 199 310 197 q 342 226 321 210 q 376 250 364 242 q 390 263 379 253 q 415 285 401 274 q 515 382 461 326 q 617 500 568 438 q 707 628 667 563 q 768 754 747 693 q 772 797 772 769 q 769 833 772 824 q 763 843 768 836 q 751 857 758 850 q 738 870 744 864 q 729 878 732 876 q 700 886 722 881 q 656 889 678 890 q 603 879 635 888 q 567 868 588 875 q 528 853 547 861 q 493 839 508 846 q 474 828 478 832 q 438 803 457 811 q 418 790 431 800 q 394 769 406 781 q 384 762 392 767 q 369 750 376 757 q 348 732 361 744 q 320 704 335 719 q 291 673 306 689 q 265 644 276 657 q 260 636 263 642 q 257 633 258 635 q 290 661 258 633 q 450 722 372 731 q 498 697 478 719 q 521 647 518 675 q 522 630 522 635 q 518 622 521 625 q 508 616 514 617 q 500 619 503 615 q 475 618 496 625 q 438 599 454 611 q 423 588 435 596 q 397 571 411 579 q 340 529 363 547 q 293 485 318 511 z "},"P":{"ha":872,"x_min":21,"x_max":922,"o":"m 442 183 q 419 186 428 185 q 400 192 411 188 q 385 197 392 194 q 376 200 379 200 q 360 178 371 200 q 347 157 354 169 q 332 135 339 144 q 317 114 325 126 q 303 93 310 101 q 285 70 296 83 q 263 44 275 57 q 241 22 251 32 q 225 8 231 13 q 203 -1 218 3 q 178 -4 189 -4 q 163 1 171 -4 q 149 8 158 4 q 129 15 139 11 q 115 22 125 17 q 93 32 104 26 q 74 43 82 38 q 65 53 65 49 q 94 76 65 61 q 119 95 103 81 q 153 127 136 110 q 182 160 169 144 q 194 182 194 176 q 198 190 194 185 q 206 201 201 194 q 223 224 215 214 q 244 254 231 235 q 257 272 250 261 q 269 290 264 283 q 281 306 276 297 q 289 318 286 314 q 296 327 292 321 q 304 339 300 333 q 320 361 314 351 q 333 382 326 371 q 343 398 336 388 q 357 418 350 408 q 369 438 364 428 q 378 451 375 447 q 405 492 389 467 q 429 536 421 518 q 435 546 432 540 q 442 557 439 551 q 463 589 453 574 q 476 611 472 604 q 492 635 481 618 q 519 674 504 653 q 547 713 533 694 q 567 742 560 732 q 580 761 574 751 q 589 776 586 771 q 608 803 596 788 q 633 834 619 818 q 658 863 646 850 q 678 882 671 876 q 692 892 685 886 q 707 900 700 897 q 713 903 710 903 q 718 906 715 904 q 722 908 721 907 q 715 913 722 910 q 700 918 708 915 q 671 928 685 925 q 629 936 657 931 q 607 937 624 938 q 570 935 590 936 q 531 931 550 933 q 499 926 511 929 q 348 865 415 908 q 226 756 281 821 q 205 731 215 743 q 183 706 194 719 q 168 685 175 690 q 148 653 158 674 q 127 610 138 633 q 108 561 117 586 q 96 515 100 536 q 93 469 90 481 q 102 453 96 460 q 115 446 108 446 q 126 449 118 446 q 142 458 133 453 q 158 469 150 463 q 172 481 167 475 q 188 494 179 486 q 204 508 197 501 q 218 523 211 515 q 229 535 225 531 q 239 547 233 540 q 250 558 244 553 q 274 588 260 569 q 297 622 288 607 q 340 691 321 650 q 372 764 360 732 q 388 815 382 788 q 390 857 393 843 q 408 879 386 885 q 435 869 421 876 q 461 853 449 863 q 483 835 474 844 q 493 817 492 825 q 496 784 497 801 q 488 736 494 767 q 464 682 483 717 q 419 610 444 647 q 365 537 393 572 q 314 481 338 501 q 298 466 304 472 q 284 453 292 460 q 265 440 276 447 q 238 422 254 433 q 129 388 174 379 q 62 424 89 394 q 25 497 35 453 q 21 546 21 515 q 26 606 21 576 q 47 677 31 639 q 84 752 63 715 q 132 822 106 789 q 185 876 158 854 q 292 941 229 913 q 417 981 354 969 q 453 986 432 983 q 497 991 475 989 q 538 994 518 993 q 567 993 557 994 q 627 987 600 990 q 677 977 654 983 q 722 963 700 971 q 769 942 744 954 q 816 917 797 929 q 838 900 835 906 q 849 886 840 894 l 856 879 q 857 876 856 878 q 872 858 857 874 q 907 793 897 831 q 919 719 917 756 q 922 683 922 696 q 918 654 921 669 q 904 603 914 632 q 883 544 894 574 q 858 490 871 515 q 836 453 846 465 q 755 360 800 401 q 660 283 710 319 q 638 267 653 278 q 605 247 622 257 q 570 226 588 236 q 543 211 553 217 q 494 192 519 200 q 442 183 468 183 m 449 335 q 444 325 444 329 q 456 324 444 322 q 482 331 467 326 q 560 365 519 342 q 636 417 600 388 q 703 481 672 446 q 754 550 733 515 q 768 569 760 558 q 784 597 775 579 q 801 638 793 615 q 817 684 810 660 q 829 729 825 708 q 822 815 838 778 q 814 831 819 822 q 802 849 808 840 q 791 865 796 858 q 783 874 786 872 q 774 869 782 875 q 768 867 768 864 q 761 863 768 869 q 745 846 754 857 q 726 822 736 835 q 710 799 717 810 q 647 699 676 749 q 590 594 618 649 q 570 558 578 572 q 556 533 563 544 q 544 508 550 521 q 529 476 538 496 q 507 433 518 454 q 489 401 496 411 q 475 381 482 393 q 464 361 468 368 q 456 345 460 353 q 449 335 451 338 z "},"Q":{"ha":768,"x_min":28,"x_max":803,"o":"m 783 599 q 748 510 769 553 q 703 428 726 468 q 673 383 681 394 q 660 361 665 371 q 651 346 656 350 q 645 340 649 344 q 638 328 642 335 q 627 313 633 321 q 615 300 621 304 q 608 290 611 294 q 604 285 604 286 q 600 276 604 281 q 587 261 597 274 q 564 233 576 249 q 537 201 551 218 q 515 178 522 185 q 482 142 489 150 q 475 132 475 135 q 481 122 475 129 q 493 107 486 115 q 553 67 525 67 q 571 58 563 67 q 576 47 576 50 q 563 26 576 42 q 538 1 549 10 q 503 -16 525 -8 q 469 -22 482 -24 q 444 -19 457 -22 q 418 -14 431 -17 q 386 5 406 -8 q 360 26 367 18 q 350 36 353 36 q 340 33 347 36 q 321 25 332 29 q 281 10 297 14 q 238 0 264 6 q 148 6 192 -8 q 69 56 104 21 q 45 92 56 69 q 31 138 35 114 q 28 172 28 150 q 31 218 28 193 q 38 269 33 243 q 47 315 42 294 q 72 385 56 347 q 107 451 89 422 q 119 471 114 463 q 124 482 124 479 q 113 490 124 485 q 65 542 85 504 q 56 564 58 557 q 57 585 54 571 q 65 624 58 601 q 84 671 72 647 q 110 717 96 694 q 139 757 124 740 q 217 837 178 801 q 301 898 257 872 q 394 940 344 924 q 504 964 444 957 q 589 965 544 969 q 668 949 633 961 q 686 940 675 946 q 706 926 697 933 q 733 900 721 913 q 746 885 746 888 q 792 799 778 844 q 799 769 797 785 q 803 722 800 754 q 801 698 803 714 q 797 665 800 682 q 791 629 794 647 q 783 599 788 611 m 696 629 q 708 666 701 644 q 719 710 714 688 q 727 752 724 732 q 731 785 731 772 q 726 824 731 806 q 713 854 722 842 q 610 906 686 894 q 446 864 538 918 q 355 794 397 836 q 282 704 313 753 q 274 689 279 697 q 264 674 268 681 q 254 660 260 668 q 244 646 249 653 q 238 633 238 635 q 246 636 239 632 q 254 644 249 639 q 264 653 260 649 q 278 666 268 657 q 301 685 289 675 q 328 704 314 694 q 353 721 342 714 q 443 754 406 754 q 503 728 483 754 q 529 665 524 701 q 528 635 532 646 q 513 611 525 625 q 445 488 465 558 q 425 349 425 418 q 427 283 425 303 q 435 264 429 264 q 451 278 438 264 q 485 311 465 292 q 534 364 515 342 q 572 413 553 386 q 582 424 581 424 q 590 435 583 425 q 608 462 597 446 q 629 495 618 478 q 650 528 640 513 q 676 578 665 551 q 696 629 688 604 m 411 575 q 426 596 419 588 q 432 606 432 604 q 422 601 432 607 q 401 588 413 596 q 378 571 389 579 q 365 560 368 563 q 346 544 361 556 q 308 515 322 529 q 278 485 293 501 q 259 463 269 475 q 242 444 249 451 q 226 428 235 438 q 213 413 218 418 q 200 397 207 407 q 187 378 193 388 q 176 363 181 369 q 172 354 172 356 q 168 347 172 351 q 160 336 165 346 q 150 315 156 326 q 107 218 118 250 q 96 161 96 186 q 97 144 96 151 q 100 133 97 136 q 119 124 104 128 q 150 119 135 119 q 169 120 157 119 q 190 124 181 121 q 221 133 203 126 q 256 146 239 139 q 286 159 274 153 q 300 168 299 165 q 300 177 300 169 q 299 196 300 185 q 299 224 299 207 q 299 260 299 242 q 302 294 300 278 q 306 318 304 310 q 309 335 307 325 q 314 356 311 346 q 319 376 317 364 q 325 399 322 389 q 339 440 329 417 q 360 487 349 463 q 385 534 371 511 q 411 575 399 557 z "},"R":{"ha":879,"x_min":22,"x_max":957,"o":"m 928 783 q 933 772 929 781 q 939 751 936 763 q 938 607 957 693 q 928 574 935 592 q 918 554 921 557 q 913 547 913 549 q 904 532 913 543 q 897 519 901 526 q 889 504 892 511 q 863 469 882 490 q 822 428 844 449 q 778 389 800 407 q 743 363 757 371 q 726 352 736 358 q 707 339 715 346 q 664 315 686 326 q 618 293 642 303 q 601 286 608 290 q 593 281 594 282 q 608 267 593 276 q 631 238 624 254 q 638 217 638 225 q 638 185 639 210 q 635 154 636 169 q 631 132 633 139 q 626 100 628 118 q 628 75 625 82 q 654 74 632 67 q 692 97 672 81 q 732 132 713 113 q 768 172 751 151 q 794 207 785 192 q 804 220 799 214 q 813 231 810 226 q 822 244 815 235 q 837 266 829 254 q 851 290 844 278 q 861 308 858 301 q 874 322 867 319 q 901 320 885 329 q 917 299 917 311 q 912 284 917 294 q 901 263 907 274 q 888 240 894 251 q 875 222 881 229 q 861 206 869 217 q 845 182 857 199 q 828 157 833 165 q 783 106 813 138 q 717 44 753 74 q 646 -8 682 14 q 582 -31 610 -31 q 564 -31 572 -32 q 553 -29 556 -31 q 517 -10 533 -22 q 497 15 501 3 q 495 74 490 31 q 513 171 500 117 q 508 229 518 201 q 490 258 503 244 q 465 278 478 272 q 457 283 461 281 q 450 286 453 285 q 438 284 443 290 q 417 249 432 278 q 410 238 414 246 q 401 224 406 231 q 389 205 396 217 q 376 182 382 193 q 365 163 371 172 q 357 151 360 154 q 349 138 351 146 q 332 108 344 128 q 303 67 319 88 q 273 30 288 47 q 250 6 258 13 q 237 -1 243 0 q 214 -3 231 -3 q 186 0 201 -3 q 155 7 171 3 q 126 16 139 11 q 106 25 113 21 q 96 31 101 28 q 86 36 90 35 q 64 56 65 42 q 66 64 64 63 q 79 67 68 65 q 189 147 122 72 q 213 175 206 167 q 219 186 219 183 q 228 200 219 189 q 238 212 232 204 q 247 226 243 219 q 256 240 251 233 q 263 250 260 247 q 271 261 265 253 q 283 281 276 269 q 297 302 290 292 q 307 318 304 313 q 311 325 308 321 q 317 332 314 329 q 329 351 325 340 q 336 363 332 363 q 344 374 339 363 q 365 411 356 401 q 371 419 371 419 q 381 438 371 424 q 392 456 392 451 q 395 461 392 457 q 403 471 399 465 q 410 482 407 478 q 414 488 414 486 q 421 500 414 493 q 447 535 428 507 q 489 599 465 563 q 507 625 496 610 q 525 650 518 640 q 540 670 532 660 q 550 688 547 681 q 589 743 567 713 q 638 803 611 774 q 694 854 664 832 q 756 882 724 876 q 764 886 764 882 q 756 892 764 888 q 735 903 747 897 q 709 913 722 908 q 685 921 696 918 q 655 926 669 925 q 615 929 640 928 q 555 928 581 929 q 506 922 529 926 q 457 908 482 917 q 397 883 432 899 q 342 852 374 872 q 292 815 311 832 q 267 790 281 804 q 240 760 253 775 q 216 733 226 746 q 200 711 206 719 q 194 702 197 707 q 188 694 190 697 q 168 661 179 682 q 146 619 157 640 q 126 578 135 597 q 113 550 117 560 q 103 501 106 525 q 103 464 100 476 q 101 453 103 454 q 107 439 96 447 q 129 431 118 431 q 147 438 135 431 q 174 455 160 444 q 205 478 189 465 q 235 506 221 492 q 366 664 310 581 q 444 818 422 747 q 449 842 450 833 q 442 857 449 850 q 439 863 440 860 q 439 868 438 865 q 443 872 439 871 q 460 874 447 874 q 478 874 472 875 q 490 867 483 872 q 501 859 494 863 q 510 853 507 856 q 526 834 517 847 q 539 810 535 821 q 543 781 543 799 q 539 749 543 764 q 493 661 525 701 q 483 644 493 660 q 458 608 474 629 q 356 495 414 544 q 236 401 299 446 q 153 372 193 372 q 94 386 125 372 q 47 425 63 400 q 32 460 36 444 q 25 507 28 475 q 22 542 22 528 q 25 572 22 556 q 28 597 26 585 q 32 614 31 608 q 37 628 35 619 q 42 644 39 638 q 56 679 46 658 q 78 722 65 700 q 103 766 90 744 q 129 801 117 788 q 218 885 167 849 q 326 942 269 922 q 460 970 385 961 q 604 976 536 979 q 684 967 650 974 q 744 947 718 960 q 757 942 751 944 q 764 939 763 939 q 771 935 769 939 q 776 932 774 933 q 782 929 779 931 q 800 919 790 928 q 824 906 808 914 q 835 899 829 903 q 843 894 840 896 q 849 889 846 892 q 854 882 853 886 q 863 875 858 875 q 867 871 867 875 q 873 862 867 869 q 889 844 879 854 q 925 793 925 806 q 928 783 925 789 m 838 629 q 860 690 853 665 q 867 735 867 715 q 860 774 867 756 q 840 814 854 793 q 819 844 826 835 q 803 853 811 853 q 775 837 792 853 q 742 799 758 821 q 711 757 725 778 q 693 726 697 736 q 687 715 690 721 q 677 699 683 708 q 660 674 671 689 q 632 633 649 658 q 617 610 625 622 q 603 585 610 597 q 594 571 601 583 q 577 540 588 558 q 555 501 567 522 q 532 460 543 479 q 522 441 528 451 q 511 424 515 431 q 490 386 490 389 q 497 384 490 385 q 514 384 504 383 q 534 387 524 385 q 553 390 544 389 q 594 407 569 394 q 644 434 618 419 q 696 465 671 449 q 736 494 721 482 q 773 528 757 513 q 800 558 789 543 q 820 591 811 574 q 838 629 829 608 z "},"S":{"ha":583,"x_min":11,"x_max":693,"o":"m 40 339 q 74 308 67 339 q 92 250 81 272 q 126 204 103 228 q 158 175 142 189 q 185 157 174 161 q 192 153 188 156 q 201 147 196 150 q 228 133 217 139 q 244 126 240 126 q 251 124 249 126 q 269 121 254 119 q 292 126 283 122 q 310 172 324 147 q 300 185 308 175 q 281 207 292 194 q 260 231 271 219 q 244 249 250 243 q 225 272 233 260 q 209 292 215 283 q 179 326 203 300 q 150 363 164 344 q 133 390 136 382 q 126 401 132 397 q 122 411 122 406 q 119 418 122 417 q 115 433 118 419 q 113 445 114 439 q 110 456 111 451 q 101 486 104 467 q 99 522 99 506 q 124 648 99 585 q 188 758 149 711 q 235 810 207 783 q 294 863 263 838 q 358 908 325 888 q 421 939 390 928 q 456 950 436 946 q 506 960 476 954 q 553 960 525 963 q 604 950 582 957 q 624 941 617 946 q 646 921 632 936 q 661 905 654 913 q 671 894 668 897 q 687 853 681 882 q 693 793 693 825 q 688 744 693 771 q 674 690 682 717 q 655 638 665 663 q 633 593 644 613 q 621 572 626 582 q 613 557 615 561 q 603 542 610 551 q 590 521 597 532 q 576 501 583 510 q 565 488 569 492 q 550 468 557 479 q 497 412 526 440 q 431 376 468 383 q 410 374 417 374 q 389 379 403 375 q 372 384 381 382 q 360 389 363 386 q 349 396 356 390 q 337 409 343 401 q 325 424 331 417 q 317 436 319 431 q 312 460 313 446 q 314 476 311 474 q 319 477 315 478 q 328 475 324 476 q 381 488 349 468 q 454 553 414 508 q 526 655 488 590 q 592 786 564 719 q 606 829 604 817 q 600 857 607 842 q 593 869 597 864 q 586 874 589 874 q 559 874 579 876 q 526 868 539 872 q 467 838 500 860 q 400 788 433 815 q 339 733 367 761 q 296 681 311 704 q 286 668 290 671 q 272 647 283 667 q 250 607 261 628 q 228 539 235 579 q 225 469 221 499 q 300 350 231 421 q 360 279 332 315 q 406 214 388 243 q 415 198 411 204 q 419 187 418 192 q 421 175 421 182 q 421 157 421 168 q 420 140 421 146 q 418 127 419 133 q 413 113 417 121 q 404 92 410 104 q 396 78 401 81 q 389 69 393 75 q 378 56 385 63 q 322 13 354 24 q 254 1 290 1 q 211 6 226 1 q 194 11 203 8 q 183 15 186 14 q 172 22 179 18 q 156 31 164 26 q 142 38 149 35 q 135 43 136 42 q 128 50 135 44 q 114 63 122 56 q 100 74 106 69 q 90 84 94 79 q 80 95 85 89 q 68 111 75 101 q 57 126 61 119 q 51 133 53 132 q 40 156 49 136 q 26 193 32 176 q 15 247 19 215 q 14 293 11 278 q 17 308 14 300 q 22 324 19 317 q 31 337 28 335 q 40 339 33 339 z "}}}
